G04 #@! TF.GenerationSoftware,KiCad,Pcbnew,9.0.0*
G04 #@! TF.CreationDate,2025-03-05T10:53:24-06:00*
G04 #@! TF.ProjectId,entree,656e7472-6565-42e6-9b69-6361645f7063,2*
G04 #@! TF.SameCoordinates,Original*
G04 #@! TF.FileFunction,Soldermask,Top*
G04 #@! TF.FilePolarity,Negative*
%FSLAX46Y46*%
G04 Gerber Fmt 4.6, Leading zero omitted, Abs format (unit mm)*
G04 Created by KiCad (PCBNEW 9.0.0) date 2025-03-05 10:53:24*
%MOMM*%
%LPD*%
G01*
G04 APERTURE LIST*
G04 Aperture macros list*
%AMRoundRect*
0 Rectangle with rounded corners*
0 $1 Rounding radius*
0 $2 $3 $4 $5 $6 $7 $8 $9 X,Y pos of 4 corners*
0 Add a 4 corners polygon primitive as box body*
4,1,4,$2,$3,$4,$5,$6,$7,$8,$9,$2,$3,0*
0 Add four circle primitives for the rounded corners*
1,1,$1+$1,$2,$3*
1,1,$1+$1,$4,$5*
1,1,$1+$1,$6,$7*
1,1,$1+$1,$8,$9*
0 Add four rect primitives between the rounded corners*
20,1,$1+$1,$2,$3,$4,$5,0*
20,1,$1+$1,$4,$5,$6,$7,0*
20,1,$1+$1,$6,$7,$8,$9,0*
20,1,$1+$1,$8,$9,$2,$3,0*%
G04 Aperture macros list end*
%ADD10C,0.010000*%
%ADD11RoundRect,0.140000X-0.170000X0.140000X-0.170000X-0.140000X0.170000X-0.140000X0.170000X0.140000X0*%
%ADD12RoundRect,0.140000X0.140000X0.170000X-0.140000X0.170000X-0.140000X-0.170000X0.140000X-0.170000X0*%
%ADD13RoundRect,0.218750X-0.256250X0.218750X-0.256250X-0.218750X0.256250X-0.218750X0.256250X0.218750X0*%
%ADD14RoundRect,0.112500X-0.112500X0.187500X-0.112500X-0.187500X0.112500X-0.187500X0.112500X0.187500X0*%
%ADD15C,0.650000*%
%ADD16O,0.650000X0.950000*%
%ADD17R,0.700000X0.300000*%
%ADD18O,1.400000X0.800000*%
%ADD19RoundRect,0.135000X-0.185000X0.135000X-0.185000X-0.135000X0.185000X-0.135000X0.185000X0.135000X0*%
%ADD20RoundRect,0.135000X-0.135000X-0.185000X0.135000X-0.185000X0.135000X0.185000X-0.135000X0.185000X0*%
%ADD21RoundRect,0.062500X-0.350000X-0.062500X0.350000X-0.062500X0.350000X0.062500X-0.350000X0.062500X0*%
%ADD22RoundRect,0.062500X-0.062500X-0.350000X0.062500X-0.350000X0.062500X0.350000X-0.062500X0.350000X0*%
%ADD23R,2.700000X2.700000*%
%ADD24RoundRect,0.140000X0.170000X-0.140000X0.170000X0.140000X-0.170000X0.140000X-0.170000X-0.140000X0*%
%ADD25RoundRect,0.135000X0.185000X-0.135000X0.185000X0.135000X-0.185000X0.135000X-0.185000X-0.135000X0*%
%ADD26RoundRect,0.150000X-0.825000X-0.150000X0.825000X-0.150000X0.825000X0.150000X-0.825000X0.150000X0*%
%ADD27C,1.000000*%
%ADD28RoundRect,0.062500X-0.375000X-0.062500X0.375000X-0.062500X0.375000X0.062500X-0.375000X0.062500X0*%
%ADD29RoundRect,0.062500X-0.062500X-0.375000X0.062500X-0.375000X0.062500X0.375000X-0.062500X0.375000X0*%
%ADD30R,5.600000X5.600000*%
%ADD31RoundRect,0.093750X0.106250X-0.093750X0.106250X0.093750X-0.106250X0.093750X-0.106250X-0.093750X0*%
%ADD32R,1.600000X1.000000*%
%ADD33RoundRect,0.225000X0.225000X0.375000X-0.225000X0.375000X-0.225000X-0.375000X0.225000X-0.375000X0*%
%ADD34RoundRect,0.150000X0.150000X-0.512500X0.150000X0.512500X-0.150000X0.512500X-0.150000X-0.512500X0*%
%ADD35R,1.600000X0.760000*%
%ADD36RoundRect,0.140000X-0.140000X-0.170000X0.140000X-0.170000X0.140000X0.170000X-0.140000X0.170000X0*%
%ADD37R,1.100000X0.600000*%
%ADD38C,2.000000*%
%ADD39C,3.600000*%
%ADD40C,5.600000*%
%ADD41RoundRect,0.250000X-0.250000X-0.475000X0.250000X-0.475000X0.250000X0.475000X-0.250000X0.475000X0*%
%ADD42RoundRect,0.150000X-0.150000X0.587500X-0.150000X-0.587500X0.150000X-0.587500X0.150000X0.587500X0*%
%ADD43R,0.550000X0.400000*%
%ADD44R,1.470000X2.750000*%
G04 APERTURE END LIST*
D10*
X157665000Y-94825000D02*
X158275000Y-94825000D01*
X158275000Y-95325000D01*
X157865000Y-95325000D01*
X157865000Y-95475000D01*
X158275000Y-95475000D01*
X158275000Y-95975000D01*
X157865000Y-95975000D01*
X157865000Y-96125000D01*
X158275000Y-96125000D01*
X158275000Y-96625000D01*
X157865000Y-96625000D01*
X157865000Y-96775000D01*
X158275000Y-96775000D01*
X158275000Y-97275000D01*
X157665000Y-97275000D01*
X157665000Y-97525000D01*
X155995000Y-97525000D01*
X155995000Y-94575000D01*
X157665000Y-94575000D01*
X157665000Y-94825000D01*
G36*
X157665000Y-94825000D02*
G01*
X158275000Y-94825000D01*
X158275000Y-95325000D01*
X157865000Y-95325000D01*
X157865000Y-95475000D01*
X158275000Y-95475000D01*
X158275000Y-95975000D01*
X157865000Y-95975000D01*
X157865000Y-96125000D01*
X158275000Y-96125000D01*
X158275000Y-96625000D01*
X157865000Y-96625000D01*
X157865000Y-96775000D01*
X158275000Y-96775000D01*
X158275000Y-97275000D01*
X157665000Y-97275000D01*
X157665000Y-97525000D01*
X155995000Y-97525000D01*
X155995000Y-94575000D01*
X157665000Y-94575000D01*
X157665000Y-94825000D01*
G37*
D11*
X141040000Y-105650000D03*
X141040000Y-106610000D03*
D12*
X142590000Y-103790000D03*
X141630000Y-103790000D03*
D11*
X165450000Y-104045000D03*
X165450000Y-105005000D03*
D13*
X147100000Y-108312500D03*
X147100000Y-109887500D03*
X143100000Y-95500000D03*
X143100000Y-97075000D03*
D14*
X139325000Y-107750000D03*
X139325000Y-109850000D03*
D15*
X139048000Y-97520000D03*
D16*
X139048000Y-104720000D03*
D17*
X139708000Y-98370000D03*
X139708000Y-98870000D03*
X139708000Y-99370000D03*
X139708000Y-99870000D03*
X139708000Y-100370000D03*
X139708000Y-100870000D03*
X139708000Y-101370000D03*
X139708000Y-101870000D03*
X139708000Y-102370000D03*
X139708000Y-102870000D03*
X139708000Y-103370000D03*
X139708000Y-103870000D03*
X138008000Y-103620000D03*
X138008000Y-103120000D03*
X138008000Y-102620000D03*
X138008000Y-102120000D03*
X138008000Y-101620000D03*
X138008000Y-101120000D03*
X138008000Y-100620000D03*
X138008000Y-100120000D03*
X138008000Y-99620000D03*
X138008000Y-99120000D03*
X138008000Y-98620000D03*
X138008000Y-98120000D03*
D18*
X131848000Y-96630000D03*
X137798000Y-96990000D03*
X137798000Y-105250000D03*
X131848000Y-105610000D03*
D19*
X152700000Y-96040000D03*
X152700000Y-97060000D03*
X151650000Y-96040000D03*
X151650000Y-97060000D03*
X148600000Y-105040000D03*
X148600000Y-106060000D03*
X148450000Y-109090000D03*
X148450000Y-110110000D03*
X144400000Y-95490000D03*
X144400000Y-96510000D03*
D20*
X174840000Y-98850000D03*
X175860000Y-98850000D03*
X174840000Y-97550000D03*
X175860000Y-97550000D03*
D21*
X145687500Y-100000000D03*
X145687500Y-100500000D03*
X145687500Y-101000000D03*
X145687500Y-101500000D03*
X145687500Y-102000000D03*
X145687500Y-102500000D03*
D22*
X146400000Y-103212500D03*
X146900000Y-103212500D03*
X147400000Y-103212500D03*
X147900000Y-103212500D03*
X148400000Y-103212500D03*
X148900000Y-103212500D03*
D21*
X149612500Y-102500000D03*
X149612500Y-102000000D03*
X149612500Y-101500000D03*
X149612500Y-101000000D03*
X149612500Y-100500000D03*
X149612500Y-100000000D03*
D22*
X148900000Y-99287500D03*
X148400000Y-99287500D03*
X147900000Y-99287500D03*
X147400000Y-99287500D03*
X146900000Y-99287500D03*
X146400000Y-99287500D03*
D23*
X147650000Y-101250000D03*
D24*
X149500000Y-97030000D03*
X149500000Y-96070000D03*
D11*
X148420000Y-96070000D03*
X148420000Y-97030000D03*
D24*
X147350000Y-97030000D03*
X147350000Y-96070000D03*
D25*
X150600000Y-97060000D03*
X150600000Y-96040000D03*
X145600000Y-106060000D03*
X145600000Y-105040000D03*
X146600000Y-106060000D03*
X146600000Y-105040000D03*
X147600000Y-106060000D03*
X147600000Y-105040000D03*
X174450000Y-106160000D03*
X174450000Y-105140000D03*
D26*
X167345000Y-102618000D03*
X167345000Y-103888000D03*
X167345000Y-105158000D03*
X167345000Y-106428000D03*
X172295000Y-106428000D03*
X172295000Y-105158000D03*
X172295000Y-103888000D03*
X172295000Y-102618000D03*
D12*
X156030000Y-98400000D03*
X155070000Y-98400000D03*
D25*
X153850000Y-98060000D03*
X153850000Y-97040000D03*
D27*
X163250000Y-103530000D03*
X162000000Y-105125000D03*
D20*
X174890000Y-96300000D03*
X175910000Y-96300000D03*
D19*
X169450000Y-108190000D03*
X169450000Y-109210000D03*
X172200000Y-108190000D03*
X172200000Y-109210000D03*
D13*
X168100000Y-108212500D03*
X168100000Y-109787500D03*
X170850000Y-108212500D03*
X170850000Y-109787500D03*
D11*
X149550000Y-109120000D03*
X149550000Y-110080000D03*
X150600000Y-109120000D03*
X150600000Y-110080000D03*
D28*
X153262500Y-101200000D03*
X153262500Y-101700000D03*
X153262500Y-102200000D03*
X153262500Y-102700000D03*
X153262500Y-103200000D03*
X153262500Y-103700000D03*
X153262500Y-104200000D03*
X153262500Y-104700000D03*
X153262500Y-105200000D03*
X153262500Y-105700000D03*
X153262500Y-106200000D03*
X153262500Y-106700000D03*
D29*
X153950000Y-107387500D03*
X154450000Y-107387500D03*
X154950000Y-107387500D03*
X155450000Y-107387500D03*
X155950000Y-107387500D03*
X156450000Y-107387500D03*
X156950000Y-107387500D03*
X157450000Y-107387500D03*
X157950000Y-107387500D03*
X158450000Y-107387500D03*
X158950000Y-107387500D03*
X159450000Y-107387500D03*
D28*
X160137500Y-106700000D03*
X160137500Y-106200000D03*
X160137500Y-105700000D03*
X160137500Y-105200000D03*
X160137500Y-104700000D03*
X160137500Y-104200000D03*
X160137500Y-103700000D03*
X160137500Y-103200000D03*
X160137500Y-102700000D03*
X160137500Y-102200000D03*
X160137500Y-101700000D03*
X160137500Y-101200000D03*
D29*
X159450000Y-100512500D03*
X158950000Y-100512500D03*
X158450000Y-100512500D03*
X157950000Y-100512500D03*
X157450000Y-100512500D03*
X156950000Y-100512500D03*
X156450000Y-100512500D03*
X155950000Y-100512500D03*
X155450000Y-100512500D03*
X154950000Y-100512500D03*
X154450000Y-100512500D03*
X153950000Y-100512500D03*
D30*
X156700000Y-103950000D03*
D27*
X165030000Y-102530000D03*
D31*
X142164000Y-106602000D03*
X142814000Y-106602000D03*
X143464000Y-106602000D03*
X143464000Y-104827000D03*
X142814000Y-104827000D03*
X142164000Y-104827000D03*
D32*
X142814000Y-105714500D03*
D24*
X151450000Y-102355000D03*
X151450000Y-101395000D03*
X149600000Y-106030000D03*
X149600000Y-105070000D03*
D33*
X166100000Y-95475000D03*
X162800000Y-95475000D03*
D27*
X151420000Y-106830000D03*
X150000000Y-107600000D03*
X152110000Y-109142000D03*
X154132000Y-109396000D03*
D34*
X142200000Y-101337500D03*
X143150000Y-101337500D03*
X144100000Y-101337500D03*
X144100000Y-99062500D03*
X143150000Y-99062500D03*
X142200000Y-99062500D03*
D35*
X168110000Y-96295000D03*
X168110000Y-97565000D03*
X168110000Y-98835000D03*
X168110000Y-100105000D03*
X173190000Y-100105000D03*
X173190000Y-98835000D03*
X173190000Y-97565000D03*
X173190000Y-96295000D03*
D27*
X164525000Y-106425000D03*
D36*
X161690000Y-106610000D03*
X162650000Y-106610000D03*
X161690000Y-107570000D03*
X162650000Y-107570000D03*
D37*
X151200000Y-103475000D03*
X151200000Y-104875000D03*
D12*
X145840000Y-110130000D03*
X144880000Y-110130000D03*
D25*
X145410000Y-96510000D03*
X145410000Y-95490000D03*
D27*
X177050000Y-108050000D03*
D38*
X186654800Y-96982400D03*
X181654800Y-96982400D03*
X186654800Y-100482400D03*
X181654800Y-100482400D03*
X186654800Y-103982400D03*
X181654800Y-103982400D03*
X186654800Y-107482400D03*
X181654800Y-107482400D03*
D39*
X175662400Y-87581200D03*
D40*
X175662400Y-87581200D03*
D39*
X145662400Y-87581200D03*
D40*
X145662400Y-87581200D03*
D39*
X145662400Y-117581200D03*
D40*
X145662400Y-117581200D03*
D19*
X144360000Y-102780000D03*
X144360000Y-103800000D03*
D27*
X174200000Y-103930000D03*
D41*
X142390000Y-108160000D03*
X144290000Y-108160000D03*
D42*
X175570000Y-108232500D03*
X173670000Y-108232500D03*
X174620000Y-110107500D03*
D39*
X175662400Y-117581200D03*
D40*
X175662400Y-117581200D03*
D43*
X155150000Y-95075000D03*
X155150000Y-95725000D03*
X155150000Y-96375000D03*
X155150000Y-97025000D03*
D44*
X156830000Y-96050000D03*
M02*
