M48
; DRILL file {KiCad 9.0.0} date 2025-03-05T10:53:27-0600
; FORMAT={-:-/ absolute / inch / decimal}
; #@! TF.CreationDate,2025-03-05T10:53:27-06:00
; #@! TF.GenerationSoftware,Kicad,Pcbnew,9.0.0
; #@! TF.FileFunction,Plated,1,2,PTH
FMAT,2
INCH
; #@! TA.AperFunction,Plated,PTH,ViaDrill
T1C0.0118
; #@! TA.AperFunction,Plated,PTH,ComponentDrill
T2C0.0197
; #@! TA.AperFunction,Plated,PTH,ComponentDrill
T3C0.0472
; #@! TA.AperFunction,Plated,PTH,ComponentDrill
T4C0.1260
%
G90
G05
T1
X5.2343Y-4.222
X5.2579Y-4.3524
X5.3957Y-3.9646
X5.3957Y-4.0
X5.5482Y-4.2369
X5.5486Y-4.3187
X5.5543Y-4.0307
X5.5551Y-3.7933
X5.5551Y-3.8209
X5.559Y-3.9506
X5.562Y-3.9252
X5.5643Y-4.1269
X5.566Y-3.9752
X5.5697Y-4.2748
X5.628Y-4.0335
X5.6732Y-3.937
X5.6742Y-4.1269
X5.6807Y-3.8484
X5.7028Y-3.9961
X5.7441Y-3.7594
X5.7539Y-4.1043
X5.7899Y-4.1038
X5.8031Y-3.8484
X5.8307Y-3.7539
X5.8445Y-3.8484
X5.8563Y-4.2343
X5.8583Y-4.2047
X5.8642Y-3.8701
X5.8957Y-4.0807
X5.9293Y-4.1734
X5.9311Y-4.0335
X5.9409Y-3.8614
X5.975Y-3.8583
X5.9803Y-4.1594
X5.9846Y-3.7269
X5.9941Y-4.1161
X6.0198Y-3.9037
X6.0522Y-4.3573
X6.0748Y-3.8878
X6.102Y-3.9048
X6.1303Y-3.9043
X6.1594Y-3.9193
X6.1843Y-3.9061
X6.2126Y-3.8957
X6.2382Y-3.8849
X6.2654Y-3.7587
X6.2656Y-3.9028
X6.283Y-3.9203
X6.2894Y-3.8032
X6.3207Y-3.9198
X6.3223Y-3.815
X6.3337Y-4.2293
X6.3404Y-3.9049
X6.3443Y-3.9864
X6.3567Y-4.0384
X6.3647Y-3.8884
X6.3799Y-4.063
X6.3825Y-4.0375
X6.3898Y-3.8819
X6.4469Y-3.9902
X6.4754Y-4.1339
X6.4762Y-4.0729
X6.4815Y-4.2374
X6.4882Y-3.9859
X6.5236Y-3.8937
X6.5314Y-3.9391
X6.5416Y-3.9157
X6.5886Y-3.999
X6.6535Y-4.19
X6.6673Y-4.0925
X6.6713Y-4.3238
X6.6811Y-4.065
X6.7264Y-4.065
X6.7618Y-3.7933
X6.7618Y-3.8445
X6.7618Y-3.8917
X6.8563Y-4.0394
X6.8799Y-3.939
X6.8996Y-4.1791
T3
X7.1518Y-3.8182
X7.1518Y-3.956
X7.1518Y-4.0938
X7.1518Y-4.2316
X7.3486Y-3.8182
X7.3486Y-3.956
X7.3486Y-4.0938
X7.3486Y-4.2316
T4
X5.7347Y-3.4481
X5.7347Y-4.6292
X6.9158Y-3.4481
X6.9158Y-4.6292
T2
G00X5.2027Y-3.8043
M15
G01X5.1791Y-3.8043
M16
G05
G00X5.2027Y-4.1579
M15
G01X5.1791Y-4.1579
M16
G05
G00X5.4369Y-3.8185
M15
G01X5.4133Y-3.8185
M16
G05
G00X5.4369Y-4.1437
M15
G01X5.4133Y-4.1437
M16
G05
M30
