G04 #@! TF.GenerationSoftware,KiCad,Pcbnew,9.0.0*
G04 #@! TF.CreationDate,2025-03-05T10:53:24-06:00*
G04 #@! TF.ProjectId,entree,656e7472-6565-42e6-9b69-6361645f7063,2*
G04 #@! TF.SameCoordinates,Original*
G04 #@! TF.FileFunction,Copper,L2,Bot*
G04 #@! TF.FilePolarity,Positive*
%FSLAX46Y46*%
G04 Gerber Fmt 4.6, Leading zero omitted, Abs format (unit mm)*
G04 Created by KiCad (PCBNEW 9.0.0) date 2025-03-05 10:53:24*
%MOMM*%
%LPD*%
G01*
G04 APERTURE LIST*
G04 Aperture macros list*
%AMFreePoly0*
4,1,23,0.550000,-0.750000,0.000000,-0.750000,0.000000,-0.745722,-0.065263,-0.745722,-0.191342,-0.711940,-0.304381,-0.646677,-0.396677,-0.554381,-0.461940,-0.441342,-0.495722,-0.315263,-0.495722,-0.250000,-0.500000,-0.250000,-0.500000,0.250000,-0.495722,0.250000,-0.495722,0.315263,-0.461940,0.441342,-0.396677,0.554381,-0.304381,0.646677,-0.191342,0.711940,-0.065263,0.745722,0.000000,0.745722,
0.000000,0.750000,0.550000,0.750000,0.550000,-0.750000,0.550000,-0.750000,$1*%
%AMFreePoly1*
4,1,23,0.000000,0.745722,0.065263,0.745722,0.191342,0.711940,0.304381,0.646677,0.396677,0.554381,0.461940,0.441342,0.495722,0.315263,0.495722,0.250000,0.500000,0.250000,0.500000,-0.250000,0.495722,-0.250000,0.495722,-0.315263,0.461940,-0.441342,0.396677,-0.554381,0.304381,-0.646677,0.191342,-0.711940,0.065263,-0.745722,0.000000,-0.745722,0.000000,-0.750000,-0.550000,-0.750000,
-0.550000,0.750000,0.000000,0.750000,0.000000,0.745722,0.000000,0.745722,$1*%
%AMFreePoly2*
4,1,23,0.500000,-0.750000,0.000000,-0.750000,0.000000,-0.745722,-0.065263,-0.745722,-0.191342,-0.711940,-0.304381,-0.646677,-0.396677,-0.554381,-0.461940,-0.441342,-0.495722,-0.315263,-0.495722,-0.250000,-0.500000,-0.250000,-0.500000,0.250000,-0.495722,0.250000,-0.495722,0.315263,-0.461940,0.441342,-0.396677,0.554381,-0.304381,0.646677,-0.191342,0.711940,-0.065263,0.745722,0.000000,0.745722,
0.000000,0.750000,0.500000,0.750000,0.500000,-0.750000,0.500000,-0.750000,$1*%
%AMFreePoly3*
4,1,23,0.000000,0.745722,0.065263,0.745722,0.191342,0.711940,0.304381,0.646677,0.396677,0.554381,0.461940,0.441342,0.495722,0.315263,0.495722,0.250000,0.500000,0.250000,0.500000,-0.250000,0.495722,-0.250000,0.495722,-0.315263,0.461940,-0.441342,0.396677,-0.554381,0.304381,-0.646677,0.191342,-0.711940,0.065263,-0.745722,0.000000,-0.745722,0.000000,-0.750000,-0.500000,-0.750000,
-0.500000,0.750000,0.000000,0.750000,0.000000,0.745722,0.000000,0.745722,$1*%
G04 Aperture macros list end*
G04 #@! TA.AperFunction,EtchedComponent*
%ADD10C,0.000000*%
G04 #@! TD*
G04 #@! TA.AperFunction,SMDPad,CuDef*
%ADD11C,1.500000*%
G04 #@! TD*
G04 #@! TA.AperFunction,ComponentPad*
%ADD12O,1.400000X0.800000*%
G04 #@! TD*
G04 #@! TA.AperFunction,ComponentPad*
%ADD13C,2.000000*%
G04 #@! TD*
G04 #@! TA.AperFunction,ComponentPad*
%ADD14C,3.600000*%
G04 #@! TD*
G04 #@! TA.AperFunction,ConnectorPad*
%ADD15C,5.600000*%
G04 #@! TD*
G04 #@! TA.AperFunction,SMDPad,CuDef*
%ADD16FreePoly0,0.000000*%
G04 #@! TD*
G04 #@! TA.AperFunction,SMDPad,CuDef*
%ADD17R,1.000000X1.500000*%
G04 #@! TD*
G04 #@! TA.AperFunction,SMDPad,CuDef*
%ADD18FreePoly1,0.000000*%
G04 #@! TD*
G04 #@! TA.AperFunction,SMDPad,CuDef*
%ADD19FreePoly2,0.000000*%
G04 #@! TD*
G04 #@! TA.AperFunction,SMDPad,CuDef*
%ADD20FreePoly3,0.000000*%
G04 #@! TD*
G04 #@! TA.AperFunction,ViaPad*
%ADD21C,0.500000*%
G04 #@! TD*
G04 #@! TA.AperFunction,Conductor*
%ADD22C,0.200000*%
G04 #@! TD*
G04 #@! TA.AperFunction,Conductor*
%ADD23C,0.500000*%
G04 #@! TD*
G04 #@! TA.AperFunction,Conductor*
%ADD24C,0.150000*%
G04 #@! TD*
G04 APERTURE END LIST*
D10*
G04 #@! TA.AperFunction,EtchedComponent*
G36*
X143200000Y-96750000D02*
G01*
X142700000Y-96750000D01*
X142700000Y-96150000D01*
X143200000Y-96150000D01*
X143200000Y-96750000D01*
G37*
G04 #@! TD.AperFunction*
D11*
X165765200Y-110869200D03*
X163225200Y-110869200D03*
X160685200Y-110869200D03*
X158145200Y-110869200D03*
X155605200Y-110869200D03*
D12*
X131848000Y-96630000D03*
X137798000Y-96990000D03*
X137798000Y-105250000D03*
X131848000Y-105610000D03*
D13*
X186654800Y-96982400D03*
X181654800Y-96982400D03*
X186654800Y-100482400D03*
X181654800Y-100482400D03*
X186654800Y-103982400D03*
X181654800Y-103982400D03*
X186654800Y-107482400D03*
X181654800Y-107482400D03*
D14*
X175662400Y-87581200D03*
D15*
X175662400Y-87581200D03*
D14*
X145662400Y-87581200D03*
D15*
X145662400Y-87581200D03*
D14*
X145662400Y-117581200D03*
D15*
X145662400Y-117581200D03*
D14*
X175662400Y-117581200D03*
D15*
X175662400Y-117581200D03*
D16*
X142300000Y-96450000D03*
D17*
X143600000Y-96450000D03*
D18*
X144900000Y-96450000D03*
D19*
X152250000Y-95400000D03*
D20*
X153550000Y-95400000D03*
D21*
X159587169Y-99574980D03*
X160545437Y-99562697D03*
X161664600Y-98764600D03*
X158450000Y-98677200D03*
X160587179Y-96899989D03*
X164800000Y-101242600D03*
X164495200Y-103452400D03*
X141334000Y-104822000D03*
X144124000Y-104822000D03*
X152010000Y-94662490D03*
X141080000Y-102380000D03*
X164630000Y-107630000D03*
X153725000Y-110675000D03*
X169450000Y-109825000D03*
X145900500Y-95490000D03*
X140924000Y-107618000D03*
X150650000Y-102450000D03*
X140933650Y-109695020D03*
X148100000Y-95350000D03*
X151765000Y-98000000D03*
X174150000Y-102600000D03*
X149750000Y-103650000D03*
X169350000Y-103950000D03*
X142950000Y-102450000D03*
X144290000Y-97749990D03*
X152903554Y-99153554D03*
X141470000Y-108580000D03*
X164475000Y-105000000D03*
X150603561Y-106003561D03*
X132950000Y-107240000D03*
X161146439Y-101253561D03*
X147400000Y-97750000D03*
X163750000Y-101350000D03*
X148750000Y-107550000D03*
X151900000Y-105649998D03*
X141100000Y-97050000D03*
X160875000Y-107425000D03*
X157800000Y-98950000D03*
X159140000Y-95470000D03*
X148800000Y-106800000D03*
X141274998Y-99700010D03*
X144100000Y-100000000D03*
X137050000Y-100700021D03*
X141198250Y-100345475D03*
X161460544Y-102574968D03*
X162050000Y-103200000D03*
X141375403Y-100970880D03*
X137050000Y-101600000D03*
X144850000Y-101500000D03*
X162115908Y-102553347D03*
X159750010Y-96600011D03*
X133550002Y-110550000D03*
X150900008Y-98080029D03*
X148450000Y-97750000D03*
X147063946Y-104236054D03*
X156450000Y-99550002D03*
X152250000Y-104550000D03*
X157081059Y-99214182D03*
X146150000Y-104250000D03*
X154300000Y-98750000D03*
X167350000Y-101575000D03*
X168999998Y-106425000D03*
X154990918Y-99180930D03*
X141100000Y-96350000D03*
X169700000Y-103250000D03*
X170850000Y-103250000D03*
X148950000Y-98300000D03*
X155709482Y-99169482D03*
X171750000Y-96350000D03*
X162300000Y-98600000D03*
X165700000Y-98900000D03*
X174750000Y-100050000D03*
X175250000Y-106150000D03*
X159146414Y-99132348D03*
X171750000Y-98850000D03*
X165898400Y-100053682D03*
X161046437Y-99185200D03*
X171750000Y-97650000D03*
X166157574Y-99457574D03*
D22*
X160516534Y-99591600D02*
X160545437Y-99562697D01*
X159587169Y-99591600D02*
X160516534Y-99591600D01*
X160817837Y-98956600D02*
X161046437Y-99185200D01*
X159322162Y-98956600D02*
X160817837Y-98956600D01*
X159146414Y-99132348D02*
X159322162Y-98956600D01*
X161531348Y-98631348D02*
X161664600Y-98764600D01*
X158450000Y-98677200D02*
X158495852Y-98631348D01*
X158495852Y-98631348D02*
X161531348Y-98631348D01*
X160587179Y-96899989D02*
X160587179Y-96587183D01*
X160587179Y-96587183D02*
X160100006Y-96100010D01*
X164804160Y-101246760D02*
X164800000Y-101242600D01*
X164804160Y-101695640D02*
X164804160Y-101246760D01*
X165327000Y-102218479D02*
X164804160Y-101695640D01*
X165327000Y-108767400D02*
X165327000Y-102218479D01*
X163225200Y-110869200D02*
X165327000Y-108767400D01*
X159146200Y-109868200D02*
X158145200Y-110869200D01*
X160315321Y-109868200D02*
X159146200Y-109868200D01*
X164976000Y-105207521D02*
X160315321Y-109868200D01*
X164495200Y-103452400D02*
X164976000Y-103933200D01*
X164976000Y-103933200D02*
X164976000Y-105207521D01*
X159049400Y-107425000D02*
X155605200Y-110869200D01*
X160875000Y-107425000D02*
X159049400Y-107425000D01*
X154360600Y-112037600D02*
X159516800Y-112037600D01*
X159516800Y-112037600D02*
X160685200Y-110869200D01*
X151221436Y-108898436D02*
X154360600Y-112037600D01*
X151221436Y-108778564D02*
X151221436Y-108898436D01*
X141102000Y-104822000D02*
X141080000Y-104800000D01*
X141080000Y-104800000D02*
X141080000Y-102380000D01*
X152010000Y-94662490D02*
X152010000Y-95160000D01*
X144124000Y-104822000D02*
X141102000Y-104822000D01*
X139865002Y-105850000D02*
X140933650Y-106918648D01*
X138098000Y-105250000D02*
X138698000Y-105850000D01*
X140933650Y-106918648D02*
X140933650Y-109695020D01*
X145900500Y-95490000D02*
X147960000Y-95490000D01*
X169599999Y-104199999D02*
X169599999Y-109675001D01*
X150650000Y-102450000D02*
X142950000Y-102450000D01*
X169599999Y-109675001D02*
X169450000Y-109825000D01*
X147960000Y-95490000D02*
X148100000Y-95350000D01*
X138698000Y-105850000D02*
X139865002Y-105850000D01*
X174150000Y-102600000D02*
X172800000Y-103950000D01*
X172800000Y-103950000D02*
X169350000Y-103950000D01*
X169350000Y-103950000D02*
X169599999Y-104199999D01*
X131848000Y-105152000D02*
X131848000Y-105610000D01*
X163750000Y-101703553D02*
X163850000Y-101803553D01*
X148750000Y-107550000D02*
X149410675Y-107550000D01*
X157371024Y-101378566D02*
X161021434Y-101378566D01*
X135920000Y-100035012D02*
X136275022Y-99679990D01*
X163850000Y-101803553D02*
X163850000Y-104450000D01*
X153820000Y-100070000D02*
X156062458Y-100070000D01*
X132950000Y-107240000D02*
X132950000Y-106746449D01*
X149410675Y-107550000D02*
X150603561Y-106357114D01*
X141100000Y-98615026D02*
X141100000Y-97050000D01*
X163325000Y-105200000D02*
X164275000Y-105200000D01*
X150603561Y-106357114D02*
X150603561Y-106003561D01*
X163325000Y-105200000D02*
X163100000Y-105200000D01*
X152349998Y-105200000D02*
X163325000Y-105200000D01*
X144290000Y-97749990D02*
X144290010Y-97750000D01*
X132950000Y-106746449D02*
X135920000Y-103776449D01*
X156062458Y-100070000D02*
X157371024Y-101378566D01*
X141470000Y-108580000D02*
X147720000Y-108580000D01*
X163850000Y-104450000D02*
X163100000Y-105200000D01*
X161021434Y-101378566D02*
X161146439Y-101253561D01*
X152903554Y-99153554D02*
X153820000Y-100070000D01*
X144290010Y-97750000D02*
X147400000Y-97750000D01*
X135920000Y-103776449D02*
X135920000Y-100035012D01*
X136275022Y-99679990D02*
X140035036Y-99679990D01*
X151900000Y-105649998D02*
X152349998Y-105200000D01*
X163100000Y-105200000D02*
X160875000Y-107425000D01*
X164275000Y-105200000D02*
X164475000Y-105000000D01*
X140035036Y-99679990D02*
X141100000Y-98615026D01*
X163750000Y-101350000D02*
X163750000Y-101703553D01*
X147720000Y-108580000D02*
X148750000Y-107550000D01*
D23*
X159070000Y-95400000D02*
X159140000Y-95470000D01*
D22*
X151900000Y-104000000D02*
X152500000Y-104000000D01*
X149100000Y-106800000D02*
X151900000Y-104000000D01*
X158199980Y-99999980D02*
X157800000Y-99600000D01*
X163417533Y-103872443D02*
X163417533Y-101827557D01*
X152500000Y-104000000D02*
X153210000Y-104710000D01*
D23*
X153550000Y-95400000D02*
X159070000Y-95400000D01*
D22*
X148800000Y-106800000D02*
X149100000Y-106800000D01*
X162579976Y-104710000D02*
X163417533Y-103872443D01*
D24*
X161589956Y-99999980D02*
X158199980Y-99999980D01*
D22*
X153210000Y-104710000D02*
X162579976Y-104710000D01*
X163417533Y-101827557D02*
X161589956Y-99999980D01*
X157800000Y-99600000D02*
X157800000Y-98950000D01*
X144100000Y-100000000D02*
X141574988Y-100000000D01*
X141574988Y-100000000D02*
X141274998Y-99700010D01*
X152059981Y-99724987D02*
X153135005Y-100800011D01*
X155802489Y-100800011D02*
X157577446Y-102574968D01*
X141463330Y-100345475D02*
X141617856Y-100500001D01*
X150515005Y-100500001D02*
X151290019Y-99724987D01*
X151290019Y-99724987D02*
X152059981Y-99724987D01*
X141617856Y-100500001D02*
X150515005Y-100500001D01*
X140843704Y-100700021D02*
X137050000Y-100700021D01*
X141198250Y-100345475D02*
X140843704Y-100700021D01*
X153135005Y-100800011D02*
X155802489Y-100800011D01*
X141198250Y-100345475D02*
X141463330Y-100345475D01*
X157577446Y-102574968D02*
X161460544Y-102574968D01*
X155657510Y-101150022D02*
X152990026Y-101150022D01*
X151434998Y-100074998D02*
X150539116Y-100970880D01*
X161924978Y-103074978D02*
X157582466Y-103074978D01*
X150539116Y-100970880D02*
X141375403Y-100970880D01*
X152990026Y-101150022D02*
X151915002Y-100074998D01*
X162050000Y-103200000D02*
X161924978Y-103074978D01*
X157582466Y-103074978D02*
X155657510Y-101150022D01*
X151915002Y-100074998D02*
X151434998Y-100074998D01*
X144850000Y-101500000D02*
X137150000Y-101500000D01*
X137150000Y-101500000D02*
X137050000Y-101600000D01*
X162115908Y-102553347D02*
X162115908Y-102523225D01*
X136270000Y-100180002D02*
X136270000Y-103930000D01*
X159750010Y-96600011D02*
X154749989Y-96600011D01*
X152200000Y-99150000D02*
X141060000Y-99150000D01*
X133550002Y-106649998D02*
X133550002Y-110550000D01*
X140180000Y-100030000D02*
X136420002Y-100030000D01*
X136420002Y-100030000D02*
X136270000Y-100180002D01*
X136270000Y-103930000D02*
X133550002Y-106649998D01*
X141060000Y-99150000D02*
X140180000Y-100030000D01*
X154749989Y-96600011D02*
X152200000Y-99150000D01*
X149269979Y-96450000D02*
X150900008Y-98080029D01*
X144900000Y-96450000D02*
X149269979Y-96450000D01*
X148350001Y-98449999D02*
X143552407Y-98449999D01*
X148450000Y-97750000D02*
X148450000Y-98350000D01*
X143552407Y-98449999D02*
X142300000Y-97197592D01*
X148450000Y-98350000D02*
X148350001Y-98449999D01*
X142300000Y-97197592D02*
X142300000Y-96450000D01*
X161300000Y-100700000D02*
X157599998Y-100700000D01*
X162400010Y-103899990D02*
X162717513Y-103582487D01*
X153389966Y-103899990D02*
X162400010Y-103899990D01*
X162717513Y-102117513D02*
X161300000Y-100700000D01*
X157599998Y-100700000D02*
X156450000Y-99550002D01*
X151550020Y-103299980D02*
X152789956Y-103299980D01*
X147063946Y-104236054D02*
X150613946Y-104236054D01*
X152789956Y-103299980D02*
X153389966Y-103899990D01*
X162717513Y-103582487D02*
X162717513Y-102117513D01*
X150613946Y-104236054D02*
X151550020Y-103299980D01*
X151896447Y-104550000D02*
X152250000Y-104550000D01*
X151221436Y-105225011D02*
X151896447Y-104550000D01*
X151221436Y-108778564D02*
X151221436Y-105225011D01*
X146650000Y-104750000D02*
X146150000Y-104250000D01*
X157744976Y-100349990D02*
X161444978Y-100349990D01*
X152644978Y-103649990D02*
X151755022Y-103649990D01*
X161444978Y-100349990D02*
X163067523Y-101972535D01*
X157081059Y-99686073D02*
X157744976Y-100349990D01*
X163067523Y-103727465D02*
X162544988Y-104250000D01*
X150655012Y-104750000D02*
X146650000Y-104750000D01*
X153244988Y-104250000D02*
X152644978Y-103649990D01*
X157081059Y-99214182D02*
X157081059Y-99686073D01*
X162544988Y-104250000D02*
X153244988Y-104250000D01*
X163067523Y-101972535D02*
X163067523Y-103727465D01*
X151755022Y-103649990D02*
X150655012Y-104750000D01*
X154300000Y-98750000D02*
X155650011Y-97399989D01*
X155650011Y-97399989D02*
X162494979Y-97399989D01*
X166639111Y-101544121D02*
X167399990Y-101544121D01*
X162494979Y-97399989D02*
X166639111Y-101544121D01*
X168700000Y-104100000D02*
X168700000Y-106100000D01*
X168999998Y-106399998D02*
X168999998Y-106425000D01*
X168700000Y-106100000D02*
X168999998Y-106399998D01*
X156421848Y-97750000D02*
X162350000Y-97750000D01*
X154990918Y-99180930D02*
X156421848Y-97750000D01*
X162350000Y-97750000D02*
X168700000Y-104100000D01*
X141646457Y-95449990D02*
X143549990Y-95449990D01*
X143549990Y-95449990D02*
X143600000Y-95500000D01*
X143600000Y-95500000D02*
X143600000Y-96450000D01*
X141100000Y-95996447D02*
X141646457Y-95449990D01*
X141100000Y-96350000D02*
X141100000Y-95996447D01*
X170850000Y-103250000D02*
X169700000Y-103250000D01*
X160100006Y-96100010D02*
X154699990Y-96100010D01*
X148950000Y-98300000D02*
X149449989Y-98799989D01*
X149449989Y-98799989D02*
X152000011Y-98799989D01*
X152000011Y-98799989D02*
X154699990Y-96100010D01*
X156750000Y-98150000D02*
X161850000Y-98150000D01*
X171750000Y-96350000D02*
X169200000Y-98900000D01*
X155709482Y-99169482D02*
X156328954Y-98550010D01*
X161850000Y-98150000D02*
X162300000Y-98600000D01*
X156349990Y-98550010D02*
X156750000Y-98150000D01*
X169200000Y-98900000D02*
X165700000Y-98900000D01*
X156328954Y-98550010D02*
X156349990Y-98550010D01*
X174750000Y-105650000D02*
X174750000Y-100050000D01*
X175250000Y-106150000D02*
X174750000Y-105650000D01*
X170550000Y-98850000D02*
X169346318Y-100053682D01*
X169346318Y-100053682D02*
X165898400Y-100053682D01*
X171750000Y-98850000D02*
X170550000Y-98850000D01*
X171150000Y-97650000D02*
X169342426Y-99457574D01*
X171750000Y-97650000D02*
X171150000Y-97650000D01*
X169342426Y-99457574D02*
X166157574Y-99457574D01*
G04 #@! TA.AperFunction,Conductor*
G36*
X175871986Y-82988428D02*
G01*
X176276266Y-83024813D01*
X176282814Y-83025699D01*
X176682219Y-83098181D01*
X176688689Y-83099658D01*
X176945672Y-83170581D01*
X177079964Y-83207643D01*
X177086279Y-83209695D01*
X177466313Y-83352324D01*
X177472376Y-83354915D01*
X177838112Y-83531044D01*
X177843959Y-83534191D01*
X178192409Y-83742380D01*
X178197950Y-83746038D01*
X178526332Y-83984621D01*
X178531523Y-83988761D01*
X178837188Y-84255812D01*
X178841988Y-84260400D01*
X179122501Y-84553794D01*
X179126870Y-84558795D01*
X179379950Y-84876148D01*
X179383852Y-84881520D01*
X179607457Y-85220266D01*
X179610862Y-85225964D01*
X179765275Y-85512912D01*
X179803209Y-85583404D01*
X179806090Y-85589386D01*
X179965621Y-85962630D01*
X179967954Y-85968847D01*
X180093382Y-86354874D01*
X180095149Y-86361274D01*
X180185475Y-86757016D01*
X180186660Y-86763550D01*
X180241145Y-87165773D01*
X180241740Y-87172386D01*
X180260025Y-87579529D01*
X180260100Y-87582849D01*
X180260100Y-92271918D01*
X180289682Y-92301500D01*
X180331518Y-92301500D01*
X188966617Y-92301500D01*
X188983032Y-92303344D01*
X189102034Y-92330416D01*
X189211192Y-92355250D01*
X189220278Y-92357940D01*
X189445983Y-92440836D01*
X189454650Y-92444666D01*
X189667896Y-92555761D01*
X189675999Y-92560667D01*
X189873272Y-92698128D01*
X189880689Y-92704038D01*
X190058753Y-92865608D01*
X190065356Y-92872420D01*
X190207120Y-93038820D01*
X190221280Y-93055440D01*
X190226957Y-93063042D01*
X190358180Y-93264503D01*
X190362838Y-93272768D01*
X190467211Y-93489368D01*
X190470773Y-93498161D01*
X190546574Y-93726333D01*
X190548982Y-93735510D01*
X190594967Y-93971505D01*
X190596181Y-93980914D01*
X190597778Y-94005772D01*
X190611748Y-94223259D01*
X190611900Y-94227983D01*
X190611900Y-110223170D01*
X190611742Y-110228010D01*
X190595538Y-110475225D01*
X190594274Y-110484822D01*
X190546418Y-110725408D01*
X190543913Y-110734757D01*
X190465061Y-110967048D01*
X190461357Y-110975991D01*
X190352862Y-111196000D01*
X190348024Y-111204379D01*
X190255485Y-111342874D01*
X190211734Y-111408351D01*
X190205841Y-111416029D01*
X190044103Y-111600458D01*
X190037258Y-111607303D01*
X189852829Y-111769041D01*
X189845149Y-111774934D01*
X189641179Y-111911224D01*
X189632800Y-111916062D01*
X189412791Y-112024557D01*
X189403848Y-112028261D01*
X189171557Y-112107113D01*
X189162208Y-112109618D01*
X188921622Y-112157474D01*
X188912025Y-112158738D01*
X188664811Y-112174942D01*
X188659971Y-112175100D01*
X188641481Y-112175100D01*
X188627884Y-112180732D01*
X188626543Y-112177495D01*
X188595631Y-112190300D01*
X180289682Y-112190300D01*
X180260100Y-112219882D01*
X180260100Y-117579550D01*
X180260025Y-117582870D01*
X180241740Y-117990013D01*
X180241145Y-117996626D01*
X180186660Y-118398849D01*
X180185475Y-118405383D01*
X180095149Y-118801125D01*
X180093382Y-118807525D01*
X179967954Y-119193552D01*
X179965621Y-119199769D01*
X179806090Y-119573013D01*
X179803209Y-119578995D01*
X179610863Y-119936433D01*
X179607457Y-119942133D01*
X179383852Y-120280879D01*
X179379950Y-120286251D01*
X179126870Y-120603604D01*
X179122501Y-120608605D01*
X178841988Y-120901999D01*
X178837188Y-120906587D01*
X178531523Y-121173638D01*
X178526332Y-121177778D01*
X178197950Y-121416361D01*
X178192409Y-121420019D01*
X177843959Y-121628208D01*
X177838112Y-121631355D01*
X177588930Y-121751355D01*
X177472394Y-121807476D01*
X177466296Y-121810082D01*
X177086279Y-121952704D01*
X177079964Y-121954756D01*
X176688691Y-122062740D01*
X176682217Y-122064218D01*
X176282830Y-122136697D01*
X176276250Y-122137588D01*
X175871986Y-122173972D01*
X175865353Y-122174270D01*
X175459447Y-122174270D01*
X175452814Y-122173972D01*
X175048549Y-122137588D01*
X175041969Y-122136697D01*
X174642582Y-122064218D01*
X174636108Y-122062740D01*
X174244835Y-121954756D01*
X174238520Y-121952704D01*
X173881863Y-121818849D01*
X173858497Y-121810079D01*
X173852413Y-121807479D01*
X173592223Y-121682179D01*
X173486687Y-121631355D01*
X173480840Y-121628208D01*
X173132390Y-121420019D01*
X173126849Y-121416361D01*
X172798467Y-121177778D01*
X172793276Y-121173638D01*
X172487611Y-120906587D01*
X172482811Y-120901999D01*
X172202298Y-120608605D01*
X172197929Y-120603604D01*
X171944849Y-120286251D01*
X171940947Y-120280879D01*
X171717337Y-119942126D01*
X171713941Y-119936441D01*
X171521584Y-119578983D01*
X171518714Y-119573025D01*
X171359178Y-119199769D01*
X171356845Y-119193552D01*
X171231417Y-118807525D01*
X171229650Y-118801125D01*
X171218031Y-118750220D01*
X171139321Y-118405368D01*
X171138141Y-118398864D01*
X171083652Y-117996608D01*
X171083060Y-117990030D01*
X171064775Y-117582870D01*
X171064700Y-117579550D01*
X171064700Y-117409919D01*
X172612400Y-117409919D01*
X172612400Y-117752480D01*
X172650755Y-118092902D01*
X172726983Y-118426874D01*
X172726986Y-118426886D01*
X172840125Y-118750220D01*
X172988761Y-119058865D01*
X173171020Y-119348929D01*
X173384607Y-119616759D01*
X173417335Y-119649487D01*
X174442639Y-118624181D01*
X174619417Y-118800959D01*
X173594112Y-119826264D01*
X173626840Y-119858992D01*
X173894670Y-120072579D01*
X174184734Y-120254838D01*
X174493379Y-120403474D01*
X174816713Y-120516613D01*
X174816725Y-120516616D01*
X175150697Y-120592844D01*
X175491120Y-120631200D01*
X175833680Y-120631200D01*
X176174102Y-120592844D01*
X176508074Y-120516616D01*
X176508086Y-120516613D01*
X176831420Y-120403474D01*
X177140065Y-120254838D01*
X177430129Y-120072579D01*
X177697959Y-119858992D01*
X177730687Y-119826264D01*
X177730687Y-119826263D01*
X176705383Y-118800959D01*
X176882159Y-118624182D01*
X177907464Y-119649487D01*
X177940192Y-119616759D01*
X178153779Y-119348929D01*
X178336038Y-119058865D01*
X178484674Y-118750220D01*
X178597813Y-118426886D01*
X178597816Y-118426874D01*
X178674044Y-118092902D01*
X178712400Y-117752480D01*
X178712400Y-117409919D01*
X178674044Y-117069497D01*
X178597816Y-116735525D01*
X178597813Y-116735513D01*
X178484674Y-116412179D01*
X178336038Y-116103534D01*
X178153779Y-115813470D01*
X177940192Y-115545640D01*
X177907464Y-115512912D01*
X176882158Y-116538216D01*
X176705381Y-116361439D01*
X177730687Y-115336135D01*
X177697959Y-115303407D01*
X177430129Y-115089820D01*
X177140065Y-114907561D01*
X176831420Y-114758925D01*
X176508086Y-114645786D01*
X176508074Y-114645783D01*
X176174102Y-114569555D01*
X176066246Y-114557403D01*
X178360900Y-114557403D01*
X178373434Y-114568605D01*
X178374964Y-114570011D01*
X178392276Y-114586380D01*
X178393761Y-114587824D01*
X178444067Y-114638130D01*
X179262100Y-114638130D01*
X179262100Y-113136130D01*
X178360900Y-113136130D01*
X178360900Y-114557403D01*
X176066246Y-114557403D01*
X175833680Y-114531200D01*
X175491120Y-114531200D01*
X175150697Y-114569555D01*
X174816725Y-114645783D01*
X174816713Y-114645786D01*
X174493379Y-114758925D01*
X174184734Y-114907561D01*
X173894664Y-115089824D01*
X173626841Y-115303406D01*
X173594112Y-115336134D01*
X173594112Y-115336135D01*
X174619417Y-116361440D01*
X174442640Y-116538217D01*
X173417335Y-115512912D01*
X173384606Y-115545641D01*
X173171024Y-115813464D01*
X172988761Y-116103534D01*
X172840125Y-116412179D01*
X172726986Y-116735513D01*
X172726983Y-116735525D01*
X172650755Y-117069497D01*
X172612400Y-117409919D01*
X171064700Y-117409919D01*
X171064700Y-114246551D01*
X173360900Y-114246551D01*
X173665598Y-114055097D01*
X173667365Y-114054021D01*
X173687858Y-114041930D01*
X173689660Y-114040901D01*
X173714161Y-114027357D01*
X173715993Y-114026377D01*
X173737220Y-114015409D01*
X173739081Y-114014480D01*
X174072984Y-113853679D01*
X174074871Y-113852803D01*
X174096666Y-113843052D01*
X174098572Y-113842232D01*
X174124439Y-113831519D01*
X174126368Y-113830751D01*
X174148616Y-113822260D01*
X174150561Y-113821549D01*
X174500293Y-113699173D01*
X174502257Y-113698516D01*
X174524926Y-113691289D01*
X174526910Y-113690687D01*
X174553811Y-113682934D01*
X174555818Y-113682386D01*
X174578954Y-113676417D01*
X174580973Y-113675926D01*
X174862900Y-113611577D01*
X174862900Y-113533541D01*
X175860900Y-113533541D01*
X175873620Y-113533899D01*
X175875695Y-113533987D01*
X175903647Y-113535558D01*
X175905715Y-113535703D01*
X175929457Y-113537706D01*
X175931521Y-113537909D01*
X176299718Y-113579394D01*
X176301772Y-113579655D01*
X176325323Y-113582978D01*
X176327370Y-113583296D01*
X176354972Y-113587982D01*
X176357018Y-113588359D01*
X176380463Y-113593021D01*
X176382498Y-113593455D01*
X176743827Y-113675926D01*
X176745846Y-113676417D01*
X176768982Y-113682386D01*
X176770989Y-113682934D01*
X176797890Y-113690687D01*
X176799874Y-113691289D01*
X176822543Y-113698516D01*
X176824507Y-113699173D01*
X177174239Y-113821549D01*
X177176184Y-113822260D01*
X177198432Y-113830751D01*
X177200361Y-113831519D01*
X177226228Y-113842232D01*
X177228134Y-113843052D01*
X177249929Y-113852803D01*
X177251816Y-113853679D01*
X177362900Y-113907174D01*
X177362900Y-113136130D01*
X175860900Y-113136130D01*
X175860900Y-113533541D01*
X174862900Y-113533541D01*
X174862900Y-113136130D01*
X173360900Y-113136130D01*
X173360900Y-114246551D01*
X171064700Y-114246551D01*
X171064700Y-112219882D01*
X171035118Y-112190300D01*
X159897013Y-112190300D01*
X159844687Y-112168626D01*
X159823013Y-112116300D01*
X159844687Y-112063974D01*
X159911545Y-111997115D01*
X160211524Y-111697135D01*
X160263849Y-111675462D01*
X160292167Y-111681095D01*
X160369435Y-111713100D01*
X160422534Y-111735094D01*
X160596509Y-111769700D01*
X160596511Y-111769700D01*
X160773889Y-111769700D01*
X160773891Y-111769700D01*
X160947866Y-111735094D01*
X161111747Y-111667213D01*
X161259235Y-111568664D01*
X161384664Y-111443235D01*
X161483213Y-111295747D01*
X161551094Y-111131866D01*
X161585700Y-110957891D01*
X161585700Y-110780509D01*
X161551094Y-110606534D01*
X161483213Y-110442653D01*
X161384664Y-110295165D01*
X161259235Y-110169736D01*
X161111747Y-110071187D01*
X161111746Y-110071186D01*
X161111744Y-110071185D01*
X160947870Y-110003307D01*
X160947860Y-110003304D01*
X160831356Y-109980130D01*
X160773891Y-109968700D01*
X160747733Y-109968700D01*
X160695407Y-109947026D01*
X160673733Y-109894700D01*
X160695407Y-109842374D01*
X162792302Y-107745479D01*
X164950175Y-105587606D01*
X165002500Y-105565933D01*
X165054826Y-105587607D01*
X165076500Y-105639933D01*
X165076500Y-108632986D01*
X165054826Y-108685312D01*
X163698874Y-110041263D01*
X163646548Y-110062937D01*
X163618230Y-110057304D01*
X163487870Y-110003307D01*
X163487860Y-110003304D01*
X163371356Y-109980130D01*
X163313891Y-109968700D01*
X163136509Y-109968700D01*
X163087189Y-109978510D01*
X162962539Y-110003304D01*
X162962529Y-110003307D01*
X162798655Y-110071185D01*
X162651168Y-110169733D01*
X162525733Y-110295168D01*
X162427185Y-110442655D01*
X162359307Y-110606529D01*
X162359304Y-110606539D01*
X162333801Y-110734757D01*
X162324700Y-110780509D01*
X162324700Y-110957891D01*
X162336130Y-111015356D01*
X162359304Y-111131860D01*
X162359307Y-111131870D01*
X162427185Y-111295744D01*
X162500722Y-111405800D01*
X162525736Y-111443235D01*
X162651165Y-111568664D01*
X162798653Y-111667213D01*
X162962534Y-111735094D01*
X163136509Y-111769700D01*
X163136511Y-111769700D01*
X163313889Y-111769700D01*
X163313891Y-111769700D01*
X163487866Y-111735094D01*
X163651747Y-111667213D01*
X163661098Y-111660965D01*
X165150209Y-111660965D01*
X165150209Y-111660966D01*
X165291524Y-111755390D01*
X165473506Y-111830769D01*
X165473517Y-111830772D01*
X165666710Y-111869200D01*
X165863690Y-111869200D01*
X166056882Y-111830772D01*
X166056893Y-111830769D01*
X166238873Y-111755391D01*
X166380189Y-111660965D01*
X165765200Y-111045976D01*
X165150209Y-111660965D01*
X163661098Y-111660965D01*
X163799235Y-111568664D01*
X163924664Y-111443235D01*
X164023213Y-111295747D01*
X164091094Y-111131866D01*
X164125700Y-110957891D01*
X164125700Y-110780509D01*
X164123751Y-110770709D01*
X164765200Y-110770709D01*
X164765200Y-110967690D01*
X164803627Y-111160882D01*
X164803630Y-111160893D01*
X164879009Y-111342874D01*
X164973433Y-111484189D01*
X165588423Y-110869200D01*
X165588423Y-110869199D01*
X165941976Y-110869199D01*
X165941976Y-110869200D01*
X166556965Y-111484189D01*
X166651391Y-111342873D01*
X166713760Y-111192300D01*
X170860900Y-111192300D01*
X171133557Y-111192300D01*
X171147994Y-111193722D01*
X171312215Y-111226388D01*
X171326097Y-111230599D01*
X171507985Y-111305941D01*
X171520779Y-111312779D01*
X171659993Y-111405800D01*
X171671206Y-111415003D01*
X171839997Y-111583794D01*
X171849200Y-111595007D01*
X171942221Y-111734221D01*
X171949059Y-111747015D01*
X172024401Y-111928903D01*
X172028612Y-111942785D01*
X172061278Y-112107006D01*
X172062700Y-112121443D01*
X172062700Y-112138130D01*
X172362900Y-112138130D01*
X173360900Y-112138130D01*
X174862900Y-112138130D01*
X175860900Y-112138130D01*
X177362900Y-112138130D01*
X178360900Y-112138130D01*
X179262100Y-112138130D01*
X179262100Y-112121443D01*
X179263522Y-112107006D01*
X179296188Y-111942785D01*
X179300399Y-111928903D01*
X179375741Y-111747015D01*
X179382579Y-111734221D01*
X179475600Y-111595007D01*
X179484803Y-111583794D01*
X179653594Y-111415003D01*
X179664807Y-111405800D01*
X179804021Y-111312779D01*
X179816815Y-111305941D01*
X179862900Y-111286851D01*
X179862900Y-111192300D01*
X180860900Y-111192300D01*
X182362900Y-111192300D01*
X183360900Y-111192300D01*
X184862900Y-111192300D01*
X185860900Y-111192300D01*
X187362900Y-111192300D01*
X187362900Y-110636130D01*
X185860900Y-110636130D01*
X185860900Y-111192300D01*
X184862900Y-111192300D01*
X184862900Y-110636130D01*
X183360900Y-110636130D01*
X183360900Y-111192300D01*
X182362900Y-111192300D01*
X182362900Y-110636130D01*
X180860900Y-110636130D01*
X180860900Y-111192300D01*
X179862900Y-111192300D01*
X179862900Y-110636130D01*
X178360900Y-110636130D01*
X178360900Y-112138130D01*
X177362900Y-112138130D01*
X177362900Y-110636130D01*
X175860900Y-110636130D01*
X175860900Y-112138130D01*
X174862900Y-112138130D01*
X174862900Y-110636130D01*
X173360900Y-110636130D01*
X173360900Y-112138130D01*
X172362900Y-112138130D01*
X172362900Y-110636130D01*
X170860900Y-110636130D01*
X170860900Y-111192300D01*
X166713760Y-111192300D01*
X166726769Y-111160893D01*
X166726772Y-111160882D01*
X166765200Y-110967690D01*
X166765200Y-110770709D01*
X166726772Y-110577517D01*
X166726769Y-110577506D01*
X166651390Y-110395524D01*
X166556965Y-110254209D01*
X165941976Y-110869199D01*
X165588423Y-110869199D01*
X164973433Y-110254209D01*
X164973432Y-110254209D01*
X164879010Y-110395522D01*
X164803630Y-110577506D01*
X164803627Y-110577517D01*
X164765200Y-110770709D01*
X164123751Y-110770709D01*
X164091094Y-110606534D01*
X164037095Y-110476167D01*
X164037095Y-110419530D01*
X164053133Y-110395526D01*
X164371227Y-110077432D01*
X165150209Y-110077432D01*
X165150209Y-110077433D01*
X165765199Y-110692423D01*
X166380189Y-110077433D01*
X166380189Y-110077432D01*
X166238875Y-109983009D01*
X166056893Y-109907630D01*
X166056882Y-109907627D01*
X165863690Y-109869200D01*
X165666710Y-109869200D01*
X165473517Y-109907627D01*
X165473506Y-109907630D01*
X165291522Y-109983010D01*
X165150209Y-110077432D01*
X164371227Y-110077432D01*
X165416088Y-109032573D01*
X166552216Y-109032573D01*
X166643435Y-109070357D01*
X166646757Y-109071829D01*
X166684492Y-109089677D01*
X166687736Y-109091310D01*
X166730954Y-109114411D01*
X166734114Y-109116201D01*
X166769902Y-109137652D01*
X166772970Y-109139595D01*
X167122457Y-109373116D01*
X167144817Y-109396602D01*
X167179660Y-109454735D01*
X167237798Y-109489582D01*
X167261283Y-109511942D01*
X167345600Y-109638130D01*
X167362900Y-109638130D01*
X170860900Y-109638130D01*
X172362900Y-109638130D01*
X173360900Y-109638130D01*
X174862900Y-109638130D01*
X175860900Y-109638130D01*
X177362900Y-109638130D01*
X178360900Y-109638130D01*
X179862900Y-109638130D01*
X179862900Y-108789401D01*
X183360900Y-108789401D01*
X183360900Y-109638130D01*
X184862900Y-109638130D01*
X184862900Y-108789401D01*
X188360900Y-108789401D01*
X188360900Y-109638130D01*
X189613900Y-109638130D01*
X189613900Y-108136130D01*
X188701457Y-108136130D01*
X188664105Y-108251089D01*
X188663153Y-108253836D01*
X188651587Y-108285185D01*
X188650526Y-108287894D01*
X188635522Y-108324110D01*
X188634358Y-108326771D01*
X188620392Y-108357062D01*
X188619125Y-108359674D01*
X188519124Y-108555935D01*
X188517756Y-108558494D01*
X188501454Y-108587606D01*
X188499984Y-108590114D01*
X188479504Y-108623536D01*
X188477938Y-108625984D01*
X188459383Y-108653755D01*
X188457720Y-108656140D01*
X188360900Y-108789401D01*
X184862900Y-108789401D01*
X184862900Y-108671307D01*
X184851880Y-108656140D01*
X184850217Y-108653755D01*
X184831662Y-108625984D01*
X184830096Y-108623536D01*
X184809616Y-108590114D01*
X184808146Y-108587606D01*
X184791844Y-108558494D01*
X184790476Y-108555935D01*
X184690475Y-108359674D01*
X184689208Y-108357062D01*
X184675242Y-108326771D01*
X184674078Y-108324110D01*
X184659074Y-108287894D01*
X184658013Y-108285185D01*
X184646447Y-108253836D01*
X184645495Y-108251089D01*
X184608143Y-108136130D01*
X183701457Y-108136130D01*
X183664105Y-108251089D01*
X183663153Y-108253836D01*
X183651587Y-108285185D01*
X183650526Y-108287894D01*
X183635522Y-108324110D01*
X183634358Y-108326771D01*
X183620392Y-108357062D01*
X183619125Y-108359674D01*
X183519124Y-108555935D01*
X183517756Y-108558494D01*
X183501454Y-108587606D01*
X183499984Y-108590114D01*
X183479504Y-108623536D01*
X183477938Y-108625984D01*
X183459383Y-108653755D01*
X183457720Y-108656140D01*
X183360900Y-108789401D01*
X179862900Y-108789401D01*
X179862900Y-108671307D01*
X179851880Y-108656140D01*
X179850217Y-108653755D01*
X179831662Y-108625984D01*
X179830096Y-108623536D01*
X179809616Y-108590114D01*
X179808146Y-108587606D01*
X179791844Y-108558494D01*
X179790476Y-108555935D01*
X179690475Y-108359674D01*
X179689208Y-108357062D01*
X179675242Y-108326771D01*
X179674078Y-108324110D01*
X179659074Y-108287894D01*
X179658013Y-108285185D01*
X179646447Y-108253836D01*
X179645495Y-108251089D01*
X179608143Y-108136130D01*
X178360900Y-108136130D01*
X178360900Y-109638130D01*
X177362900Y-109638130D01*
X177362900Y-108136130D01*
X175860900Y-108136130D01*
X175860900Y-109638130D01*
X174862900Y-109638130D01*
X174862900Y-108136130D01*
X173360900Y-108136130D01*
X173360900Y-109638130D01*
X172362900Y-109638130D01*
X172362900Y-108136130D01*
X170860900Y-108136130D01*
X170860900Y-109638130D01*
X167362900Y-109638130D01*
X167362900Y-109266387D01*
X168360900Y-109266387D01*
X168400498Y-109188673D01*
X168406565Y-109178773D01*
X168512962Y-109032329D01*
X168520503Y-109023499D01*
X168648499Y-108895503D01*
X168657329Y-108887962D01*
X168803773Y-108781565D01*
X168813673Y-108775498D01*
X168974957Y-108693319D01*
X168985686Y-108688875D01*
X169157841Y-108632939D01*
X169169132Y-108630228D01*
X169347917Y-108601911D01*
X169359493Y-108601000D01*
X169540507Y-108601000D01*
X169552083Y-108601911D01*
X169730868Y-108630228D01*
X169742159Y-108632939D01*
X169862900Y-108672169D01*
X169862900Y-108136130D01*
X168360900Y-108136130D01*
X168360900Y-109266387D01*
X167362900Y-109266387D01*
X167362900Y-108136130D01*
X166575500Y-108136130D01*
X166575500Y-108866276D01*
X166575144Y-108873530D01*
X166566957Y-108956648D01*
X166565891Y-108963832D01*
X166552216Y-109032573D01*
X165416088Y-109032573D01*
X165539364Y-108909297D01*
X165577500Y-108817228D01*
X165577500Y-108717572D01*
X165577500Y-107391853D01*
X180504300Y-107391853D01*
X180504300Y-107572946D01*
X180532628Y-107751806D01*
X180532631Y-107751819D01*
X180588587Y-107924035D01*
X180588588Y-107924038D01*
X180588589Y-107924039D01*
X180670804Y-108085394D01*
X180777247Y-108231901D01*
X180905299Y-108359953D01*
X181051806Y-108466396D01*
X181213161Y-108548611D01*
X181213164Y-108548612D01*
X181213163Y-108548612D01*
X181385380Y-108604568D01*
X181385386Y-108604569D01*
X181385391Y-108604571D01*
X181504633Y-108623457D01*
X181564253Y-108632900D01*
X181564254Y-108632900D01*
X181745347Y-108632900D01*
X181804468Y-108623536D01*
X181924209Y-108604571D01*
X181924216Y-108604568D01*
X181924219Y-108604568D01*
X182002401Y-108579165D01*
X182096439Y-108548611D01*
X182257794Y-108466396D01*
X182404301Y-108359953D01*
X182532353Y-108231901D01*
X182638796Y-108085394D01*
X182721011Y-107924039D01*
X182776971Y-107751809D01*
X182805300Y-107572946D01*
X182805300Y-107391854D01*
X182805300Y-107391853D01*
X185504300Y-107391853D01*
X185504300Y-107572946D01*
X185532628Y-107751806D01*
X185532631Y-107751819D01*
X185588587Y-107924035D01*
X185588588Y-107924038D01*
X185588589Y-107924039D01*
X185670804Y-108085394D01*
X185777247Y-108231901D01*
X185905299Y-108359953D01*
X186051806Y-108466396D01*
X186213161Y-108548611D01*
X186213164Y-108548612D01*
X186213163Y-108548612D01*
X186385380Y-108604568D01*
X186385386Y-108604569D01*
X186385391Y-108604571D01*
X186504633Y-108623457D01*
X186564253Y-108632900D01*
X186564254Y-108632900D01*
X186745347Y-108632900D01*
X186804468Y-108623536D01*
X186924209Y-108604571D01*
X186924216Y-108604568D01*
X186924219Y-108604568D01*
X187002401Y-108579165D01*
X187096439Y-108548611D01*
X187257794Y-108466396D01*
X187404301Y-108359953D01*
X187532353Y-108231901D01*
X187638796Y-108085394D01*
X187721011Y-107924039D01*
X187776971Y-107751809D01*
X187805300Y-107572946D01*
X187805300Y-107391854D01*
X187799793Y-107357087D01*
X187779589Y-107229520D01*
X187776971Y-107212991D01*
X187776969Y-107212986D01*
X187776968Y-107212980D01*
X187721012Y-107040764D01*
X187721011Y-107040763D01*
X187721011Y-107040761D01*
X187638796Y-106879406D01*
X187532353Y-106732899D01*
X187404301Y-106604847D01*
X187291933Y-106523207D01*
X187257796Y-106498405D01*
X187177567Y-106457526D01*
X187096439Y-106416189D01*
X187096438Y-106416188D01*
X187096435Y-106416187D01*
X187096436Y-106416187D01*
X186924219Y-106360231D01*
X186924206Y-106360228D01*
X186745347Y-106331900D01*
X186745346Y-106331900D01*
X186564254Y-106331900D01*
X186564253Y-106331900D01*
X186385393Y-106360228D01*
X186385380Y-106360231D01*
X186213164Y-106416187D01*
X186051804Y-106498405D01*
X186051803Y-106498405D01*
X185919620Y-106594442D01*
X185905299Y-106604847D01*
X185777247Y-106732899D01*
X185777244Y-106732902D01*
X185777244Y-106732903D01*
X185670805Y-106879403D01*
X185670805Y-106879404D01*
X185588587Y-107040764D01*
X185532631Y-107212980D01*
X185532628Y-107212993D01*
X185504300Y-107391853D01*
X182805300Y-107391853D01*
X182799793Y-107357087D01*
X182779589Y-107229520D01*
X182776971Y-107212991D01*
X182776969Y-107212986D01*
X182776968Y-107212980D01*
X182721012Y-107040764D01*
X182721011Y-107040763D01*
X182721011Y-107040761D01*
X182638796Y-106879406D01*
X182532353Y-106732899D01*
X182404301Y-106604847D01*
X182291933Y-106523207D01*
X182257796Y-106498405D01*
X182177567Y-106457526D01*
X182096439Y-106416189D01*
X182096438Y-106416188D01*
X182096435Y-106416187D01*
X182096436Y-106416187D01*
X181924219Y-106360231D01*
X181924206Y-106360228D01*
X181745347Y-106331900D01*
X181745346Y-106331900D01*
X181564254Y-106331900D01*
X181564253Y-106331900D01*
X181385393Y-106360228D01*
X181385380Y-106360231D01*
X181213164Y-106416187D01*
X181051804Y-106498405D01*
X181051803Y-106498405D01*
X180919620Y-106594442D01*
X180905299Y-106604847D01*
X180777247Y-106732899D01*
X180777244Y-106732902D01*
X180777244Y-106732903D01*
X180670805Y-106879403D01*
X180670805Y-106879404D01*
X180588587Y-107040764D01*
X180532631Y-107212980D01*
X180532628Y-107212993D01*
X180504300Y-107391853D01*
X165577500Y-107391853D01*
X165577500Y-107138130D01*
X166575500Y-107138130D01*
X167362900Y-107138130D01*
X170860900Y-107138130D01*
X172362900Y-107138130D01*
X173360900Y-107138130D01*
X174260352Y-107138130D01*
X176239648Y-107138130D01*
X177362900Y-107138130D01*
X178360900Y-107138130D01*
X179534045Y-107138130D01*
X179549980Y-107037525D01*
X179550490Y-107034667D01*
X179556996Y-107001953D01*
X179557619Y-106999117D01*
X179566767Y-106961002D01*
X179567501Y-106958188D01*
X179576569Y-106926031D01*
X179577413Y-106923248D01*
X179645495Y-106713711D01*
X179646447Y-106710964D01*
X179658013Y-106679615D01*
X179659074Y-106676906D01*
X179674078Y-106640690D01*
X179675242Y-106638029D01*
X179689208Y-106607738D01*
X179690475Y-106605126D01*
X179790476Y-106408865D01*
X179791844Y-106406306D01*
X179808146Y-106377194D01*
X179809616Y-106374686D01*
X179830096Y-106341264D01*
X179831662Y-106338816D01*
X179850217Y-106311045D01*
X179851879Y-106308661D01*
X179862900Y-106293491D01*
X179862900Y-106175397D01*
X183360900Y-106175397D01*
X183457720Y-106308660D01*
X183459383Y-106311045D01*
X183477938Y-106338816D01*
X183479504Y-106341264D01*
X183499984Y-106374686D01*
X183501454Y-106377194D01*
X183517756Y-106406306D01*
X183519124Y-106408865D01*
X183619125Y-106605126D01*
X183620392Y-106607738D01*
X183634358Y-106638029D01*
X183635522Y-106640690D01*
X183650526Y-106676906D01*
X183651587Y-106679615D01*
X183663153Y-106710964D01*
X183664105Y-106713711D01*
X183732187Y-106923248D01*
X183733031Y-106926031D01*
X183742099Y-106958188D01*
X183742833Y-106961002D01*
X183751981Y-106999117D01*
X183752604Y-107001953D01*
X183759110Y-107034667D01*
X183759620Y-107037525D01*
X183775555Y-107138130D01*
X184534045Y-107138130D01*
X184549980Y-107037525D01*
X184550490Y-107034667D01*
X184556996Y-107001953D01*
X184557619Y-106999117D01*
X184566767Y-106961002D01*
X184567501Y-106958188D01*
X184576569Y-106926031D01*
X184577413Y-106923248D01*
X184645495Y-106713711D01*
X184646447Y-106710964D01*
X184658013Y-106679615D01*
X184659074Y-106676906D01*
X184674078Y-106640690D01*
X184675242Y-106638029D01*
X184689208Y-106607738D01*
X184690475Y-106605126D01*
X184790476Y-106408865D01*
X184791844Y-106406306D01*
X184808146Y-106377194D01*
X184809616Y-106374686D01*
X184830096Y-106341264D01*
X184831662Y-106338816D01*
X184850217Y-106311045D01*
X184851879Y-106308661D01*
X184862900Y-106293491D01*
X184862900Y-106175397D01*
X188360900Y-106175397D01*
X188457720Y-106308660D01*
X188459383Y-106311045D01*
X188477938Y-106338816D01*
X188479504Y-106341264D01*
X188499984Y-106374686D01*
X188501454Y-106377194D01*
X188517756Y-106406306D01*
X188519124Y-106408865D01*
X188619125Y-106605126D01*
X188620392Y-106607738D01*
X188634358Y-106638029D01*
X188635522Y-106640690D01*
X188650526Y-106676906D01*
X188651587Y-106679615D01*
X188663153Y-106710964D01*
X188664105Y-106713711D01*
X188732187Y-106923248D01*
X188733031Y-106926031D01*
X188742099Y-106958188D01*
X188742833Y-106961002D01*
X188751981Y-106999117D01*
X188752604Y-107001953D01*
X188759110Y-107034667D01*
X188759620Y-107037525D01*
X188775555Y-107138130D01*
X189613900Y-107138130D01*
X189613900Y-105636130D01*
X188360900Y-105636130D01*
X188360900Y-106175397D01*
X184862900Y-106175397D01*
X184862900Y-105636130D01*
X183360900Y-105636130D01*
X183360900Y-106175397D01*
X179862900Y-106175397D01*
X179862900Y-105636130D01*
X178360900Y-105636130D01*
X178360900Y-107138130D01*
X177362900Y-107138130D01*
X177362900Y-105636130D01*
X176554613Y-105636130D01*
X176557757Y-105643722D01*
X176559461Y-105648251D01*
X176577341Y-105700926D01*
X176578746Y-105705559D01*
X176622952Y-105870537D01*
X176624052Y-105875254D01*
X176634911Y-105929848D01*
X176635700Y-105934628D01*
X176644228Y-105999423D01*
X176644703Y-106004239D01*
X176648342Y-106059762D01*
X176648500Y-106064602D01*
X176648500Y-106235398D01*
X176648342Y-106240238D01*
X176644703Y-106295761D01*
X176644228Y-106300577D01*
X176635700Y-106365372D01*
X176634911Y-106370152D01*
X176624052Y-106424746D01*
X176622952Y-106429463D01*
X176578746Y-106594441D01*
X176577341Y-106599074D01*
X176559461Y-106651749D01*
X176557757Y-106656278D01*
X176532751Y-106716658D01*
X176530751Y-106721071D01*
X176506127Y-106771007D01*
X176503844Y-106775279D01*
X176418438Y-106923207D01*
X176415881Y-106927318D01*
X176384970Y-106973581D01*
X176382150Y-106977517D01*
X176342368Y-107029365D01*
X176339295Y-107033109D01*
X176302593Y-107074960D01*
X176299283Y-107078495D01*
X176239648Y-107138130D01*
X174260352Y-107138130D01*
X174200717Y-107078495D01*
X174197407Y-107074960D01*
X174160705Y-107033109D01*
X174157632Y-107029365D01*
X174117850Y-106977517D01*
X174115030Y-106973581D01*
X174084119Y-106927318D01*
X174081562Y-106923207D01*
X173996156Y-106775279D01*
X173993873Y-106771007D01*
X173969249Y-106721071D01*
X173967249Y-106716658D01*
X173942243Y-106656278D01*
X173940539Y-106651749D01*
X173922659Y-106599074D01*
X173921254Y-106594442D01*
X173918493Y-106584140D01*
X173797260Y-106462907D01*
X173792383Y-106457526D01*
X173739396Y-106392960D01*
X173735069Y-106387126D01*
X173680573Y-106305563D01*
X173676840Y-106299335D01*
X173637475Y-106225686D01*
X173634371Y-106219122D01*
X173558699Y-106036434D01*
X173556252Y-106029596D01*
X173532011Y-105949682D01*
X173530247Y-105942639D01*
X173511109Y-105846432D01*
X173510043Y-105839248D01*
X173501856Y-105756130D01*
X173501500Y-105748876D01*
X173501500Y-105636130D01*
X173360900Y-105636130D01*
X173360900Y-107138130D01*
X172362900Y-107138130D01*
X172362900Y-105636130D01*
X170860900Y-105636130D01*
X170860900Y-107138130D01*
X167362900Y-107138130D01*
X167362900Y-105636130D01*
X166575500Y-105636130D01*
X166575500Y-107138130D01*
X165577500Y-107138130D01*
X165577500Y-102276927D01*
X165577501Y-102276918D01*
X165577501Y-102168651D01*
X165568277Y-102146383D01*
X165539364Y-102076582D01*
X165088212Y-101625431D01*
X165066539Y-101573106D01*
X165088213Y-101520780D01*
X165092752Y-101516241D01*
X165120480Y-101488513D01*
X165173207Y-101397187D01*
X165200499Y-101295329D01*
X165200500Y-101295329D01*
X165200500Y-101189871D01*
X165200499Y-101189870D01*
X165199732Y-101187009D01*
X165185922Y-101135466D01*
X165193314Y-101079313D01*
X165238247Y-101044835D01*
X165294400Y-101052227D01*
X165309726Y-101063987D01*
X168427826Y-104182087D01*
X168449500Y-104234413D01*
X168449500Y-106149829D01*
X168487634Y-106241894D01*
X168487637Y-106241898D01*
X168577824Y-106332085D01*
X168599498Y-106384411D01*
X168599498Y-106477729D01*
X168626789Y-106579582D01*
X168626793Y-106579591D01*
X168641373Y-106604844D01*
X168679518Y-106670913D01*
X168754085Y-106745480D01*
X168845411Y-106798207D01*
X168947268Y-106825499D01*
X168947269Y-106825500D01*
X168947271Y-106825500D01*
X169052727Y-106825500D01*
X169052727Y-106825499D01*
X169154585Y-106798207D01*
X169245911Y-106745480D01*
X169320478Y-106670913D01*
X169373205Y-106579587D01*
X169400497Y-106477729D01*
X169400498Y-106477729D01*
X169400498Y-106372271D01*
X169400497Y-106372270D01*
X169399929Y-106370152D01*
X169373205Y-106270413D01*
X169320478Y-106179087D01*
X169245911Y-106104520D01*
X169162371Y-106056288D01*
X169154589Y-106051795D01*
X169154580Y-106051791D01*
X169052727Y-106024500D01*
X169052725Y-106024500D01*
X169024500Y-106024500D01*
X168972174Y-106002826D01*
X168950500Y-105950500D01*
X168950500Y-104638130D01*
X171046909Y-104638130D01*
X172362900Y-104638130D01*
X172362900Y-103136130D01*
X172246793Y-103136130D01*
X172248342Y-103159762D01*
X172248500Y-103164602D01*
X172248500Y-103335398D01*
X172248342Y-103340238D01*
X172244703Y-103395761D01*
X172244228Y-103400577D01*
X172235700Y-103465372D01*
X172234911Y-103470152D01*
X172224052Y-103524746D01*
X172222952Y-103529463D01*
X172178746Y-103694441D01*
X172177341Y-103699074D01*
X172159461Y-103751749D01*
X172157757Y-103756278D01*
X172132751Y-103816658D01*
X172130751Y-103821071D01*
X172106127Y-103871007D01*
X172103844Y-103875279D01*
X172018438Y-104023207D01*
X172015881Y-104027318D01*
X171984970Y-104073581D01*
X171982150Y-104077517D01*
X171942368Y-104129365D01*
X171939295Y-104133109D01*
X171902593Y-104174960D01*
X171899283Y-104178495D01*
X171778495Y-104299283D01*
X171774960Y-104302593D01*
X171733109Y-104339295D01*
X171729365Y-104342368D01*
X171677517Y-104382150D01*
X171673581Y-104384970D01*
X171627318Y-104415881D01*
X171623207Y-104418438D01*
X171475279Y-104503844D01*
X171471007Y-104506127D01*
X171421071Y-104530751D01*
X171416658Y-104532751D01*
X171356278Y-104557757D01*
X171351749Y-104559461D01*
X171299074Y-104577341D01*
X171294441Y-104578746D01*
X171129463Y-104622952D01*
X171124746Y-104624052D01*
X171070152Y-104634911D01*
X171065372Y-104635700D01*
X171046909Y-104638130D01*
X168950500Y-104638130D01*
X168950500Y-104050172D01*
X168950499Y-104050170D01*
X168948150Y-104044500D01*
X168931411Y-104004086D01*
X168912365Y-103958105D01*
X168912363Y-103958102D01*
X168151531Y-103197270D01*
X169299500Y-103197270D01*
X169299500Y-103302729D01*
X169326791Y-103404582D01*
X169326795Y-103404591D01*
X169357739Y-103458188D01*
X169379520Y-103495913D01*
X169454087Y-103570480D01*
X169545413Y-103623207D01*
X169647270Y-103650499D01*
X169647271Y-103650500D01*
X169647273Y-103650500D01*
X169752729Y-103650500D01*
X169752729Y-103650499D01*
X169854587Y-103623207D01*
X169945913Y-103570480D01*
X169994219Y-103522174D01*
X170046545Y-103500500D01*
X170503455Y-103500500D01*
X170555781Y-103522174D01*
X170604087Y-103570480D01*
X170695413Y-103623207D01*
X170797270Y-103650499D01*
X170797271Y-103650500D01*
X170797273Y-103650500D01*
X170902729Y-103650500D01*
X170902729Y-103650499D01*
X171004587Y-103623207D01*
X171095913Y-103570480D01*
X171170480Y-103495913D01*
X171223207Y-103404587D01*
X171250499Y-103302729D01*
X171250500Y-103302729D01*
X171250500Y-103197271D01*
X171250499Y-103197270D01*
X171245768Y-103179615D01*
X171223207Y-103095413D01*
X171170480Y-103004087D01*
X171095913Y-102929520D01*
X171044842Y-102900034D01*
X171004591Y-102876795D01*
X171004582Y-102876791D01*
X170902729Y-102849500D01*
X170902727Y-102849500D01*
X170797273Y-102849500D01*
X170797271Y-102849500D01*
X170695417Y-102876791D01*
X170695408Y-102876795D01*
X170604086Y-102929520D01*
X170555781Y-102977826D01*
X170503455Y-102999500D01*
X170046545Y-102999500D01*
X169994219Y-102977826D01*
X169945913Y-102929520D01*
X169854591Y-102876795D01*
X169854582Y-102876791D01*
X169752729Y-102849500D01*
X169752727Y-102849500D01*
X169647273Y-102849500D01*
X169647271Y-102849500D01*
X169545417Y-102876791D01*
X169545408Y-102876795D01*
X169454086Y-102929520D01*
X169379520Y-103004086D01*
X169326795Y-103095408D01*
X169326791Y-103095417D01*
X169299500Y-103197270D01*
X168151531Y-103197270D01*
X167092391Y-102138130D01*
X168634212Y-102138130D01*
X168846051Y-102138130D01*
X168872483Y-102117849D01*
X168876419Y-102115030D01*
X168922682Y-102084119D01*
X168926793Y-102081562D01*
X169074721Y-101996156D01*
X169078993Y-101993873D01*
X169128929Y-101969249D01*
X169133342Y-101967249D01*
X169193722Y-101942243D01*
X169198251Y-101940539D01*
X169250926Y-101922659D01*
X169255559Y-101921254D01*
X169420537Y-101877048D01*
X169425254Y-101875948D01*
X169479848Y-101865089D01*
X169484628Y-101864300D01*
X169549423Y-101855772D01*
X169554239Y-101855297D01*
X169609762Y-101851658D01*
X169614602Y-101851500D01*
X169785398Y-101851500D01*
X169790238Y-101851658D01*
X169845761Y-101855297D01*
X169850577Y-101855772D01*
X169862900Y-101857393D01*
X169862900Y-101851500D01*
X170860900Y-101851500D01*
X170935398Y-101851500D01*
X170940238Y-101851658D01*
X170995761Y-101855297D01*
X171000577Y-101855772D01*
X171065372Y-101864300D01*
X171070152Y-101865089D01*
X171124746Y-101875948D01*
X171129463Y-101877048D01*
X171294441Y-101921254D01*
X171299074Y-101922659D01*
X171351749Y-101940539D01*
X171356278Y-101942243D01*
X171416658Y-101967249D01*
X171421071Y-101969249D01*
X171471007Y-101993873D01*
X171475279Y-101996156D01*
X171623207Y-102081562D01*
X171627318Y-102084119D01*
X171673581Y-102115030D01*
X171677517Y-102117849D01*
X171703949Y-102138130D01*
X172362900Y-102138130D01*
X172362900Y-100636130D01*
X170860900Y-100636130D01*
X170860900Y-101851500D01*
X169862900Y-101851500D01*
X169862900Y-101191073D01*
X169732752Y-101244983D01*
X169725914Y-101247430D01*
X169646000Y-101271671D01*
X169638957Y-101273435D01*
X169542750Y-101292573D01*
X169535566Y-101293639D01*
X169452448Y-101301826D01*
X169445194Y-101302182D01*
X168724435Y-101302182D01*
X168734911Y-101354848D01*
X168735700Y-101359628D01*
X168744228Y-101424423D01*
X168744703Y-101429239D01*
X168748342Y-101484762D01*
X168748500Y-101489602D01*
X168748500Y-101660398D01*
X168748342Y-101665238D01*
X168744703Y-101720761D01*
X168744228Y-101725577D01*
X168735700Y-101790372D01*
X168734911Y-101795152D01*
X168724052Y-101849746D01*
X168722952Y-101854463D01*
X168678746Y-102019441D01*
X168677341Y-102024074D01*
X168659461Y-102076749D01*
X168657757Y-102081278D01*
X168634212Y-102138130D01*
X167092391Y-102138130D01*
X166875208Y-101920947D01*
X166853534Y-101868621D01*
X166875208Y-101816295D01*
X166927534Y-101794621D01*
X166972853Y-101794621D01*
X167025179Y-101816295D01*
X167027148Y-101818540D01*
X167029518Y-101820910D01*
X167029520Y-101820913D01*
X167104087Y-101895480D01*
X167195413Y-101948207D01*
X167297270Y-101975499D01*
X167297271Y-101975500D01*
X167297273Y-101975500D01*
X167402729Y-101975500D01*
X167402729Y-101975499D01*
X167504587Y-101948207D01*
X167595913Y-101895480D01*
X167670480Y-101820913D01*
X167723207Y-101729587D01*
X167750499Y-101627729D01*
X167750500Y-101627729D01*
X167750500Y-101522271D01*
X167750499Y-101522270D01*
X167723208Y-101420417D01*
X167723207Y-101420413D01*
X167670480Y-101329087D01*
X167595913Y-101254520D01*
X167547892Y-101226795D01*
X167504591Y-101201795D01*
X167504582Y-101201791D01*
X167402729Y-101174500D01*
X167402727Y-101174500D01*
X167297273Y-101174500D01*
X167297271Y-101174500D01*
X167195417Y-101201791D01*
X167195408Y-101201795D01*
X167104086Y-101254520D01*
X167086660Y-101271947D01*
X167034334Y-101293621D01*
X166773523Y-101293621D01*
X166721197Y-101271947D01*
X166004142Y-100554892D01*
X165982468Y-100502566D01*
X166004142Y-100450240D01*
X166037314Y-100431088D01*
X166052987Y-100426889D01*
X166144313Y-100374162D01*
X166192619Y-100325856D01*
X166244945Y-100304182D01*
X169396145Y-100304182D01*
X169396146Y-100304182D01*
X169488215Y-100266046D01*
X169756991Y-99997270D01*
X174349500Y-99997270D01*
X174349500Y-100102729D01*
X174376791Y-100204582D01*
X174376795Y-100204591D01*
X174429520Y-100295913D01*
X174477826Y-100344219D01*
X174499500Y-100396545D01*
X174499500Y-105699829D01*
X174537634Y-105791894D01*
X174537636Y-105791897D01*
X174689485Y-105943746D01*
X174827826Y-106082086D01*
X174849500Y-106134412D01*
X174849500Y-106202729D01*
X174876791Y-106304582D01*
X174876795Y-106304591D01*
X174896555Y-106338816D01*
X174929520Y-106395913D01*
X175004087Y-106470480D01*
X175095413Y-106523207D01*
X175197270Y-106550499D01*
X175197271Y-106550500D01*
X175197273Y-106550500D01*
X175302729Y-106550500D01*
X175302729Y-106550499D01*
X175404587Y-106523207D01*
X175495913Y-106470480D01*
X175570480Y-106395913D01*
X175623207Y-106304587D01*
X175650499Y-106202729D01*
X175650500Y-106202729D01*
X175650500Y-106097271D01*
X175650499Y-106097270D01*
X175648255Y-106088897D01*
X175623207Y-105995413D01*
X175570480Y-105904087D01*
X175495913Y-105829520D01*
X175452716Y-105804580D01*
X175404591Y-105776795D01*
X175404582Y-105776791D01*
X175302729Y-105749500D01*
X175302727Y-105749500D01*
X175234412Y-105749500D01*
X175182086Y-105727826D01*
X175022174Y-105567913D01*
X175000500Y-105515587D01*
X175000500Y-104638130D01*
X175998500Y-104638130D01*
X177362900Y-104638130D01*
X178360900Y-104638130D01*
X179608793Y-104638130D01*
X179577413Y-104541552D01*
X179576569Y-104538769D01*
X179567501Y-104506612D01*
X179566767Y-104503798D01*
X179557619Y-104465683D01*
X179556996Y-104462847D01*
X179550490Y-104430133D01*
X179549980Y-104427275D01*
X179515519Y-104209701D01*
X179515121Y-104206821D01*
X179511196Y-104173651D01*
X179510911Y-104170758D01*
X179507837Y-104131680D01*
X179507666Y-104128780D01*
X179506357Y-104095439D01*
X179506300Y-104092536D01*
X179506300Y-103891853D01*
X180504300Y-103891853D01*
X180504300Y-104072946D01*
X180532628Y-104251806D01*
X180532631Y-104251819D01*
X180588587Y-104424035D01*
X180588588Y-104424038D01*
X180588589Y-104424039D01*
X180666061Y-104576086D01*
X180670805Y-104585395D01*
X180670805Y-104585396D01*
X180703251Y-104630054D01*
X180777247Y-104731901D01*
X180905299Y-104859953D01*
X180953060Y-104894653D01*
X181043002Y-104960000D01*
X181051806Y-104966396D01*
X181213161Y-105048611D01*
X181213164Y-105048612D01*
X181213163Y-105048612D01*
X181385380Y-105104568D01*
X181385386Y-105104569D01*
X181385391Y-105104571D01*
X181504633Y-105123457D01*
X181564253Y-105132900D01*
X181564254Y-105132900D01*
X181745347Y-105132900D01*
X181795231Y-105124999D01*
X181924209Y-105104571D01*
X181924216Y-105104568D01*
X181924219Y-105104568D01*
X182002401Y-105079165D01*
X182096439Y-105048611D01*
X182257794Y-104966396D01*
X182404301Y-104859953D01*
X182532353Y-104731901D01*
X182638796Y-104585394D01*
X182721011Y-104424039D01*
X182776971Y-104251809D01*
X182805300Y-104072946D01*
X182805300Y-103891854D01*
X182801737Y-103869361D01*
X182783640Y-103755099D01*
X182776971Y-103712991D01*
X182776969Y-103712986D01*
X182776968Y-103712980D01*
X182721012Y-103540764D01*
X182721011Y-103540763D01*
X182721011Y-103540761D01*
X182638796Y-103379406D01*
X182637793Y-103378026D01*
X182583087Y-103302729D01*
X182532353Y-103232899D01*
X182435584Y-103136130D01*
X183633482Y-103136130D01*
X183634358Y-103138029D01*
X183635522Y-103140690D01*
X183650526Y-103176906D01*
X183651587Y-103179615D01*
X183663153Y-103210964D01*
X183664105Y-103213711D01*
X183732187Y-103423248D01*
X183733031Y-103426031D01*
X183742099Y-103458188D01*
X183742833Y-103461002D01*
X183751981Y-103499117D01*
X183752604Y-103501953D01*
X183759110Y-103534667D01*
X183759620Y-103537525D01*
X183794081Y-103755099D01*
X183794479Y-103757979D01*
X183798404Y-103791149D01*
X183798689Y-103794042D01*
X183801763Y-103833120D01*
X183801934Y-103836020D01*
X183803243Y-103869361D01*
X183803300Y-103872264D01*
X183803300Y-104092536D01*
X183803243Y-104095439D01*
X183801934Y-104128780D01*
X183801763Y-104131680D01*
X183798689Y-104170758D01*
X183798404Y-104173651D01*
X183794479Y-104206821D01*
X183794081Y-104209701D01*
X183759620Y-104427275D01*
X183759110Y-104430133D01*
X183752604Y-104462847D01*
X183751981Y-104465683D01*
X183742833Y-104503798D01*
X183742099Y-104506612D01*
X183733031Y-104538769D01*
X183732187Y-104541552D01*
X183700807Y-104638130D01*
X184608793Y-104638130D01*
X184577413Y-104541552D01*
X184576569Y-104538769D01*
X184567501Y-104506612D01*
X184566767Y-104503798D01*
X184557619Y-104465683D01*
X184556996Y-104462847D01*
X184550490Y-104430133D01*
X184549980Y-104427275D01*
X184515519Y-104209701D01*
X184515121Y-104206821D01*
X184511196Y-104173651D01*
X184510911Y-104170758D01*
X184507837Y-104131680D01*
X184507666Y-104128780D01*
X184506357Y-104095439D01*
X184506300Y-104092536D01*
X184506300Y-103891853D01*
X185504300Y-103891853D01*
X185504300Y-104072946D01*
X185532628Y-104251806D01*
X185532631Y-104251819D01*
X185588587Y-104424035D01*
X185588588Y-104424038D01*
X185588589Y-104424039D01*
X185666061Y-104576086D01*
X185670805Y-104585395D01*
X185670805Y-104585396D01*
X185703251Y-104630054D01*
X185777247Y-104731901D01*
X185905299Y-104859953D01*
X185953060Y-104894653D01*
X186043002Y-104960000D01*
X186051806Y-104966396D01*
X186213161Y-105048611D01*
X186213164Y-105048612D01*
X186213163Y-105048612D01*
X186385380Y-105104568D01*
X186385386Y-105104569D01*
X186385391Y-105104571D01*
X186504633Y-105123457D01*
X186564253Y-105132900D01*
X186564254Y-105132900D01*
X186745347Y-105132900D01*
X186795231Y-105124999D01*
X186924209Y-105104571D01*
X186924216Y-105104568D01*
X186924219Y-105104568D01*
X187002401Y-105079165D01*
X187096439Y-105048611D01*
X187257794Y-104966396D01*
X187404301Y-104859953D01*
X187532353Y-104731901D01*
X187638796Y-104585394D01*
X187721011Y-104424039D01*
X187776971Y-104251809D01*
X187805300Y-104072946D01*
X187805300Y-103891854D01*
X187801737Y-103869361D01*
X187783640Y-103755099D01*
X187776971Y-103712991D01*
X187776969Y-103712986D01*
X187776968Y-103712980D01*
X187721012Y-103540764D01*
X187721011Y-103540763D01*
X187721011Y-103540761D01*
X187638796Y-103379406D01*
X187637793Y-103378026D01*
X187583087Y-103302729D01*
X187532353Y-103232899D01*
X187435584Y-103136130D01*
X188633482Y-103136130D01*
X188634358Y-103138029D01*
X188635522Y-103140690D01*
X188650526Y-103176906D01*
X188651587Y-103179615D01*
X188663153Y-103210964D01*
X188664105Y-103213711D01*
X188732187Y-103423248D01*
X188733031Y-103426031D01*
X188742099Y-103458188D01*
X188742833Y-103461002D01*
X188751981Y-103499117D01*
X188752604Y-103501953D01*
X188759110Y-103534667D01*
X188759620Y-103537525D01*
X188794081Y-103755099D01*
X188794479Y-103757979D01*
X188798404Y-103791149D01*
X188798689Y-103794042D01*
X188801763Y-103833120D01*
X188801934Y-103836020D01*
X188803243Y-103869361D01*
X188803300Y-103872264D01*
X188803300Y-104092536D01*
X188803243Y-104095439D01*
X188801934Y-104128780D01*
X188801763Y-104131680D01*
X188798689Y-104170758D01*
X188798404Y-104173651D01*
X188794479Y-104206821D01*
X188794081Y-104209701D01*
X188759620Y-104427275D01*
X188759110Y-104430133D01*
X188752604Y-104462847D01*
X188751981Y-104465683D01*
X188742833Y-104503798D01*
X188742099Y-104506612D01*
X188733031Y-104538769D01*
X188732187Y-104541552D01*
X188700807Y-104638130D01*
X189613900Y-104638130D01*
X189613900Y-103136130D01*
X188633482Y-103136130D01*
X187435584Y-103136130D01*
X187404301Y-103104847D01*
X187318928Y-103042820D01*
X187257796Y-102998405D01*
X187096435Y-102916187D01*
X187096436Y-102916187D01*
X186924219Y-102860231D01*
X186924206Y-102860228D01*
X186745347Y-102831900D01*
X186745346Y-102831900D01*
X186564254Y-102831900D01*
X186564253Y-102831900D01*
X186385393Y-102860228D01*
X186385380Y-102860231D01*
X186213164Y-102916187D01*
X186051804Y-102998405D01*
X186051803Y-102998405D01*
X185918284Y-103095413D01*
X185905299Y-103104847D01*
X185777247Y-103232899D01*
X185777244Y-103232902D01*
X185777244Y-103232903D01*
X185670805Y-103379403D01*
X185670805Y-103379404D01*
X185588587Y-103540764D01*
X185532631Y-103712980D01*
X185532628Y-103712993D01*
X185504300Y-103891853D01*
X184506300Y-103891853D01*
X184506300Y-103872264D01*
X184506357Y-103869361D01*
X184507666Y-103836020D01*
X184507837Y-103833120D01*
X184510911Y-103794042D01*
X184511196Y-103791149D01*
X184515121Y-103757979D01*
X184515519Y-103755099D01*
X184549980Y-103537525D01*
X184550490Y-103534667D01*
X184556996Y-103501953D01*
X184557619Y-103499117D01*
X184566767Y-103461002D01*
X184567501Y-103458188D01*
X184576569Y-103426031D01*
X184577413Y-103423248D01*
X184645495Y-103213711D01*
X184646447Y-103210964D01*
X184658013Y-103179615D01*
X184659074Y-103176906D01*
X184674078Y-103140690D01*
X184675242Y-103138029D01*
X184676118Y-103136130D01*
X183633482Y-103136130D01*
X182435584Y-103136130D01*
X182404301Y-103104847D01*
X182318928Y-103042820D01*
X182257796Y-102998405D01*
X182096435Y-102916187D01*
X182096436Y-102916187D01*
X181924219Y-102860231D01*
X181924206Y-102860228D01*
X181745347Y-102831900D01*
X181745346Y-102831900D01*
X181564254Y-102831900D01*
X181564253Y-102831900D01*
X181385393Y-102860228D01*
X181385380Y-102860231D01*
X181213164Y-102916187D01*
X181051804Y-102998405D01*
X181051803Y-102998405D01*
X180918284Y-103095413D01*
X180905299Y-103104847D01*
X180777247Y-103232899D01*
X180777244Y-103232902D01*
X180777244Y-103232903D01*
X180670805Y-103379403D01*
X180670805Y-103379404D01*
X180588587Y-103540764D01*
X180532631Y-103712980D01*
X180532628Y-103712993D01*
X180504300Y-103891853D01*
X179506300Y-103891853D01*
X179506300Y-103872264D01*
X179506357Y-103869361D01*
X179507666Y-103836020D01*
X179507837Y-103833120D01*
X179510911Y-103794042D01*
X179511196Y-103791149D01*
X179515121Y-103757979D01*
X179515519Y-103755099D01*
X179549980Y-103537525D01*
X179550490Y-103534667D01*
X179556996Y-103501953D01*
X179557619Y-103499117D01*
X179566767Y-103461002D01*
X179567501Y-103458188D01*
X179576569Y-103426031D01*
X179577413Y-103423248D01*
X179645495Y-103213711D01*
X179646447Y-103210964D01*
X179658013Y-103179615D01*
X179659074Y-103176906D01*
X179674078Y-103140690D01*
X179675242Y-103138029D01*
X179676118Y-103136130D01*
X178360900Y-103136130D01*
X178360900Y-104638130D01*
X177362900Y-104638130D01*
X177362900Y-103136130D01*
X175998500Y-103136130D01*
X175998500Y-104638130D01*
X175000500Y-104638130D01*
X175000500Y-100684534D01*
X175998500Y-100684534D01*
X175998500Y-102138130D01*
X177362900Y-102138130D01*
X178360900Y-102138130D01*
X179862900Y-102138130D01*
X179862900Y-101958676D01*
X183360900Y-101958676D01*
X183360900Y-102138130D01*
X184862900Y-102138130D01*
X184862900Y-101958676D01*
X188360900Y-101958676D01*
X188360900Y-102138130D01*
X189613900Y-102138130D01*
X189613900Y-100636130D01*
X188901453Y-100636130D01*
X188901434Y-100636611D01*
X188901263Y-100639511D01*
X188898189Y-100678589D01*
X188897904Y-100681482D01*
X188893979Y-100714652D01*
X188893581Y-100717532D01*
X188856670Y-100950575D01*
X188856160Y-100953433D01*
X188849654Y-100986147D01*
X188849032Y-100988983D01*
X188839884Y-101027099D01*
X188839149Y-101029913D01*
X188830080Y-101062073D01*
X188829236Y-101064856D01*
X188756319Y-101289269D01*
X188755368Y-101292013D01*
X188743818Y-101323323D01*
X188742759Y-101326029D01*
X188727760Y-101362242D01*
X188726595Y-101364905D01*
X188712615Y-101395231D01*
X188711347Y-101397846D01*
X188604214Y-101608107D01*
X188602842Y-101610673D01*
X188586506Y-101639840D01*
X188585034Y-101642351D01*
X188564547Y-101675774D01*
X188562982Y-101678218D01*
X188544457Y-101705939D01*
X188542798Y-101708320D01*
X188360900Y-101958676D01*
X184862900Y-101958676D01*
X184862900Y-101840585D01*
X184766800Y-101708318D01*
X184765140Y-101705936D01*
X184746616Y-101678216D01*
X184745052Y-101675773D01*
X184724566Y-101642351D01*
X184723094Y-101639840D01*
X184706758Y-101610673D01*
X184705386Y-101608107D01*
X184598253Y-101397846D01*
X184596985Y-101395231D01*
X184583005Y-101364905D01*
X184581840Y-101362242D01*
X184566841Y-101326029D01*
X184565782Y-101323323D01*
X184554232Y-101292013D01*
X184553281Y-101289269D01*
X184480364Y-101064856D01*
X184479520Y-101062073D01*
X184470451Y-101029913D01*
X184469716Y-101027099D01*
X184460568Y-100988983D01*
X184459946Y-100986147D01*
X184453440Y-100953433D01*
X184452930Y-100950575D01*
X184416019Y-100717532D01*
X184415621Y-100714652D01*
X184411696Y-100681482D01*
X184411411Y-100678589D01*
X184408337Y-100639511D01*
X184408166Y-100636611D01*
X184408147Y-100636130D01*
X183901453Y-100636130D01*
X183901434Y-100636611D01*
X183901263Y-100639511D01*
X183898189Y-100678589D01*
X183897904Y-100681482D01*
X183893979Y-100714652D01*
X183893581Y-100717532D01*
X183856670Y-100950575D01*
X183856160Y-100953433D01*
X183849654Y-100986147D01*
X183849032Y-100988983D01*
X183839884Y-101027099D01*
X183839149Y-101029913D01*
X183830080Y-101062073D01*
X183829236Y-101064856D01*
X183756319Y-101289269D01*
X183755368Y-101292013D01*
X183743818Y-101323323D01*
X183742759Y-101326029D01*
X183727760Y-101362242D01*
X183726595Y-101364905D01*
X183712615Y-101395231D01*
X183711347Y-101397846D01*
X183604214Y-101608107D01*
X183602842Y-101610673D01*
X183586506Y-101639840D01*
X183585034Y-101642351D01*
X183564547Y-101675774D01*
X183562982Y-101678218D01*
X183544457Y-101705939D01*
X183542798Y-101708320D01*
X183360900Y-101958676D01*
X179862900Y-101958676D01*
X179862900Y-101840585D01*
X179766800Y-101708318D01*
X179765140Y-101705936D01*
X179746616Y-101678216D01*
X179745052Y-101675773D01*
X179724566Y-101642351D01*
X179723094Y-101639840D01*
X179706758Y-101610673D01*
X179705386Y-101608107D01*
X179598253Y-101397846D01*
X179596985Y-101395231D01*
X179583005Y-101364905D01*
X179581840Y-101362242D01*
X179566841Y-101326029D01*
X179565782Y-101323323D01*
X179554232Y-101292013D01*
X179553281Y-101289269D01*
X179480364Y-101064856D01*
X179479520Y-101062073D01*
X179470451Y-101029913D01*
X179469716Y-101027099D01*
X179460568Y-100988983D01*
X179459946Y-100986147D01*
X179453440Y-100953433D01*
X179452930Y-100950575D01*
X179416019Y-100717532D01*
X179415621Y-100714652D01*
X179411696Y-100681482D01*
X179411411Y-100678589D01*
X179408337Y-100639511D01*
X179408166Y-100636611D01*
X179408147Y-100636130D01*
X178360900Y-100636130D01*
X178360900Y-102138130D01*
X177362900Y-102138130D01*
X177362900Y-100636130D01*
X176023325Y-100636130D01*
X176006127Y-100671007D01*
X176003843Y-100675280D01*
X175998500Y-100684534D01*
X175000500Y-100684534D01*
X175000500Y-100396545D01*
X175005687Y-100384022D01*
X180404800Y-100384022D01*
X180404800Y-100580777D01*
X180435578Y-100775106D01*
X180435581Y-100775119D01*
X180496377Y-100962228D01*
X180496379Y-100962233D01*
X180585703Y-101137542D01*
X180685509Y-101274912D01*
X181150864Y-100809557D01*
X181174681Y-100850808D01*
X181286392Y-100962519D01*
X181327641Y-100986334D01*
X180862286Y-101451689D01*
X180999657Y-101551496D01*
X181174966Y-101640820D01*
X181174971Y-101640822D01*
X181362080Y-101701618D01*
X181362093Y-101701621D01*
X181556422Y-101732400D01*
X181753178Y-101732400D01*
X181947506Y-101701621D01*
X181947519Y-101701618D01*
X182134628Y-101640822D01*
X182134633Y-101640820D01*
X182309939Y-101551497D01*
X182447312Y-101451689D01*
X181981958Y-100986334D01*
X182023208Y-100962519D01*
X182134919Y-100850808D01*
X182158734Y-100809557D01*
X182624089Y-101274912D01*
X182723897Y-101137539D01*
X182813220Y-100962233D01*
X182813222Y-100962228D01*
X182874018Y-100775119D01*
X182874021Y-100775106D01*
X182904800Y-100580777D01*
X182904800Y-100384022D01*
X185404800Y-100384022D01*
X185404800Y-100580777D01*
X185435578Y-100775106D01*
X185435581Y-100775119D01*
X185496377Y-100962228D01*
X185496379Y-100962233D01*
X185585703Y-101137542D01*
X185685509Y-101274912D01*
X186150864Y-100809557D01*
X186174681Y-100850808D01*
X186286392Y-100962519D01*
X186327641Y-100986334D01*
X185862286Y-101451689D01*
X185999657Y-101551496D01*
X186174966Y-101640820D01*
X186174971Y-101640822D01*
X186362080Y-101701618D01*
X186362093Y-101701621D01*
X186556422Y-101732400D01*
X186753178Y-101732400D01*
X186947506Y-101701621D01*
X186947519Y-101701618D01*
X187134628Y-101640822D01*
X187134633Y-101640820D01*
X187309939Y-101551497D01*
X187447312Y-101451689D01*
X186981958Y-100986334D01*
X187023208Y-100962519D01*
X187134919Y-100850808D01*
X187158734Y-100809557D01*
X187624089Y-101274912D01*
X187723897Y-101137539D01*
X187813220Y-100962233D01*
X187813222Y-100962228D01*
X187874018Y-100775119D01*
X187874021Y-100775106D01*
X187904800Y-100580777D01*
X187904800Y-100384022D01*
X187874021Y-100189693D01*
X187874018Y-100189680D01*
X187813222Y-100002571D01*
X187813220Y-100002566D01*
X187723896Y-99827257D01*
X187624089Y-99689886D01*
X187158734Y-100155240D01*
X187134919Y-100113992D01*
X187023208Y-100002281D01*
X186981957Y-99978464D01*
X187447312Y-99513109D01*
X187309942Y-99413303D01*
X187134633Y-99323979D01*
X187134628Y-99323977D01*
X186947519Y-99263181D01*
X186947506Y-99263178D01*
X186753178Y-99232400D01*
X186556422Y-99232400D01*
X186362093Y-99263178D01*
X186362080Y-99263181D01*
X186174971Y-99323977D01*
X186174966Y-99323979D01*
X185999657Y-99413303D01*
X185862286Y-99513109D01*
X186327641Y-99978465D01*
X186286392Y-100002281D01*
X186174681Y-100113992D01*
X186150865Y-100155241D01*
X185685509Y-99689886D01*
X185585703Y-99827257D01*
X185496379Y-100002566D01*
X185496377Y-100002571D01*
X185435581Y-100189680D01*
X185435578Y-100189693D01*
X185404800Y-100384022D01*
X182904800Y-100384022D01*
X182874021Y-100189693D01*
X182874018Y-100189680D01*
X182813222Y-100002571D01*
X182813220Y-100002566D01*
X182723896Y-99827257D01*
X182624089Y-99689886D01*
X182158734Y-100155240D01*
X182134919Y-100113992D01*
X182023208Y-100002281D01*
X181981957Y-99978464D01*
X182447312Y-99513109D01*
X182309942Y-99413303D01*
X182134633Y-99323979D01*
X182134628Y-99323977D01*
X181947519Y-99263181D01*
X181947506Y-99263178D01*
X181753178Y-99232400D01*
X181556422Y-99232400D01*
X181362093Y-99263178D01*
X181362080Y-99263181D01*
X181174971Y-99323977D01*
X181174966Y-99323979D01*
X180999657Y-99413303D01*
X180862286Y-99513109D01*
X181327641Y-99978465D01*
X181286392Y-100002281D01*
X181174681Y-100113992D01*
X181150865Y-100155241D01*
X180685509Y-99689886D01*
X180585703Y-99827257D01*
X180496379Y-100002566D01*
X180496377Y-100002571D01*
X180435581Y-100189680D01*
X180435578Y-100189693D01*
X180404800Y-100384022D01*
X175005687Y-100384022D01*
X175022174Y-100344219D01*
X175045894Y-100320499D01*
X175070480Y-100295913D01*
X175123207Y-100204587D01*
X175150499Y-100102729D01*
X175150500Y-100102729D01*
X175150500Y-99997271D01*
X175150499Y-99997270D01*
X175123208Y-99895417D01*
X175123207Y-99895413D01*
X175070480Y-99804087D01*
X174995913Y-99729520D01*
X174974720Y-99717284D01*
X174904591Y-99676795D01*
X174904582Y-99676791D01*
X174802729Y-99649500D01*
X174802727Y-99649500D01*
X174697273Y-99649500D01*
X174697271Y-99649500D01*
X174595417Y-99676791D01*
X174595408Y-99676795D01*
X174504086Y-99729520D01*
X174429520Y-99804086D01*
X174376795Y-99895408D01*
X174376791Y-99895417D01*
X174349500Y-99997270D01*
X169756991Y-99997270D01*
X170116131Y-99638130D01*
X173360900Y-99638130D01*
X173412526Y-99638130D01*
X173421254Y-99605559D01*
X173422659Y-99600926D01*
X173440539Y-99548251D01*
X173442243Y-99543722D01*
X173467249Y-99483342D01*
X173469249Y-99478929D01*
X173493873Y-99428993D01*
X173496156Y-99424721D01*
X173581562Y-99276793D01*
X173584119Y-99272682D01*
X173615030Y-99226419D01*
X173617850Y-99222483D01*
X173639101Y-99194787D01*
X175860900Y-99194787D01*
X175882150Y-99222483D01*
X175884970Y-99226419D01*
X175915881Y-99272682D01*
X175918438Y-99276793D01*
X176003844Y-99424721D01*
X176006127Y-99428993D01*
X176030751Y-99478929D01*
X176032751Y-99483342D01*
X176057757Y-99543722D01*
X176059461Y-99548251D01*
X176077341Y-99600926D01*
X176078746Y-99605559D01*
X176087474Y-99638130D01*
X177362900Y-99638130D01*
X178360900Y-99638130D01*
X179567106Y-99638130D01*
X179581840Y-99602558D01*
X179583005Y-99599895D01*
X179596985Y-99569569D01*
X179598253Y-99566954D01*
X179705386Y-99356693D01*
X179706758Y-99354127D01*
X179723094Y-99324960D01*
X179724566Y-99322449D01*
X179745052Y-99289027D01*
X179746616Y-99286584D01*
X179765139Y-99258865D01*
X179766799Y-99256484D01*
X179862900Y-99124212D01*
X179862900Y-98289401D01*
X183360900Y-98289401D01*
X183360900Y-99006122D01*
X183542799Y-99256482D01*
X183544458Y-99258862D01*
X183562983Y-99286583D01*
X183564548Y-99289027D01*
X183585034Y-99322449D01*
X183586506Y-99324960D01*
X183602842Y-99354127D01*
X183604214Y-99356693D01*
X183711347Y-99566954D01*
X183712615Y-99569569D01*
X183726595Y-99599895D01*
X183727760Y-99602558D01*
X183742494Y-99638130D01*
X184567106Y-99638130D01*
X184581840Y-99602558D01*
X184583005Y-99599895D01*
X184596985Y-99569569D01*
X184598253Y-99566954D01*
X184705386Y-99356693D01*
X184706758Y-99354127D01*
X184723094Y-99324960D01*
X184724566Y-99322449D01*
X184745052Y-99289027D01*
X184746616Y-99286584D01*
X184765139Y-99258865D01*
X184766799Y-99256484D01*
X184862900Y-99124212D01*
X184862900Y-98289401D01*
X188360900Y-98289401D01*
X188360900Y-99006122D01*
X188542799Y-99256482D01*
X188544458Y-99258862D01*
X188562983Y-99286583D01*
X188564548Y-99289027D01*
X188585034Y-99322449D01*
X188586506Y-99324960D01*
X188602842Y-99354127D01*
X188604214Y-99356693D01*
X188711347Y-99566954D01*
X188712615Y-99569569D01*
X188726595Y-99599895D01*
X188727760Y-99602558D01*
X188742494Y-99638130D01*
X189613900Y-99638130D01*
X189613900Y-98136130D01*
X188471159Y-98136130D01*
X188459383Y-98153755D01*
X188457720Y-98156140D01*
X188360900Y-98289401D01*
X184862900Y-98289401D01*
X184862900Y-98171307D01*
X184851880Y-98156140D01*
X184850217Y-98153755D01*
X184838441Y-98136130D01*
X183471159Y-98136130D01*
X183459383Y-98153755D01*
X183457720Y-98156140D01*
X183360900Y-98289401D01*
X179862900Y-98289401D01*
X179862900Y-98171307D01*
X179851880Y-98156140D01*
X179850217Y-98153755D01*
X179838441Y-98136130D01*
X178360900Y-98136130D01*
X178360900Y-99638130D01*
X177362900Y-99638130D01*
X177362900Y-98136130D01*
X175860900Y-98136130D01*
X175860900Y-99194787D01*
X173639101Y-99194787D01*
X173657632Y-99170635D01*
X173660705Y-99166891D01*
X173697407Y-99125040D01*
X173700717Y-99121505D01*
X173821505Y-99000717D01*
X173825040Y-98997407D01*
X173866891Y-98960705D01*
X173870635Y-98957632D01*
X173922483Y-98917850D01*
X173926419Y-98915030D01*
X173972682Y-98884119D01*
X173976793Y-98881562D01*
X174124721Y-98796156D01*
X174128993Y-98793873D01*
X174178929Y-98769249D01*
X174183342Y-98767249D01*
X174243722Y-98742243D01*
X174248251Y-98740539D01*
X174300926Y-98722659D01*
X174305559Y-98721254D01*
X174470537Y-98677048D01*
X174475254Y-98675948D01*
X174529848Y-98665089D01*
X174534628Y-98664300D01*
X174599423Y-98655772D01*
X174604239Y-98655297D01*
X174659762Y-98651658D01*
X174664602Y-98651500D01*
X174835398Y-98651500D01*
X174840238Y-98651658D01*
X174862900Y-98653143D01*
X174862900Y-98136130D01*
X173360900Y-98136130D01*
X173360900Y-99638130D01*
X170116131Y-99638130D01*
X170632087Y-99122174D01*
X170684413Y-99100500D01*
X171403455Y-99100500D01*
X171455781Y-99122174D01*
X171504087Y-99170480D01*
X171595413Y-99223207D01*
X171697270Y-99250499D01*
X171697271Y-99250500D01*
X171697273Y-99250500D01*
X171802729Y-99250500D01*
X171802729Y-99250499D01*
X171904587Y-99223207D01*
X171995913Y-99170480D01*
X172070480Y-99095913D01*
X172123207Y-99004587D01*
X172150499Y-98902729D01*
X172150500Y-98902729D01*
X172150500Y-98797271D01*
X172150499Y-98797270D01*
X172150002Y-98795417D01*
X172123207Y-98695413D01*
X172070480Y-98604087D01*
X171995913Y-98529520D01*
X171983941Y-98522608D01*
X171904591Y-98476795D01*
X171904582Y-98476791D01*
X171802729Y-98449500D01*
X171802727Y-98449500D01*
X171697273Y-98449500D01*
X171697271Y-98449500D01*
X171595417Y-98476791D01*
X171595408Y-98476795D01*
X171504086Y-98529520D01*
X171455781Y-98577826D01*
X171403455Y-98599500D01*
X170733412Y-98599500D01*
X170681086Y-98577826D01*
X170659412Y-98525500D01*
X170681086Y-98473174D01*
X171232086Y-97922174D01*
X171284412Y-97900500D01*
X171403455Y-97900500D01*
X171455781Y-97922174D01*
X171504087Y-97970480D01*
X171595413Y-98023207D01*
X171697270Y-98050499D01*
X171697271Y-98050500D01*
X171697273Y-98050500D01*
X171802729Y-98050500D01*
X171802729Y-98050499D01*
X171904587Y-98023207D01*
X171995913Y-97970480D01*
X172070480Y-97895913D01*
X172123207Y-97804587D01*
X172150499Y-97702729D01*
X172150500Y-97702729D01*
X172150500Y-97597271D01*
X172150499Y-97597270D01*
X172150002Y-97595417D01*
X172123207Y-97495413D01*
X172070480Y-97404087D01*
X171995913Y-97329520D01*
X171910142Y-97280000D01*
X171904591Y-97276795D01*
X171904582Y-97276791D01*
X171802729Y-97249500D01*
X171802727Y-97249500D01*
X171697273Y-97249500D01*
X171697271Y-97249500D01*
X171595417Y-97276791D01*
X171595408Y-97276795D01*
X171504086Y-97329520D01*
X171455781Y-97377826D01*
X171403455Y-97399500D01*
X171233411Y-97399500D01*
X171181085Y-97377826D01*
X171159411Y-97325500D01*
X171181085Y-97273174D01*
X171316130Y-97138130D01*
X173360900Y-97138130D01*
X174862900Y-97138130D01*
X175860900Y-97138130D01*
X177362900Y-97138130D01*
X178360900Y-97138130D01*
X179508344Y-97138130D01*
X179507837Y-97131680D01*
X179507666Y-97128780D01*
X179506357Y-97095439D01*
X179506300Y-97092536D01*
X179506300Y-96891853D01*
X180504300Y-96891853D01*
X180504300Y-97072946D01*
X180532628Y-97251806D01*
X180532631Y-97251819D01*
X180588587Y-97424035D01*
X180588588Y-97424038D01*
X180588589Y-97424039D01*
X180658287Y-97560829D01*
X180670805Y-97585395D01*
X180670805Y-97585396D01*
X180683742Y-97603202D01*
X180777247Y-97731901D01*
X180905299Y-97859953D01*
X181051806Y-97966396D01*
X181213161Y-98048611D01*
X181213164Y-98048612D01*
X181213163Y-98048612D01*
X181385380Y-98104568D01*
X181385386Y-98104569D01*
X181385391Y-98104571D01*
X181502991Y-98123197D01*
X181564253Y-98132900D01*
X181564254Y-98132900D01*
X181745347Y-98132900D01*
X181806545Y-98123207D01*
X181924209Y-98104571D01*
X181924216Y-98104568D01*
X181924219Y-98104568D01*
X182029163Y-98070470D01*
X182096439Y-98048611D01*
X182257794Y-97966396D01*
X182404301Y-97859953D01*
X182532353Y-97731901D01*
X182638796Y-97585394D01*
X182721011Y-97424039D01*
X182755737Y-97317163D01*
X182776968Y-97251819D01*
X182776968Y-97251816D01*
X182776971Y-97251809D01*
X182805300Y-97072946D01*
X182805300Y-96891854D01*
X182801737Y-96869361D01*
X182787277Y-96778060D01*
X182776971Y-96712991D01*
X182776969Y-96712986D01*
X182776968Y-96712980D01*
X182721012Y-96540764D01*
X182721011Y-96540763D01*
X182721011Y-96540761D01*
X182638796Y-96379406D01*
X182635463Y-96374819D01*
X182599215Y-96324927D01*
X182532353Y-96232899D01*
X182404301Y-96104847D01*
X182266844Y-96004979D01*
X182257796Y-95998405D01*
X182096435Y-95916187D01*
X182096436Y-95916187D01*
X181924219Y-95860231D01*
X181924206Y-95860228D01*
X181745347Y-95831900D01*
X181745346Y-95831900D01*
X181564254Y-95831900D01*
X181564253Y-95831900D01*
X181385393Y-95860228D01*
X181385380Y-95860231D01*
X181213164Y-95916187D01*
X181051804Y-95998405D01*
X181051803Y-95998405D01*
X180920321Y-96093933D01*
X180905299Y-96104847D01*
X180777247Y-96232899D01*
X180777244Y-96232902D01*
X180777244Y-96232903D01*
X180670805Y-96379403D01*
X180670805Y-96379404D01*
X180588587Y-96540764D01*
X180532631Y-96712980D01*
X180532628Y-96712993D01*
X180504300Y-96891853D01*
X179506300Y-96891853D01*
X179506300Y-96872264D01*
X179506357Y-96869361D01*
X179507666Y-96836020D01*
X179507837Y-96833120D01*
X179510911Y-96794042D01*
X179511196Y-96791149D01*
X179515121Y-96757979D01*
X179515519Y-96755099D01*
X179549980Y-96537525D01*
X179550490Y-96534667D01*
X179556996Y-96501953D01*
X179557619Y-96499117D01*
X179566767Y-96461002D01*
X179567501Y-96458188D01*
X179576569Y-96426031D01*
X179577413Y-96423248D01*
X179645495Y-96213711D01*
X179646447Y-96210964D01*
X179658013Y-96179615D01*
X179659074Y-96176906D01*
X179674078Y-96140690D01*
X179675242Y-96138029D01*
X179689208Y-96107738D01*
X179690475Y-96105126D01*
X179790476Y-95908865D01*
X179791844Y-95906306D01*
X179808146Y-95877194D01*
X179809616Y-95874686D01*
X179830096Y-95841264D01*
X179831662Y-95838816D01*
X179850217Y-95811045D01*
X179851879Y-95808661D01*
X179862900Y-95793491D01*
X179862900Y-95675397D01*
X183360900Y-95675397D01*
X183457720Y-95808660D01*
X183459383Y-95811045D01*
X183477938Y-95838816D01*
X183479504Y-95841264D01*
X183499984Y-95874686D01*
X183501454Y-95877194D01*
X183517756Y-95906306D01*
X183519124Y-95908865D01*
X183619125Y-96105126D01*
X183620392Y-96107738D01*
X183634358Y-96138029D01*
X183635522Y-96140690D01*
X183650526Y-96176906D01*
X183651587Y-96179615D01*
X183663153Y-96210964D01*
X183664105Y-96213711D01*
X183732187Y-96423248D01*
X183733031Y-96426031D01*
X183742099Y-96458188D01*
X183742833Y-96461002D01*
X183751981Y-96499117D01*
X183752604Y-96501953D01*
X183759110Y-96534667D01*
X183759620Y-96537525D01*
X183794081Y-96755099D01*
X183794479Y-96757979D01*
X183798404Y-96791149D01*
X183798689Y-96794042D01*
X183801763Y-96833120D01*
X183801934Y-96836020D01*
X183803243Y-96869361D01*
X183803300Y-96872264D01*
X183803300Y-97092536D01*
X183803243Y-97095439D01*
X183801934Y-97128780D01*
X183801763Y-97131680D01*
X183801256Y-97138130D01*
X184508344Y-97138130D01*
X184507837Y-97131680D01*
X184507666Y-97128780D01*
X184506357Y-97095439D01*
X184506300Y-97092536D01*
X184506300Y-96891853D01*
X185504300Y-96891853D01*
X185504300Y-97072946D01*
X185532628Y-97251806D01*
X185532631Y-97251819D01*
X185588587Y-97424035D01*
X185588588Y-97424038D01*
X185588589Y-97424039D01*
X185658287Y-97560829D01*
X185670805Y-97585395D01*
X185670805Y-97585396D01*
X185683742Y-97603202D01*
X185777247Y-97731901D01*
X185905299Y-97859953D01*
X186051806Y-97966396D01*
X186213161Y-98048611D01*
X186213164Y-98048612D01*
X186213163Y-98048612D01*
X186385380Y-98104568D01*
X186385386Y-98104569D01*
X186385391Y-98104571D01*
X186502991Y-98123197D01*
X186564253Y-98132900D01*
X186564254Y-98132900D01*
X186745347Y-98132900D01*
X186806545Y-98123207D01*
X186924209Y-98104571D01*
X186924216Y-98104568D01*
X186924219Y-98104568D01*
X187029163Y-98070470D01*
X187096439Y-98048611D01*
X187257794Y-97966396D01*
X187404301Y-97859953D01*
X187532353Y-97731901D01*
X187638796Y-97585394D01*
X187721011Y-97424039D01*
X187755737Y-97317163D01*
X187776968Y-97251819D01*
X187776968Y-97251816D01*
X187776971Y-97251809D01*
X187805300Y-97072946D01*
X187805300Y-96891854D01*
X187801737Y-96869361D01*
X187787277Y-96778060D01*
X187776971Y-96712991D01*
X187776969Y-96712986D01*
X187776968Y-96712980D01*
X187721012Y-96540764D01*
X187721011Y-96540763D01*
X187721011Y-96540761D01*
X187638796Y-96379406D01*
X187635463Y-96374819D01*
X187599215Y-96324927D01*
X187532353Y-96232899D01*
X187404301Y-96104847D01*
X187266844Y-96004979D01*
X187257796Y-95998405D01*
X187096435Y-95916187D01*
X187096436Y-95916187D01*
X186924219Y-95860231D01*
X186924206Y-95860228D01*
X186745347Y-95831900D01*
X186745346Y-95831900D01*
X186564254Y-95831900D01*
X186564253Y-95831900D01*
X186385393Y-95860228D01*
X186385380Y-95860231D01*
X186213164Y-95916187D01*
X186051804Y-95998405D01*
X186051803Y-95998405D01*
X185920321Y-96093933D01*
X185905299Y-96104847D01*
X185777247Y-96232899D01*
X185777244Y-96232902D01*
X185777244Y-96232903D01*
X185670805Y-96379403D01*
X185670805Y-96379404D01*
X185588587Y-96540764D01*
X185532631Y-96712980D01*
X185532628Y-96712993D01*
X185504300Y-96891853D01*
X184506300Y-96891853D01*
X184506300Y-96872264D01*
X184506357Y-96869361D01*
X184507666Y-96836020D01*
X184507837Y-96833120D01*
X184510911Y-96794042D01*
X184511196Y-96791149D01*
X184515121Y-96757979D01*
X184515519Y-96755099D01*
X184549980Y-96537525D01*
X184550490Y-96534667D01*
X184556996Y-96501953D01*
X184557619Y-96499117D01*
X184566767Y-96461002D01*
X184567501Y-96458188D01*
X184576569Y-96426031D01*
X184577413Y-96423248D01*
X184645495Y-96213711D01*
X184646447Y-96210964D01*
X184658013Y-96179615D01*
X184659074Y-96176906D01*
X184674078Y-96140690D01*
X184675242Y-96138029D01*
X184689208Y-96107738D01*
X184690475Y-96105126D01*
X184790476Y-95908865D01*
X184791844Y-95906306D01*
X184808146Y-95877194D01*
X184809616Y-95874686D01*
X184830096Y-95841264D01*
X184831662Y-95838816D01*
X184850217Y-95811045D01*
X184851879Y-95808661D01*
X184862900Y-95793491D01*
X184862900Y-95675397D01*
X188360900Y-95675397D01*
X188457720Y-95808660D01*
X188459383Y-95811045D01*
X188477938Y-95838816D01*
X188479504Y-95841264D01*
X188499984Y-95874686D01*
X188501454Y-95877194D01*
X188517756Y-95906306D01*
X188519124Y-95908865D01*
X188619125Y-96105126D01*
X188620392Y-96107738D01*
X188634358Y-96138029D01*
X188635522Y-96140690D01*
X188650526Y-96176906D01*
X188651587Y-96179615D01*
X188663153Y-96210964D01*
X188664105Y-96213711D01*
X188732187Y-96423248D01*
X188733031Y-96426031D01*
X188742099Y-96458188D01*
X188742833Y-96461002D01*
X188751981Y-96499117D01*
X188752604Y-96501953D01*
X188759110Y-96534667D01*
X188759620Y-96537525D01*
X188794081Y-96755099D01*
X188794479Y-96757979D01*
X188798404Y-96791149D01*
X188798689Y-96794042D01*
X188801763Y-96833120D01*
X188801934Y-96836020D01*
X188803243Y-96869361D01*
X188803300Y-96872264D01*
X188803300Y-97092536D01*
X188803243Y-97095439D01*
X188801934Y-97128780D01*
X188801763Y-97131680D01*
X188801256Y-97138130D01*
X189613900Y-97138130D01*
X189613900Y-95636130D01*
X188360900Y-95636130D01*
X188360900Y-95675397D01*
X184862900Y-95675397D01*
X184862900Y-95636130D01*
X183360900Y-95636130D01*
X183360900Y-95675397D01*
X179862900Y-95675397D01*
X179862900Y-95636130D01*
X178360900Y-95636130D01*
X178360900Y-97138130D01*
X177362900Y-97138130D01*
X177362900Y-95636130D01*
X175860900Y-95636130D01*
X175860900Y-97138130D01*
X174862900Y-97138130D01*
X174862900Y-95636130D01*
X173360900Y-95636130D01*
X173360900Y-97138130D01*
X171316130Y-97138130D01*
X171368376Y-97085884D01*
X171682086Y-96772174D01*
X171734412Y-96750500D01*
X171802729Y-96750500D01*
X171802729Y-96750499D01*
X171904587Y-96723207D01*
X171995913Y-96670480D01*
X172070480Y-96595913D01*
X172123207Y-96504587D01*
X172150499Y-96402729D01*
X172150500Y-96402729D01*
X172150500Y-96297271D01*
X172150499Y-96297270D01*
X172137992Y-96250594D01*
X172123207Y-96195413D01*
X172070480Y-96104087D01*
X171995913Y-96029520D01*
X171942020Y-95998405D01*
X171904591Y-95976795D01*
X171904582Y-95976791D01*
X171802729Y-95949500D01*
X171802727Y-95949500D01*
X171697273Y-95949500D01*
X171697271Y-95949500D01*
X171595417Y-95976791D01*
X171595408Y-95976795D01*
X171504086Y-96029520D01*
X171429520Y-96104086D01*
X171376795Y-96195408D01*
X171376791Y-96195417D01*
X171349500Y-96297270D01*
X171349500Y-96365587D01*
X171327826Y-96417913D01*
X169117913Y-98627826D01*
X169065587Y-98649500D01*
X166046545Y-98649500D01*
X165994219Y-98627826D01*
X165945913Y-98579520D01*
X165854591Y-98526795D01*
X165854582Y-98526791D01*
X165752729Y-98499500D01*
X165752727Y-98499500D01*
X165647273Y-98499500D01*
X165647271Y-98499500D01*
X165545417Y-98526791D01*
X165545408Y-98526795D01*
X165454086Y-98579520D01*
X165379520Y-98654086D01*
X165326795Y-98745408D01*
X165326791Y-98745417D01*
X165299500Y-98847270D01*
X165299500Y-98952729D01*
X165326791Y-99054582D01*
X165326795Y-99054591D01*
X165366411Y-99123207D01*
X165379520Y-99145913D01*
X165454087Y-99220480D01*
X165545413Y-99273207D01*
X165647270Y-99300499D01*
X165647271Y-99300500D01*
X165688595Y-99300500D01*
X165740921Y-99322174D01*
X165762595Y-99374500D01*
X165760073Y-99393654D01*
X165757074Y-99404845D01*
X165757074Y-99404847D01*
X165757074Y-99510301D01*
X165780090Y-99596197D01*
X165772697Y-99652350D01*
X165745611Y-99679436D01*
X165652486Y-99733202D01*
X165577920Y-99807768D01*
X165525195Y-99899090D01*
X165525190Y-99899102D01*
X165520992Y-99914768D01*
X165486512Y-99959700D01*
X165430359Y-99967089D01*
X165397189Y-99947938D01*
X162636877Y-97187626D01*
X162636873Y-97187623D01*
X162544807Y-97149489D01*
X161031392Y-97149489D01*
X160979066Y-97127815D01*
X160957392Y-97075489D01*
X160959914Y-97056336D01*
X160963126Y-97044350D01*
X160987678Y-96952718D01*
X160987679Y-96952718D01*
X160987679Y-96847260D01*
X160987678Y-96847259D01*
X160980266Y-96819598D01*
X160960386Y-96745402D01*
X160907659Y-96654076D01*
X160859354Y-96605771D01*
X160837680Y-96553445D01*
X160837680Y-96537356D01*
X160822315Y-96500263D01*
X163360900Y-96500263D01*
X163998767Y-97138130D01*
X164862900Y-97138130D01*
X165860900Y-97138130D01*
X167362900Y-97138130D01*
X168360900Y-97138130D01*
X169196223Y-97138130D01*
X169862900Y-96471452D01*
X169862900Y-95636130D01*
X168360900Y-95636130D01*
X168360900Y-97138130D01*
X167362900Y-97138130D01*
X167362900Y-95636130D01*
X165860900Y-95636130D01*
X165860900Y-97138130D01*
X164862900Y-97138130D01*
X164862900Y-95636130D01*
X163360900Y-95636130D01*
X163360900Y-96500263D01*
X160822315Y-96500263D01*
X160799543Y-96445287D01*
X160799543Y-96445286D01*
X160729076Y-96374819D01*
X160724861Y-96370604D01*
X160724854Y-96370598D01*
X160241903Y-95887646D01*
X160241900Y-95887644D01*
X160149834Y-95849510D01*
X159505534Y-95849510D01*
X159453208Y-95827836D01*
X159431534Y-95775510D01*
X159453207Y-95723185D01*
X159460480Y-95715913D01*
X159513207Y-95624588D01*
X159540500Y-95522727D01*
X159540500Y-95417273D01*
X159513207Y-95315412D01*
X159497170Y-95287636D01*
X159460482Y-95224090D01*
X159460481Y-95224089D01*
X159460480Y-95224087D01*
X159315913Y-95079520D01*
X159315910Y-95079518D01*
X159315909Y-95079517D01*
X159224592Y-95026795D01*
X159224588Y-95026793D01*
X159122727Y-94999500D01*
X159122726Y-94999500D01*
X154245078Y-94999500D01*
X154192752Y-94977826D01*
X154173600Y-94944653D01*
X154166126Y-94916760D01*
X154150592Y-94879257D01*
X154114698Y-94817087D01*
X154084766Y-94765242D01*
X154071823Y-94748376D01*
X154060054Y-94733038D01*
X153966962Y-94639946D01*
X153964595Y-94638130D01*
X160860900Y-94638130D01*
X162362900Y-94638130D01*
X163360900Y-94638130D01*
X164862900Y-94638130D01*
X165860900Y-94638130D01*
X167362900Y-94638130D01*
X168360900Y-94638130D01*
X169862900Y-94638130D01*
X169862900Y-93299500D01*
X170860900Y-93299500D01*
X170860900Y-94638130D01*
X172362900Y-94638130D01*
X173360900Y-94638130D01*
X174862900Y-94638130D01*
X175860900Y-94638130D01*
X177362900Y-94638130D01*
X178360900Y-94638130D01*
X179862900Y-94638130D01*
X180860900Y-94638130D01*
X182362900Y-94638130D01*
X183360900Y-94638130D01*
X184862900Y-94638130D01*
X185860900Y-94638130D01*
X187362900Y-94638130D01*
X188360900Y-94638130D01*
X189613900Y-94638130D01*
X189613900Y-94257641D01*
X189604037Y-94104121D01*
X189580755Y-93984638D01*
X189542382Y-93869131D01*
X189489537Y-93759465D01*
X189423103Y-93657471D01*
X189344163Y-93564813D01*
X189254016Y-93483016D01*
X189154143Y-93413423D01*
X189046185Y-93357181D01*
X188931927Y-93315217D01*
X188862840Y-93299500D01*
X188360900Y-93299500D01*
X188360900Y-94638130D01*
X187362900Y-94638130D01*
X187362900Y-93299500D01*
X185860900Y-93299500D01*
X185860900Y-94638130D01*
X184862900Y-94638130D01*
X184862900Y-93299500D01*
X183360900Y-93299500D01*
X183360900Y-94638130D01*
X182362900Y-94638130D01*
X182362900Y-93299500D01*
X180860900Y-93299500D01*
X180860900Y-94638130D01*
X179862900Y-94638130D01*
X179862900Y-93204948D01*
X179816815Y-93185859D01*
X179804021Y-93179021D01*
X179739831Y-93136130D01*
X178360900Y-93136130D01*
X178360900Y-94638130D01*
X177362900Y-94638130D01*
X177362900Y-93136130D01*
X175860900Y-93136130D01*
X175860900Y-94638130D01*
X174862900Y-94638130D01*
X174862900Y-93136130D01*
X173360900Y-93136130D01*
X173360900Y-94638130D01*
X172362900Y-94638130D01*
X172362900Y-93136130D01*
X171584969Y-93136130D01*
X171520779Y-93179021D01*
X171507985Y-93185859D01*
X171326097Y-93261201D01*
X171312215Y-93265412D01*
X171147994Y-93298078D01*
X171133557Y-93299500D01*
X170860900Y-93299500D01*
X169862900Y-93299500D01*
X168360900Y-93299500D01*
X168360900Y-94638130D01*
X167362900Y-94638130D01*
X167362900Y-93299500D01*
X165860900Y-93299500D01*
X165860900Y-94638130D01*
X164862900Y-94638130D01*
X164862900Y-93299500D01*
X163360900Y-93299500D01*
X163360900Y-94638130D01*
X162362900Y-94638130D01*
X162362900Y-93299500D01*
X160860900Y-93299500D01*
X160860900Y-94638130D01*
X153964595Y-94638130D01*
X153956736Y-94632099D01*
X153934757Y-94615233D01*
X153820745Y-94549409D01*
X153820736Y-94549405D01*
X153783239Y-94533873D01*
X153656075Y-94499799D01*
X153656066Y-94499797D01*
X153620203Y-94495076D01*
X153615826Y-94494500D01*
X153050000Y-94494500D01*
X153049998Y-94494500D01*
X152972250Y-94515332D01*
X152952326Y-94535257D01*
X152900000Y-94556931D01*
X152847674Y-94535257D01*
X152827749Y-94515332D01*
X152750002Y-94494500D01*
X152750000Y-94494500D01*
X152418193Y-94494500D01*
X152365867Y-94472826D01*
X152354107Y-94457500D01*
X152343649Y-94439386D01*
X152330480Y-94416577D01*
X152255913Y-94342010D01*
X152242665Y-94334361D01*
X152164591Y-94289285D01*
X152164582Y-94289281D01*
X152062729Y-94261990D01*
X152062727Y-94261990D01*
X151957273Y-94261990D01*
X151957271Y-94261990D01*
X151855417Y-94289281D01*
X151855408Y-94289285D01*
X151764086Y-94342010D01*
X151689520Y-94416576D01*
X151636795Y-94507898D01*
X151636791Y-94507907D01*
X151609500Y-94609760D01*
X151609500Y-94715219D01*
X151636791Y-94817072D01*
X151636797Y-94817087D01*
X151640889Y-94824174D01*
X151648280Y-94880326D01*
X151645170Y-94889488D01*
X151633873Y-94916763D01*
X151599799Y-95043924D01*
X151599797Y-95043933D01*
X151595113Y-95079517D01*
X151594500Y-95084174D01*
X151594500Y-95715826D01*
X151595076Y-95720203D01*
X151599797Y-95756066D01*
X151599799Y-95756075D01*
X151633873Y-95883239D01*
X151649405Y-95920736D01*
X151649409Y-95920745D01*
X151715233Y-96034757D01*
X151727148Y-96050284D01*
X151739946Y-96066962D01*
X151833038Y-96160054D01*
X151846685Y-96170526D01*
X151865242Y-96184766D01*
X151910619Y-96210964D01*
X151979257Y-96250592D01*
X152016760Y-96266126D01*
X152143927Y-96300201D01*
X152143930Y-96300201D01*
X152143933Y-96300202D01*
X152168668Y-96303458D01*
X152184174Y-96305500D01*
X152184175Y-96305500D01*
X152750002Y-96305500D01*
X152750002Y-96305499D01*
X152827750Y-96284667D01*
X152847674Y-96264743D01*
X152900000Y-96243069D01*
X152952326Y-96264743D01*
X152972250Y-96284667D01*
X153049997Y-96305499D01*
X153049998Y-96305500D01*
X153050000Y-96305500D01*
X153615825Y-96305500D01*
X153615826Y-96305500D01*
X153641051Y-96302178D01*
X153656066Y-96300202D01*
X153656066Y-96300201D01*
X153656073Y-96300201D01*
X153783240Y-96266126D01*
X153820743Y-96250592D01*
X153934757Y-96184766D01*
X153966962Y-96160054D01*
X154060054Y-96066962D01*
X154084766Y-96034757D01*
X154150592Y-95920743D01*
X154166126Y-95883240D01*
X154173600Y-95855346D01*
X154208078Y-95810414D01*
X154245078Y-95800500D01*
X154466587Y-95800500D01*
X154518913Y-95822174D01*
X154540587Y-95874500D01*
X154518913Y-95926826D01*
X151917924Y-98527815D01*
X151865598Y-98549489D01*
X151164052Y-98549489D01*
X151111726Y-98527815D01*
X151090052Y-98475489D01*
X151111726Y-98423163D01*
X151127052Y-98411403D01*
X151145921Y-98400509D01*
X151220488Y-98325942D01*
X151273215Y-98234616D01*
X151300507Y-98132758D01*
X151300508Y-98132758D01*
X151300508Y-98027300D01*
X151300507Y-98027299D01*
X151295788Y-98009689D01*
X151273215Y-97925442D01*
X151220488Y-97834116D01*
X151145921Y-97759549D01*
X151098025Y-97731896D01*
X151054599Y-97706824D01*
X151054590Y-97706820D01*
X150952737Y-97679529D01*
X150952735Y-97679529D01*
X150884421Y-97679529D01*
X150832095Y-97657855D01*
X149411877Y-96237637D01*
X149411873Y-96237634D01*
X149319807Y-96199500D01*
X145628997Y-96199500D01*
X145576671Y-96177826D01*
X145555630Y-96135160D01*
X145551639Y-96104852D01*
X145550201Y-96093927D01*
X145516126Y-95966760D01*
X145500592Y-95929257D01*
X145474024Y-95883239D01*
X145434766Y-95815242D01*
X145421823Y-95798376D01*
X145410054Y-95783038D01*
X145316962Y-95689946D01*
X145298002Y-95675397D01*
X145284757Y-95665233D01*
X145170745Y-95599409D01*
X145170736Y-95599405D01*
X145133239Y-95583873D01*
X145006075Y-95549799D01*
X145006066Y-95549797D01*
X144970203Y-95545076D01*
X144965826Y-95544500D01*
X144350000Y-95544500D01*
X144349998Y-95544500D01*
X144272249Y-95565332D01*
X144263812Y-95570204D01*
X144262700Y-95568278D01*
X144221643Y-95585280D01*
X144180540Y-95572810D01*
X144158722Y-95558233D01*
X144158723Y-95558233D01*
X144136771Y-95553866D01*
X144114820Y-95549500D01*
X144114819Y-95549500D01*
X143924500Y-95549500D01*
X143872174Y-95527826D01*
X143850500Y-95475500D01*
X143850500Y-95450172D01*
X143850499Y-95450170D01*
X143812365Y-95358105D01*
X143812363Y-95358102D01*
X143691888Y-95237627D01*
X143691884Y-95237624D01*
X143599818Y-95199490D01*
X141596629Y-95199490D01*
X141504562Y-95237624D01*
X141504560Y-95237626D01*
X141434093Y-95308093D01*
X141434092Y-95308094D01*
X141192387Y-95549799D01*
X140947695Y-95794490D01*
X140887637Y-95854548D01*
X140887634Y-95854552D01*
X140849500Y-95946617D01*
X140849500Y-96003455D01*
X140827826Y-96055781D01*
X140779520Y-96104086D01*
X140726795Y-96195408D01*
X140726791Y-96195417D01*
X140699500Y-96297270D01*
X140699500Y-96402729D01*
X140726791Y-96504582D01*
X140726795Y-96504591D01*
X140779520Y-96595913D01*
X140831281Y-96647674D01*
X140852955Y-96700000D01*
X140831281Y-96752326D01*
X140779520Y-96804086D01*
X140726795Y-96895408D01*
X140726791Y-96895417D01*
X140699500Y-96997270D01*
X140699500Y-97102729D01*
X140726791Y-97204582D01*
X140726795Y-97204591D01*
X140779520Y-97295913D01*
X140827826Y-97344219D01*
X140849500Y-97396545D01*
X140849500Y-98480613D01*
X140827826Y-98532939D01*
X139952949Y-99407816D01*
X139900623Y-99429490D01*
X136225194Y-99429490D01*
X136133127Y-99467624D01*
X136133125Y-99467626D01*
X136062658Y-99538093D01*
X136062657Y-99538094D01*
X135919424Y-99681327D01*
X135767695Y-99833055D01*
X135707637Y-99893113D01*
X135707634Y-99893117D01*
X135669500Y-99985182D01*
X135669500Y-103642036D01*
X135647826Y-103694362D01*
X132737634Y-106604554D01*
X132699500Y-106696619D01*
X132699500Y-106893455D01*
X132677826Y-106945781D01*
X132629520Y-106994086D01*
X132576795Y-107085408D01*
X132576791Y-107085417D01*
X132549500Y-107187270D01*
X132549500Y-107292729D01*
X132576791Y-107394582D01*
X132576792Y-107394585D01*
X132576793Y-107394587D01*
X132629520Y-107485913D01*
X132704087Y-107560480D01*
X132795413Y-107613207D01*
X132897270Y-107640499D01*
X132897271Y-107640500D01*
X132897273Y-107640500D01*
X133002729Y-107640500D01*
X133002729Y-107640499D01*
X133104587Y-107613207D01*
X133188503Y-107564757D01*
X133244654Y-107557365D01*
X133289588Y-107591844D01*
X133299502Y-107628844D01*
X133299502Y-110203455D01*
X133277828Y-110255781D01*
X133229522Y-110304086D01*
X133176797Y-110395408D01*
X133176793Y-110395417D01*
X133149502Y-110497270D01*
X133149502Y-110602729D01*
X133176793Y-110704582D01*
X133176797Y-110704591D01*
X133220629Y-110780510D01*
X133229522Y-110795913D01*
X133304089Y-110870480D01*
X133395415Y-110923207D01*
X133497272Y-110950499D01*
X133497273Y-110950500D01*
X133497275Y-110950500D01*
X133602731Y-110950500D01*
X133602731Y-110950499D01*
X133704589Y-110923207D01*
X133795915Y-110870480D01*
X133870482Y-110795913D01*
X133923209Y-110704587D01*
X133950501Y-110602729D01*
X133950502Y-110602729D01*
X133950502Y-110497271D01*
X133950501Y-110497270D01*
X133923210Y-110395417D01*
X133923209Y-110395413D01*
X133870482Y-110304087D01*
X133822176Y-110255781D01*
X133800502Y-110203455D01*
X133800502Y-109638130D01*
X135860900Y-109638130D01*
X137362900Y-109638130D01*
X138360900Y-109638130D01*
X139709650Y-109638130D01*
X148392471Y-109638130D01*
X149862900Y-109638130D01*
X149862900Y-108714049D01*
X149797109Y-108741301D01*
X149790271Y-108743748D01*
X149710357Y-108767989D01*
X149703314Y-108769753D01*
X149607107Y-108788891D01*
X149599923Y-108789957D01*
X149516805Y-108798144D01*
X149509551Y-108798500D01*
X149384535Y-108798500D01*
X149375279Y-108803844D01*
X149371007Y-108806127D01*
X149321071Y-108830751D01*
X149316658Y-108832751D01*
X149256278Y-108857757D01*
X149251749Y-108859461D01*
X149199074Y-108877341D01*
X149194439Y-108878747D01*
X149184139Y-108881506D01*
X148532906Y-109532741D01*
X148527525Y-109537618D01*
X148462960Y-109590604D01*
X148457126Y-109594931D01*
X148392471Y-109638130D01*
X139709650Y-109638130D01*
X139709650Y-109604513D01*
X139710561Y-109592937D01*
X139738878Y-109414152D01*
X139741589Y-109402861D01*
X139797525Y-109230706D01*
X139801969Y-109219978D01*
X139862900Y-109100394D01*
X139862900Y-108231564D01*
X139814273Y-108136130D01*
X138360900Y-108136130D01*
X138360900Y-109638130D01*
X137362900Y-109638130D01*
X137362900Y-108136130D01*
X135860900Y-108136130D01*
X135860900Y-109638130D01*
X133800502Y-109638130D01*
X133800502Y-106784411D01*
X133822176Y-106732085D01*
X134449515Y-106104746D01*
X135860900Y-106104746D01*
X135860900Y-107138130D01*
X137362900Y-107138130D01*
X137362900Y-106895769D01*
X137360514Y-106895593D01*
X137311747Y-106890788D01*
X137308144Y-106890344D01*
X137266884Y-106884223D01*
X137263307Y-106883602D01*
X137235098Y-106877991D01*
X138360900Y-106877991D01*
X138360900Y-107138130D01*
X139794779Y-107138130D01*
X139862900Y-107004435D01*
X139862900Y-106158704D01*
X139721532Y-106240323D01*
X139717260Y-106242606D01*
X139667341Y-106267222D01*
X139662931Y-106269220D01*
X139602554Y-106294228D01*
X139598022Y-106295934D01*
X139545331Y-106313820D01*
X139540698Y-106315225D01*
X139343919Y-106367952D01*
X139339202Y-106369052D01*
X139302215Y-106376408D01*
X139200715Y-106477910D01*
X139198083Y-106480416D01*
X139167153Y-106508448D01*
X139164403Y-106510820D01*
X139126522Y-106541907D01*
X139123659Y-106544141D01*
X139090145Y-106568996D01*
X139087176Y-106571087D01*
X138939967Y-106669448D01*
X138936897Y-106671392D01*
X138901091Y-106692852D01*
X138897931Y-106694642D01*
X138854715Y-106717740D01*
X138851470Y-106719373D01*
X138813758Y-106737208D01*
X138810440Y-106738679D01*
X138646890Y-106806425D01*
X138643502Y-106807732D01*
X138604225Y-106821786D01*
X138600779Y-106822925D01*
X138553884Y-106837153D01*
X138550381Y-106838122D01*
X138509880Y-106848268D01*
X138506334Y-106849064D01*
X138360900Y-106877991D01*
X137235098Y-106877991D01*
X137089666Y-106849064D01*
X137086120Y-106848268D01*
X137045619Y-106838122D01*
X137042116Y-106837153D01*
X136995221Y-106822925D01*
X136991775Y-106821786D01*
X136952498Y-106807732D01*
X136949110Y-106806425D01*
X136785560Y-106738679D01*
X136782242Y-106737208D01*
X136744530Y-106719373D01*
X136741285Y-106717740D01*
X136698069Y-106694642D01*
X136694909Y-106692852D01*
X136659103Y-106671392D01*
X136656033Y-106669448D01*
X136508824Y-106571087D01*
X136505855Y-106568996D01*
X136472341Y-106544141D01*
X136469478Y-106541907D01*
X136431597Y-106510820D01*
X136428847Y-106508448D01*
X136397917Y-106480416D01*
X136395285Y-106477910D01*
X136270090Y-106352715D01*
X136267584Y-106350083D01*
X136239552Y-106319153D01*
X136237180Y-106316403D01*
X136206093Y-106278522D01*
X136203859Y-106275659D01*
X136179004Y-106242145D01*
X136176913Y-106239176D01*
X136111438Y-106141185D01*
X140860900Y-106141185D01*
X140860900Y-106394000D01*
X141014507Y-106394000D01*
X141026083Y-106394911D01*
X141204868Y-106423228D01*
X141216159Y-106425939D01*
X141388314Y-106481875D01*
X141399043Y-106486319D01*
X141560327Y-106568498D01*
X141570227Y-106574565D01*
X141716671Y-106680962D01*
X141725501Y-106688503D01*
X141853497Y-106816499D01*
X141861038Y-106825329D01*
X141967435Y-106971773D01*
X141973502Y-106981673D01*
X142053221Y-107138130D01*
X142362900Y-107138130D01*
X142362900Y-106070500D01*
X143360900Y-106070500D01*
X143360900Y-107138130D01*
X144862900Y-107138130D01*
X145860900Y-107138130D01*
X147362900Y-107138130D01*
X147362900Y-105998500D01*
X146760583Y-105998500D01*
X146760567Y-105998501D01*
X146551124Y-105998501D01*
X146543870Y-105998145D01*
X146460752Y-105989958D01*
X146453569Y-105988892D01*
X146357361Y-105969754D01*
X146350316Y-105967989D01*
X146270400Y-105943746D01*
X146263563Y-105941300D01*
X146153154Y-105895566D01*
X146153150Y-105895566D01*
X146080856Y-105865620D01*
X146074289Y-105862514D01*
X146000607Y-105823127D01*
X145994376Y-105819392D01*
X145912821Y-105764890D01*
X145906991Y-105760565D01*
X145860900Y-105722735D01*
X145860900Y-107138130D01*
X144862900Y-107138130D01*
X144862900Y-106010245D01*
X144749279Y-106075844D01*
X144745007Y-106078127D01*
X144695071Y-106102751D01*
X144690658Y-106104751D01*
X144630278Y-106129757D01*
X144625749Y-106131461D01*
X144573074Y-106149341D01*
X144568441Y-106150746D01*
X144403463Y-106194952D01*
X144398746Y-106196052D01*
X144344152Y-106206911D01*
X144339372Y-106207700D01*
X144274577Y-106216228D01*
X144269761Y-106216703D01*
X144214238Y-106220342D01*
X144209398Y-106220500D01*
X144038602Y-106220500D01*
X144033762Y-106220342D01*
X143978239Y-106216703D01*
X143973423Y-106216228D01*
X143908628Y-106207700D01*
X143903848Y-106206911D01*
X143849254Y-106196052D01*
X143844537Y-106194952D01*
X143679559Y-106150746D01*
X143674926Y-106149341D01*
X143622251Y-106131461D01*
X143617722Y-106129757D01*
X143557342Y-106104751D01*
X143552929Y-106102751D01*
X143502993Y-106078127D01*
X143498721Y-106075844D01*
X143489465Y-106070500D01*
X143360900Y-106070500D01*
X142362900Y-106070500D01*
X141968535Y-106070500D01*
X141959279Y-106075844D01*
X141955007Y-106078127D01*
X141905071Y-106102751D01*
X141900658Y-106104751D01*
X141840278Y-106129757D01*
X141835749Y-106131461D01*
X141783074Y-106149341D01*
X141778441Y-106150746D01*
X141613463Y-106194952D01*
X141608746Y-106196052D01*
X141554152Y-106206911D01*
X141549372Y-106207700D01*
X141484577Y-106216228D01*
X141479761Y-106216703D01*
X141424238Y-106220342D01*
X141419398Y-106220500D01*
X141248602Y-106220500D01*
X141243762Y-106220342D01*
X141188239Y-106216703D01*
X141183423Y-106216228D01*
X141118628Y-106207700D01*
X141113848Y-106206911D01*
X141059254Y-106196052D01*
X141054537Y-106194952D01*
X140889559Y-106150746D01*
X140884926Y-106149341D01*
X140860900Y-106141185D01*
X136111438Y-106141185D01*
X136078552Y-106091967D01*
X136076608Y-106088897D01*
X136055148Y-106053091D01*
X136053358Y-106049931D01*
X136030260Y-106006715D01*
X136028627Y-106003470D01*
X136010792Y-105965758D01*
X136009321Y-105962441D01*
X136007529Y-105958116D01*
X135860900Y-106104746D01*
X134449515Y-106104746D01*
X135429262Y-105124999D01*
X136860129Y-105124999D01*
X136860130Y-105125000D01*
X137279178Y-105125000D01*
X137248000Y-105200272D01*
X137248000Y-105299728D01*
X137279178Y-105375000D01*
X136860129Y-105375000D01*
X136872977Y-105439591D01*
X136872979Y-105439598D01*
X136921978Y-105557890D01*
X136993111Y-105664350D01*
X137083649Y-105754888D01*
X137190109Y-105826021D01*
X137308401Y-105875020D01*
X137308408Y-105875022D01*
X137433982Y-105900000D01*
X137673000Y-105900000D01*
X137673000Y-105500000D01*
X137923000Y-105500000D01*
X137923000Y-105900000D01*
X138162018Y-105900000D01*
X138287591Y-105875022D01*
X138287598Y-105875020D01*
X138405890Y-105826021D01*
X138512350Y-105754888D01*
X138512352Y-105754887D01*
X138602887Y-105664352D01*
X138602888Y-105664350D01*
X138674021Y-105557890D01*
X138723020Y-105439598D01*
X138723023Y-105439589D01*
X138729714Y-105405949D01*
X138761179Y-105358856D01*
X138816727Y-105347806D01*
X138839292Y-105356298D01*
X138845164Y-105359688D01*
X138845166Y-105359688D01*
X138845167Y-105359689D01*
X138911990Y-105377594D01*
X138978814Y-105395499D01*
X138978815Y-105395500D01*
X138978817Y-105395500D01*
X139117185Y-105395500D01*
X139117185Y-105395499D01*
X139250836Y-105359688D01*
X139370665Y-105290505D01*
X139468505Y-105192665D01*
X139537688Y-105072836D01*
X139573499Y-104939185D01*
X139573500Y-104939185D01*
X139573500Y-104500815D01*
X139573499Y-104500814D01*
X139553794Y-104427275D01*
X139537688Y-104367164D01*
X139468505Y-104247335D01*
X139370665Y-104149495D01*
X139250836Y-104080312D01*
X139250831Y-104080310D01*
X139117185Y-104044500D01*
X139117183Y-104044500D01*
X138978817Y-104044500D01*
X138978815Y-104044500D01*
X138845168Y-104080310D01*
X138845163Y-104080312D01*
X138725334Y-104149495D01*
X138627495Y-104247334D01*
X138558312Y-104367163D01*
X138558310Y-104367168D01*
X138522500Y-104500814D01*
X138522500Y-104613449D01*
X138500826Y-104665775D01*
X138448500Y-104687449D01*
X138409186Y-104675526D01*
X138409098Y-104675692D01*
X138408263Y-104675246D01*
X138407396Y-104674983D01*
X138405894Y-104673979D01*
X138287598Y-104624979D01*
X138287591Y-104624977D01*
X138162018Y-104600000D01*
X137923000Y-104600000D01*
X137923000Y-105000000D01*
X137673000Y-105000000D01*
X137673000Y-104600000D01*
X137433982Y-104600000D01*
X137308408Y-104624977D01*
X137308401Y-104624979D01*
X137190109Y-104673978D01*
X137083649Y-104745111D01*
X137083648Y-104745113D01*
X136993113Y-104835648D01*
X136993111Y-104835649D01*
X136921978Y-104942109D01*
X136872979Y-105060401D01*
X136872977Y-105060408D01*
X136860129Y-105124999D01*
X135429262Y-105124999D01*
X136482363Y-104071898D01*
X136482364Y-104071897D01*
X136520500Y-103979828D01*
X136520500Y-103880172D01*
X136520500Y-102327270D01*
X140679500Y-102327270D01*
X140679500Y-102432729D01*
X140706791Y-102534582D01*
X140706795Y-102534591D01*
X140759520Y-102625913D01*
X140807826Y-102674219D01*
X140829500Y-102726545D01*
X140829500Y-104849829D01*
X140867634Y-104941894D01*
X140867637Y-104941898D01*
X140960102Y-105034363D01*
X140960105Y-105034365D01*
X140982350Y-105043579D01*
X141009874Y-105064698D01*
X141010090Y-105064483D01*
X141011722Y-105066115D01*
X141012737Y-105066894D01*
X141013515Y-105067908D01*
X141013520Y-105067913D01*
X141088087Y-105142480D01*
X141179413Y-105195207D01*
X141281270Y-105222499D01*
X141281271Y-105222500D01*
X141281273Y-105222500D01*
X141386729Y-105222500D01*
X141386729Y-105222499D01*
X141488587Y-105195207D01*
X141579913Y-105142480D01*
X141628219Y-105094174D01*
X141680545Y-105072500D01*
X143777455Y-105072500D01*
X143829781Y-105094174D01*
X143878087Y-105142480D01*
X143969413Y-105195207D01*
X144071270Y-105222499D01*
X144071271Y-105222500D01*
X144071273Y-105222500D01*
X144176729Y-105222500D01*
X144176729Y-105222499D01*
X144278587Y-105195207D01*
X144369913Y-105142480D01*
X144444480Y-105067913D01*
X144497207Y-104976587D01*
X144524499Y-104874729D01*
X144524500Y-104874729D01*
X144524500Y-104769271D01*
X144524499Y-104769270D01*
X144502575Y-104687449D01*
X144497207Y-104667413D01*
X144444480Y-104576087D01*
X144369913Y-104501520D01*
X144336046Y-104481967D01*
X144278591Y-104448795D01*
X144278582Y-104448791D01*
X144176729Y-104421500D01*
X144176727Y-104421500D01*
X144071273Y-104421500D01*
X144071271Y-104421500D01*
X143969417Y-104448791D01*
X143969408Y-104448795D01*
X143878086Y-104501520D01*
X143829781Y-104549826D01*
X143777455Y-104571500D01*
X141680545Y-104571500D01*
X141628219Y-104549826D01*
X141579913Y-104501520D01*
X141488591Y-104448795D01*
X141488582Y-104448791D01*
X141385347Y-104421129D01*
X141340414Y-104386651D01*
X141330500Y-104349651D01*
X141330500Y-102726545D01*
X141352174Y-102674219D01*
X141400480Y-102625913D01*
X141453207Y-102534587D01*
X141480499Y-102432729D01*
X141480500Y-102432729D01*
X141480500Y-102327271D01*
X141480499Y-102327270D01*
X141467007Y-102276918D01*
X141453207Y-102225413D01*
X141400480Y-102134087D01*
X141325913Y-102059520D01*
X141234591Y-102006795D01*
X141234582Y-102006791D01*
X141132729Y-101979500D01*
X141132727Y-101979500D01*
X141027273Y-101979500D01*
X141027271Y-101979500D01*
X140925417Y-102006791D01*
X140925408Y-102006795D01*
X140834086Y-102059520D01*
X140759520Y-102134086D01*
X140706795Y-102225408D01*
X140706791Y-102225417D01*
X140679500Y-102327270D01*
X136520500Y-102327270D01*
X136520500Y-101733378D01*
X136542174Y-101681052D01*
X136594500Y-101659378D01*
X136646826Y-101681052D01*
X136665977Y-101714222D01*
X136676793Y-101754587D01*
X136676794Y-101754589D01*
X136676795Y-101754591D01*
X136700213Y-101795152D01*
X136729520Y-101845913D01*
X136804087Y-101920480D01*
X136895413Y-101973207D01*
X136997270Y-102000499D01*
X136997271Y-102000500D01*
X136997273Y-102000500D01*
X137102729Y-102000500D01*
X137102729Y-102000499D01*
X137204587Y-101973207D01*
X137295913Y-101920480D01*
X137370480Y-101845913D01*
X137404205Y-101787499D01*
X137449137Y-101753022D01*
X137468290Y-101750500D01*
X144503455Y-101750500D01*
X144555781Y-101772174D01*
X144604087Y-101820480D01*
X144695413Y-101873207D01*
X144797270Y-101900499D01*
X144797271Y-101900500D01*
X144797273Y-101900500D01*
X144902729Y-101900500D01*
X144902729Y-101900499D01*
X145004587Y-101873207D01*
X145095913Y-101820480D01*
X145170480Y-101745913D01*
X145223207Y-101654587D01*
X145250499Y-101552729D01*
X145250500Y-101552729D01*
X145250500Y-101447271D01*
X145250499Y-101447270D01*
X145250002Y-101445417D01*
X145223207Y-101345413D01*
X145215683Y-101332381D01*
X145208289Y-101276229D01*
X145242767Y-101231295D01*
X145279768Y-101221380D01*
X150588943Y-101221380D01*
X150588944Y-101221380D01*
X150681013Y-101183244D01*
X151517085Y-100347172D01*
X151569411Y-100325498D01*
X151780589Y-100325498D01*
X151832915Y-100347172D01*
X152773441Y-101287697D01*
X152773444Y-101287701D01*
X152777662Y-101291919D01*
X152848129Y-101362386D01*
X152869841Y-101371379D01*
X152869842Y-101371380D01*
X152869843Y-101371380D01*
X152940199Y-101400523D01*
X152940200Y-101400523D01*
X153048466Y-101400523D01*
X153048474Y-101400522D01*
X155523097Y-101400522D01*
X155575423Y-101422196D01*
X157365881Y-103212653D01*
X157365884Y-103212657D01*
X157370102Y-103216875D01*
X157440569Y-103287342D01*
X157532638Y-103325478D01*
X157632294Y-103325478D01*
X161617263Y-103325478D01*
X161669589Y-103347152D01*
X161681348Y-103362477D01*
X161705663Y-103404591D01*
X161729520Y-103445913D01*
X161806771Y-103523164D01*
X161828445Y-103575490D01*
X161806771Y-103627816D01*
X161754445Y-103649490D01*
X153524379Y-103649490D01*
X153472053Y-103627816D01*
X152931854Y-103087617D01*
X152931850Y-103087614D01*
X152839784Y-103049480D01*
X151608468Y-103049480D01*
X151608460Y-103049479D01*
X151599848Y-103049479D01*
X151500193Y-103049479D01*
X151463418Y-103064712D01*
X151408123Y-103087615D01*
X151408122Y-103087617D01*
X150531859Y-103963880D01*
X150479533Y-103985554D01*
X147410491Y-103985554D01*
X147358165Y-103963880D01*
X147309859Y-103915574D01*
X147218537Y-103862849D01*
X147218528Y-103862845D01*
X147116675Y-103835554D01*
X147116673Y-103835554D01*
X147011219Y-103835554D01*
X147011217Y-103835554D01*
X146909363Y-103862845D01*
X146909354Y-103862849D01*
X146818032Y-103915574D01*
X146743466Y-103990140D01*
X146690741Y-104081462D01*
X146690738Y-104081469D01*
X146676582Y-104134299D01*
X146642103Y-104179231D01*
X146585950Y-104186623D01*
X146541018Y-104152144D01*
X146533626Y-104134299D01*
X146523207Y-104095413D01*
X146470480Y-104004087D01*
X146395913Y-103929520D01*
X146371758Y-103915574D01*
X146304591Y-103876795D01*
X146304582Y-103876791D01*
X146202729Y-103849500D01*
X146202727Y-103849500D01*
X146097273Y-103849500D01*
X146097271Y-103849500D01*
X145995417Y-103876791D01*
X145995408Y-103876795D01*
X145904086Y-103929520D01*
X145829520Y-104004086D01*
X145776795Y-104095408D01*
X145776791Y-104095417D01*
X145749500Y-104197270D01*
X145749500Y-104302729D01*
X145776791Y-104404582D01*
X145776795Y-104404591D01*
X145789892Y-104427275D01*
X145829520Y-104495913D01*
X145904087Y-104570480D01*
X145995413Y-104623207D01*
X146097270Y-104650499D01*
X146097271Y-104650500D01*
X146097273Y-104650500D01*
X146165587Y-104650500D01*
X146217913Y-104672174D01*
X146433415Y-104887675D01*
X146433418Y-104887679D01*
X146437635Y-104891896D01*
X146437636Y-104891897D01*
X146508103Y-104962364D01*
X146535069Y-104973534D01*
X146600172Y-105000501D01*
X146600173Y-105000501D01*
X146708440Y-105000501D01*
X146708448Y-105000500D01*
X150366587Y-105000500D01*
X150418913Y-105022174D01*
X150440587Y-105074500D01*
X150418913Y-105126826D01*
X149098937Y-106446801D01*
X149046611Y-106468475D01*
X149009611Y-106458561D01*
X148954591Y-106426795D01*
X148954582Y-106426791D01*
X148852729Y-106399500D01*
X148852727Y-106399500D01*
X148747273Y-106399500D01*
X148747271Y-106399500D01*
X148645417Y-106426791D01*
X148645408Y-106426795D01*
X148554086Y-106479520D01*
X148479520Y-106554086D01*
X148426795Y-106645408D01*
X148426791Y-106645417D01*
X148399500Y-106747270D01*
X148399500Y-106852729D01*
X148426791Y-106954582D01*
X148426795Y-106954591D01*
X148479520Y-107045913D01*
X148536721Y-107103114D01*
X148558395Y-107155440D01*
X148536721Y-107207766D01*
X148521398Y-107219524D01*
X148504087Y-107229519D01*
X148429520Y-107304086D01*
X148376795Y-107395408D01*
X148376791Y-107395417D01*
X148349500Y-107497270D01*
X148349500Y-107565587D01*
X148327826Y-107617913D01*
X147637913Y-108307826D01*
X147585587Y-108329500D01*
X141816545Y-108329500D01*
X141764219Y-108307826D01*
X141715913Y-108259520D01*
X141624591Y-108206795D01*
X141624582Y-108206791D01*
X141522729Y-108179500D01*
X141522727Y-108179500D01*
X141417273Y-108179500D01*
X141417271Y-108179500D01*
X141315417Y-108206791D01*
X141315408Y-108206795D01*
X141224086Y-108259520D01*
X141149520Y-108334086D01*
X141096795Y-108425408D01*
X141096791Y-108425417D01*
X141069500Y-108527270D01*
X141069500Y-108632729D01*
X141096791Y-108734582D01*
X141096795Y-108734591D01*
X141133693Y-108798500D01*
X141149520Y-108825913D01*
X141224087Y-108900480D01*
X141315413Y-108953207D01*
X141417270Y-108980499D01*
X141417271Y-108980500D01*
X141417273Y-108980500D01*
X141522729Y-108980500D01*
X141522729Y-108980499D01*
X141624587Y-108953207D01*
X141715913Y-108900480D01*
X141764219Y-108852174D01*
X141816545Y-108830500D01*
X147769827Y-108830500D01*
X147769828Y-108830500D01*
X147861897Y-108792364D01*
X148682087Y-107972174D01*
X148734413Y-107950500D01*
X148802729Y-107950500D01*
X148802729Y-107950499D01*
X148904587Y-107923207D01*
X148995913Y-107870480D01*
X149044219Y-107822174D01*
X149096545Y-107800500D01*
X149460502Y-107800500D01*
X149460503Y-107800500D01*
X149552572Y-107762364D01*
X150735049Y-106579884D01*
X150735052Y-106579883D01*
X150745457Y-106569478D01*
X150745458Y-106569478D01*
X150815925Y-106499011D01*
X150828569Y-106468486D01*
X150868617Y-106428437D01*
X150925254Y-106428437D01*
X150965303Y-106468485D01*
X150970936Y-106496804D01*
X150970936Y-108948265D01*
X151009070Y-109040330D01*
X151009073Y-109040334D01*
X154032713Y-112063974D01*
X154054387Y-112116300D01*
X154032713Y-112168626D01*
X153980387Y-112190300D01*
X150289682Y-112190300D01*
X150260100Y-112219882D01*
X150260100Y-117579550D01*
X150260025Y-117582870D01*
X150241740Y-117990013D01*
X150241145Y-117996626D01*
X150186660Y-118398849D01*
X150185475Y-118405383D01*
X150095149Y-118801125D01*
X150093382Y-118807525D01*
X149967954Y-119193552D01*
X149965621Y-119199769D01*
X149806090Y-119573013D01*
X149803209Y-119578995D01*
X149610863Y-119936433D01*
X149607457Y-119942133D01*
X149383852Y-120280879D01*
X149379950Y-120286251D01*
X149126870Y-120603604D01*
X149122501Y-120608605D01*
X148841988Y-120901999D01*
X148837188Y-120906587D01*
X148531523Y-121173638D01*
X148526332Y-121177778D01*
X148197950Y-121416361D01*
X148192409Y-121420019D01*
X147843959Y-121628208D01*
X147838112Y-121631355D01*
X147588930Y-121751355D01*
X147472394Y-121807476D01*
X147466296Y-121810082D01*
X147086279Y-121952704D01*
X147079964Y-121954756D01*
X146688691Y-122062740D01*
X146682217Y-122064218D01*
X146282830Y-122136697D01*
X146276250Y-122137588D01*
X145871986Y-122173972D01*
X145865353Y-122174270D01*
X145459447Y-122174270D01*
X145452814Y-122173972D01*
X145048549Y-122137588D01*
X145041969Y-122136697D01*
X144642582Y-122064218D01*
X144636108Y-122062740D01*
X144244835Y-121954756D01*
X144238520Y-121952704D01*
X143881863Y-121818849D01*
X143858497Y-121810079D01*
X143852413Y-121807479D01*
X143592223Y-121682179D01*
X143486687Y-121631355D01*
X143480840Y-121628208D01*
X143132390Y-121420019D01*
X143126849Y-121416361D01*
X142798467Y-121177778D01*
X142793276Y-121173638D01*
X142487611Y-120906587D01*
X142482811Y-120901999D01*
X142202298Y-120608605D01*
X142197929Y-120603604D01*
X141944849Y-120286251D01*
X141940947Y-120280879D01*
X141717337Y-119942126D01*
X141713941Y-119936441D01*
X141521584Y-119578983D01*
X141518714Y-119573025D01*
X141359178Y-119199769D01*
X141356845Y-119193552D01*
X141231417Y-118807525D01*
X141229650Y-118801125D01*
X141218031Y-118750220D01*
X141139321Y-118405368D01*
X141138141Y-118398864D01*
X141083652Y-117996608D01*
X141083060Y-117990030D01*
X141064775Y-117582870D01*
X141064700Y-117579550D01*
X141064700Y-117409919D01*
X142612400Y-117409919D01*
X142612400Y-117752480D01*
X142650755Y-118092902D01*
X142726983Y-118426874D01*
X142726986Y-118426886D01*
X142840125Y-118750220D01*
X142988761Y-119058865D01*
X143171020Y-119348929D01*
X143384607Y-119616759D01*
X143417335Y-119649487D01*
X144442639Y-118624181D01*
X144619417Y-118800959D01*
X143594112Y-119826264D01*
X143626840Y-119858992D01*
X143894670Y-120072579D01*
X144184734Y-120254838D01*
X144493379Y-120403474D01*
X144816713Y-120516613D01*
X144816725Y-120516616D01*
X145150697Y-120592844D01*
X145491120Y-120631200D01*
X145833680Y-120631200D01*
X146174102Y-120592844D01*
X146508074Y-120516616D01*
X146508086Y-120516613D01*
X146831420Y-120403474D01*
X147140065Y-120254838D01*
X147430129Y-120072579D01*
X147697959Y-119858992D01*
X147730687Y-119826264D01*
X147730687Y-119826263D01*
X146705383Y-118800959D01*
X146882159Y-118624182D01*
X147907464Y-119649487D01*
X147940192Y-119616759D01*
X148153779Y-119348929D01*
X148336038Y-119058865D01*
X148484674Y-118750220D01*
X148597813Y-118426886D01*
X148597816Y-118426874D01*
X148674044Y-118092902D01*
X148712400Y-117752480D01*
X148712400Y-117409919D01*
X148674044Y-117069497D01*
X148597816Y-116735525D01*
X148597813Y-116735513D01*
X148484674Y-116412179D01*
X148336038Y-116103534D01*
X148153779Y-115813470D01*
X147940192Y-115545640D01*
X147907464Y-115512912D01*
X146882158Y-116538216D01*
X146705381Y-116361439D01*
X147730687Y-115336135D01*
X147697959Y-115303407D01*
X147430129Y-115089820D01*
X147140065Y-114907561D01*
X146831420Y-114758925D01*
X146508086Y-114645786D01*
X146508074Y-114645783D01*
X146174102Y-114569555D01*
X146066246Y-114557403D01*
X148360900Y-114557403D01*
X148373434Y-114568605D01*
X148374964Y-114570011D01*
X148392276Y-114586380D01*
X148393761Y-114587824D01*
X148444067Y-114638130D01*
X149262100Y-114638130D01*
X149262100Y-113136130D01*
X148360900Y-113136130D01*
X148360900Y-114557403D01*
X146066246Y-114557403D01*
X145833680Y-114531200D01*
X145491120Y-114531200D01*
X145150697Y-114569555D01*
X144816725Y-114645783D01*
X144816713Y-114645786D01*
X144493379Y-114758925D01*
X144184734Y-114907561D01*
X143894664Y-115089824D01*
X143626841Y-115303406D01*
X143594112Y-115336134D01*
X143594112Y-115336135D01*
X144619417Y-116361440D01*
X144442640Y-116538217D01*
X143417335Y-115512912D01*
X143384606Y-115545641D01*
X143171024Y-115813464D01*
X142988761Y-116103534D01*
X142840125Y-116412179D01*
X142726986Y-116735513D01*
X142726983Y-116735525D01*
X142650755Y-117069497D01*
X142612400Y-117409919D01*
X141064700Y-117409919D01*
X141064700Y-114246551D01*
X143360900Y-114246551D01*
X143665598Y-114055097D01*
X143667365Y-114054021D01*
X143687858Y-114041930D01*
X143689660Y-114040901D01*
X143714161Y-114027357D01*
X143715993Y-114026377D01*
X143737220Y-114015409D01*
X143739081Y-114014480D01*
X144072984Y-113853679D01*
X144074871Y-113852803D01*
X144096666Y-113843052D01*
X144098572Y-113842232D01*
X144124439Y-113831519D01*
X144126368Y-113830751D01*
X144148616Y-113822260D01*
X144150561Y-113821549D01*
X144500293Y-113699173D01*
X144502257Y-113698516D01*
X144524926Y-113691289D01*
X144526910Y-113690687D01*
X144553811Y-113682934D01*
X144555818Y-113682386D01*
X144578954Y-113676417D01*
X144580973Y-113675926D01*
X144862900Y-113611577D01*
X144862900Y-113533541D01*
X145860900Y-113533541D01*
X145873620Y-113533899D01*
X145875695Y-113533987D01*
X145903647Y-113535558D01*
X145905715Y-113535703D01*
X145929457Y-113537706D01*
X145931521Y-113537909D01*
X146299718Y-113579394D01*
X146301772Y-113579655D01*
X146325323Y-113582978D01*
X146327370Y-113583296D01*
X146354972Y-113587982D01*
X146357018Y-113588359D01*
X146380463Y-113593021D01*
X146382498Y-113593455D01*
X146743827Y-113675926D01*
X146745846Y-113676417D01*
X146768982Y-113682386D01*
X146770989Y-113682934D01*
X146797890Y-113690687D01*
X146799874Y-113691289D01*
X146822543Y-113698516D01*
X146824507Y-113699173D01*
X147174239Y-113821549D01*
X147176184Y-113822260D01*
X147198432Y-113830751D01*
X147200361Y-113831519D01*
X147226228Y-113842232D01*
X147228134Y-113843052D01*
X147249929Y-113852803D01*
X147251816Y-113853679D01*
X147362900Y-113907174D01*
X147362900Y-113136130D01*
X145860900Y-113136130D01*
X145860900Y-113533541D01*
X144862900Y-113533541D01*
X144862900Y-113136130D01*
X143360900Y-113136130D01*
X143360900Y-114246551D01*
X141064700Y-114246551D01*
X141064700Y-112204682D01*
X141035118Y-112175100D01*
X132664829Y-112175100D01*
X132659989Y-112174942D01*
X132412774Y-112158738D01*
X132403177Y-112157474D01*
X132162591Y-112109618D01*
X132153242Y-112107113D01*
X131920951Y-112028261D01*
X131912008Y-112024557D01*
X131746189Y-111942785D01*
X131691995Y-111916059D01*
X131683627Y-111911229D01*
X131479642Y-111774929D01*
X131471970Y-111769041D01*
X131429521Y-111731815D01*
X131287536Y-111607298D01*
X131280701Y-111600463D01*
X131118957Y-111416028D01*
X131113071Y-111408359D01*
X130976767Y-111204368D01*
X130971942Y-111196009D01*
X130962617Y-111177100D01*
X135860900Y-111177100D01*
X137362900Y-111177100D01*
X138360900Y-111177100D01*
X139862900Y-111177100D01*
X139862900Y-110919020D01*
X140860900Y-110919020D01*
X140860900Y-111177100D01*
X141133557Y-111177100D01*
X141147994Y-111178522D01*
X141312215Y-111211188D01*
X141326097Y-111215399D01*
X141507985Y-111290741D01*
X141520779Y-111297579D01*
X141659993Y-111390600D01*
X141671206Y-111399803D01*
X141839997Y-111568594D01*
X141849200Y-111579807D01*
X141942221Y-111719021D01*
X141949059Y-111731815D01*
X142024401Y-111913703D01*
X142028612Y-111927585D01*
X142061278Y-112091806D01*
X142062700Y-112106243D01*
X142062700Y-112138130D01*
X142362900Y-112138130D01*
X143360900Y-112138130D01*
X144862900Y-112138130D01*
X145860900Y-112138130D01*
X147362900Y-112138130D01*
X148360900Y-112138130D01*
X149262100Y-112138130D01*
X149262100Y-112121443D01*
X149263522Y-112107006D01*
X149296188Y-111942785D01*
X149300399Y-111928903D01*
X149375741Y-111747015D01*
X149382579Y-111734221D01*
X149475600Y-111595007D01*
X149484803Y-111583794D01*
X149653594Y-111415003D01*
X149664807Y-111405800D01*
X149804021Y-111312779D01*
X149816815Y-111305941D01*
X149862900Y-111286851D01*
X149862900Y-110636130D01*
X148360900Y-110636130D01*
X148360900Y-112138130D01*
X147362900Y-112138130D01*
X147362900Y-110636130D01*
X145860900Y-110636130D01*
X145860900Y-112138130D01*
X144862900Y-112138130D01*
X144862900Y-110636130D01*
X143360900Y-110636130D01*
X143360900Y-112138130D01*
X142362900Y-112138130D01*
X142362900Y-110636130D01*
X141720716Y-110636130D01*
X141579877Y-110738455D01*
X141569977Y-110744522D01*
X141408693Y-110826701D01*
X141397964Y-110831145D01*
X141225809Y-110887081D01*
X141214518Y-110889792D01*
X141035733Y-110918109D01*
X141024157Y-110919020D01*
X140860900Y-110919020D01*
X139862900Y-110919020D01*
X139862900Y-110636130D01*
X138360900Y-110636130D01*
X138360900Y-111177100D01*
X137362900Y-111177100D01*
X137362900Y-110636130D01*
X135860900Y-110636130D01*
X135860900Y-111177100D01*
X130962617Y-111177100D01*
X130863441Y-110975988D01*
X130859738Y-110967048D01*
X130780886Y-110734757D01*
X130778381Y-110725408D01*
X130774239Y-110704587D01*
X130730524Y-110484821D01*
X130729261Y-110475225D01*
X130713058Y-110228010D01*
X130712900Y-110223170D01*
X130712900Y-109638130D01*
X131710900Y-109638130D01*
X132301502Y-109638130D01*
X132301502Y-108480438D01*
X132176793Y-108408438D01*
X132172682Y-108405881D01*
X132126419Y-108374970D01*
X132122483Y-108372150D01*
X132070635Y-108332368D01*
X132066891Y-108329295D01*
X132025040Y-108292593D01*
X132021505Y-108289283D01*
X131900717Y-108168495D01*
X131897407Y-108164960D01*
X131872124Y-108136130D01*
X131710900Y-108136130D01*
X131710900Y-109638130D01*
X130712900Y-109638130D01*
X130712900Y-105484999D01*
X130910129Y-105484999D01*
X130910130Y-105485000D01*
X131329178Y-105485000D01*
X131298000Y-105560272D01*
X131298000Y-105659728D01*
X131329178Y-105735000D01*
X130910129Y-105735000D01*
X130922977Y-105799591D01*
X130922979Y-105799598D01*
X130971978Y-105917890D01*
X131043111Y-106024350D01*
X131133649Y-106114888D01*
X131240109Y-106186021D01*
X131358401Y-106235020D01*
X131358408Y-106235022D01*
X131483982Y-106260000D01*
X131723000Y-106260000D01*
X131723000Y-105860000D01*
X131973000Y-105860000D01*
X131973000Y-106260000D01*
X132212018Y-106260000D01*
X132337591Y-106235022D01*
X132337598Y-106235020D01*
X132455890Y-106186021D01*
X132562350Y-106114888D01*
X132562352Y-106114887D01*
X132652887Y-106024352D01*
X132652888Y-106024350D01*
X132724021Y-105917890D01*
X132773020Y-105799598D01*
X132773022Y-105799591D01*
X132785870Y-105735000D01*
X132366822Y-105735000D01*
X132398000Y-105659728D01*
X132398000Y-105560272D01*
X132366822Y-105485000D01*
X132785870Y-105485000D01*
X132785870Y-105484999D01*
X132773022Y-105420408D01*
X132773020Y-105420401D01*
X132724021Y-105302109D01*
X132652888Y-105195649D01*
X132562350Y-105105111D01*
X132455890Y-105033978D01*
X132337598Y-104984979D01*
X132337591Y-104984977D01*
X132212018Y-104960000D01*
X131973000Y-104960000D01*
X131973000Y-105360000D01*
X131723000Y-105360000D01*
X131723000Y-104960000D01*
X131483982Y-104960000D01*
X131358408Y-104984977D01*
X131358401Y-104984979D01*
X131240109Y-105033978D01*
X131133649Y-105105111D01*
X131133648Y-105105113D01*
X131043113Y-105195648D01*
X131043111Y-105195649D01*
X130971978Y-105302109D01*
X130922979Y-105420401D01*
X130922977Y-105420408D01*
X130910129Y-105484999D01*
X130712900Y-105484999D01*
X130712900Y-104492275D01*
X133360900Y-104492275D01*
X133375910Y-104507285D01*
X133378416Y-104509917D01*
X133398606Y-104532194D01*
X134671500Y-103259301D01*
X134671500Y-103136130D01*
X133360900Y-103136130D01*
X133360900Y-104492275D01*
X130712900Y-104492275D01*
X130712900Y-102138130D01*
X131710900Y-102138130D01*
X132362900Y-102138130D01*
X133360900Y-102138130D01*
X134671500Y-102138130D01*
X134671500Y-100636130D01*
X133360900Y-100636130D01*
X133360900Y-102138130D01*
X132362900Y-102138130D01*
X132362900Y-100636130D01*
X131710900Y-100636130D01*
X131710900Y-102138130D01*
X130712900Y-102138130D01*
X130712900Y-98278000D01*
X131710900Y-98278000D01*
X131710900Y-99638130D01*
X132362900Y-99638130D01*
X133360900Y-99638130D01*
X134733027Y-99638130D01*
X134804371Y-99465890D01*
X134807475Y-99459326D01*
X134846840Y-99385677D01*
X134850573Y-99379449D01*
X134862900Y-99360999D01*
X134862900Y-98136130D01*
X133360900Y-98136130D01*
X133360900Y-99638130D01*
X132362900Y-99638130D01*
X132362900Y-98266628D01*
X132337856Y-98270344D01*
X132334253Y-98270788D01*
X132285486Y-98275593D01*
X132281864Y-98275861D01*
X132240164Y-98277911D01*
X132236530Y-98278000D01*
X131710900Y-98278000D01*
X130712900Y-98278000D01*
X130712900Y-96504999D01*
X130910129Y-96504999D01*
X130910130Y-96505000D01*
X131329178Y-96505000D01*
X131298000Y-96580272D01*
X131298000Y-96679728D01*
X131329178Y-96755000D01*
X130910129Y-96755000D01*
X130922977Y-96819591D01*
X130922979Y-96819598D01*
X130971978Y-96937890D01*
X131043111Y-97044350D01*
X131133649Y-97134888D01*
X131240109Y-97206021D01*
X131358401Y-97255020D01*
X131358408Y-97255022D01*
X131483982Y-97280000D01*
X131723000Y-97280000D01*
X131723000Y-96880000D01*
X131973000Y-96880000D01*
X131973000Y-97280000D01*
X132212018Y-97280000D01*
X132337591Y-97255022D01*
X132337598Y-97255020D01*
X132455890Y-97206021D01*
X132562350Y-97134888D01*
X132562352Y-97134887D01*
X132652887Y-97044352D01*
X132652888Y-97044350D01*
X132724021Y-96937890D01*
X132773020Y-96819598D01*
X132773022Y-96819591D01*
X132785870Y-96755000D01*
X132366822Y-96755000D01*
X132398000Y-96679728D01*
X132398000Y-96580272D01*
X132366822Y-96505000D01*
X132785870Y-96505000D01*
X132785870Y-96504999D01*
X132773022Y-96440408D01*
X132773020Y-96440401D01*
X132724021Y-96322109D01*
X132652888Y-96215649D01*
X132562350Y-96125111D01*
X132455890Y-96053978D01*
X132337598Y-96004979D01*
X132337591Y-96004977D01*
X132212018Y-95980000D01*
X131973000Y-95980000D01*
X131973000Y-96380000D01*
X131723000Y-96380000D01*
X131723000Y-95980000D01*
X131483982Y-95980000D01*
X131358408Y-96004977D01*
X131358401Y-96004979D01*
X131240109Y-96053978D01*
X131133649Y-96125111D01*
X131133648Y-96125113D01*
X131043113Y-96215648D01*
X131043111Y-96215649D01*
X130971978Y-96322109D01*
X130922979Y-96440401D01*
X130922977Y-96440408D01*
X130910129Y-96504999D01*
X130712900Y-96504999D01*
X130712900Y-95636130D01*
X133465717Y-95636130D01*
X133466996Y-95637855D01*
X133469087Y-95640824D01*
X133567448Y-95788033D01*
X133569392Y-95791103D01*
X133590852Y-95826909D01*
X133592642Y-95830069D01*
X133615740Y-95873285D01*
X133617373Y-95876530D01*
X133635208Y-95914242D01*
X133636679Y-95917560D01*
X133704425Y-96081110D01*
X133705732Y-96084498D01*
X133719786Y-96123775D01*
X133720925Y-96127221D01*
X133735153Y-96174116D01*
X133736122Y-96177619D01*
X133746268Y-96218120D01*
X133747064Y-96221666D01*
X133808759Y-96531837D01*
X133807963Y-96564254D01*
X133791494Y-96630000D01*
X133807963Y-96695746D01*
X133808759Y-96728163D01*
X133747064Y-97038334D01*
X133746268Y-97041880D01*
X133736122Y-97082381D01*
X133735153Y-97085884D01*
X133720925Y-97132779D01*
X133719786Y-97136225D01*
X133719104Y-97138130D01*
X134862900Y-97138130D01*
X134862900Y-96864999D01*
X136860129Y-96864999D01*
X136860130Y-96865000D01*
X137279178Y-96865000D01*
X137248000Y-96940272D01*
X137248000Y-97039728D01*
X137279178Y-97115000D01*
X136860129Y-97115000D01*
X136872977Y-97179591D01*
X136872979Y-97179598D01*
X136921978Y-97297890D01*
X136993111Y-97404350D01*
X137083649Y-97494888D01*
X137190109Y-97566021D01*
X137308401Y-97615020D01*
X137308408Y-97615022D01*
X137433982Y-97640000D01*
X137673000Y-97640000D01*
X137673000Y-97240000D01*
X137923000Y-97240000D01*
X137923000Y-97640000D01*
X138162018Y-97640000D01*
X138287591Y-97615022D01*
X138287598Y-97615020D01*
X138405890Y-97566021D01*
X138413661Y-97560829D01*
X138469209Y-97549776D01*
X138516303Y-97581239D01*
X138526255Y-97603202D01*
X138558310Y-97722831D01*
X138558312Y-97722836D01*
X138627495Y-97842665D01*
X138725335Y-97940505D01*
X138845164Y-98009688D01*
X138978814Y-98045499D01*
X138978815Y-98045500D01*
X138978817Y-98045500D01*
X139117185Y-98045500D01*
X139117185Y-98045499D01*
X139250836Y-98009688D01*
X139370665Y-97940505D01*
X139468505Y-97842665D01*
X139537688Y-97722836D01*
X139573499Y-97589185D01*
X139573500Y-97589185D01*
X139573500Y-97450815D01*
X139573499Y-97450814D01*
X139568353Y-97431610D01*
X139537688Y-97317164D01*
X139468505Y-97197335D01*
X139370665Y-97099495D01*
X139250836Y-97030312D01*
X139250831Y-97030310D01*
X139117185Y-96994500D01*
X139117183Y-96994500D01*
X138978817Y-96994500D01*
X138978815Y-96994500D01*
X138845168Y-97030310D01*
X138845163Y-97030312D01*
X138725332Y-97099496D01*
X138725057Y-97099708D01*
X138724836Y-97099782D01*
X138721135Y-97101920D01*
X138720709Y-97101183D01*
X138680009Y-97115000D01*
X138316822Y-97115000D01*
X138348000Y-97039728D01*
X138348000Y-96940272D01*
X138316822Y-96865000D01*
X138735870Y-96865000D01*
X138735870Y-96864999D01*
X138723022Y-96800408D01*
X138723020Y-96800401D01*
X138674021Y-96682109D01*
X138602888Y-96575649D01*
X138512350Y-96485111D01*
X138405890Y-96413978D01*
X138287598Y-96364979D01*
X138287591Y-96364977D01*
X138162018Y-96340000D01*
X137923000Y-96340000D01*
X137923000Y-96740000D01*
X137673000Y-96740000D01*
X137673000Y-96340000D01*
X137433982Y-96340000D01*
X137308408Y-96364977D01*
X137308401Y-96364979D01*
X137190109Y-96413978D01*
X137083649Y-96485111D01*
X137083648Y-96485113D01*
X136993113Y-96575648D01*
X136993111Y-96575649D01*
X136921978Y-96682109D01*
X136872979Y-96800401D01*
X136872977Y-96800408D01*
X136860129Y-96864999D01*
X134862900Y-96864999D01*
X134862900Y-95636130D01*
X133465717Y-95636130D01*
X130712900Y-95636130D01*
X130712900Y-94258281D01*
X131710900Y-94258281D01*
X131710900Y-94638130D01*
X132362900Y-94638130D01*
X133360900Y-94638130D01*
X134862900Y-94638130D01*
X135860900Y-94638130D01*
X137362900Y-94638130D01*
X138360900Y-94638130D01*
X139862900Y-94638130D01*
X139862900Y-93274100D01*
X140860900Y-93274100D01*
X140860900Y-94474343D01*
X140903497Y-94439386D01*
X140909331Y-94435059D01*
X140990894Y-94380563D01*
X140997122Y-94376830D01*
X141070771Y-94337465D01*
X141077335Y-94334361D01*
X141260023Y-94258689D01*
X141266861Y-94256242D01*
X141346775Y-94232001D01*
X141353818Y-94230237D01*
X141450025Y-94211099D01*
X141457209Y-94210033D01*
X141540327Y-94201846D01*
X141547581Y-94201490D01*
X142362900Y-94201490D01*
X143360900Y-94201490D01*
X143648866Y-94201490D01*
X143656120Y-94201846D01*
X143739238Y-94210033D01*
X143746422Y-94211099D01*
X143842629Y-94230237D01*
X143849672Y-94232001D01*
X143929586Y-94256242D01*
X143936424Y-94258689D01*
X144119112Y-94334361D01*
X144125676Y-94337465D01*
X144199325Y-94376830D01*
X144205553Y-94380563D01*
X144287116Y-94435059D01*
X144292950Y-94439386D01*
X144357515Y-94492372D01*
X144362896Y-94497249D01*
X144412147Y-94546500D01*
X144862900Y-94546500D01*
X144862900Y-94266000D01*
X145860900Y-94266000D01*
X145991007Y-94266000D01*
X146002583Y-94266911D01*
X146181368Y-94295228D01*
X146192659Y-94297939D01*
X146364814Y-94353875D01*
X146375543Y-94358319D01*
X146536827Y-94440498D01*
X146546727Y-94446565D01*
X146693171Y-94552962D01*
X146702001Y-94560503D01*
X146779628Y-94638130D01*
X147104257Y-94638130D01*
X147162962Y-94557329D01*
X147170503Y-94548499D01*
X147298499Y-94420503D01*
X147307329Y-94412962D01*
X147362900Y-94372587D01*
X147362900Y-94152065D01*
X148360900Y-94152065D01*
X148380868Y-94155228D01*
X148392159Y-94157939D01*
X148564314Y-94213875D01*
X148575043Y-94218319D01*
X148736327Y-94300498D01*
X148746227Y-94306565D01*
X148892671Y-94412962D01*
X148901501Y-94420503D01*
X149029497Y-94548499D01*
X149037038Y-94557329D01*
X149095743Y-94638130D01*
X149862900Y-94638130D01*
X149862900Y-93496500D01*
X153360900Y-93496500D01*
X153632163Y-93496500D01*
X153634586Y-93496540D01*
X153662398Y-93497451D01*
X153664816Y-93497570D01*
X153697410Y-93499707D01*
X153699822Y-93499904D01*
X153727499Y-93502630D01*
X153729905Y-93502907D01*
X153802564Y-93512473D01*
X153804964Y-93512829D01*
X153832476Y-93517373D01*
X153834866Y-93517808D01*
X153866902Y-93524186D01*
X153869261Y-93524696D01*
X153896290Y-93531000D01*
X153898635Y-93531588D01*
X154057318Y-93574108D01*
X154059647Y-93574773D01*
X154086259Y-93582846D01*
X154088562Y-93583586D01*
X154119490Y-93594084D01*
X154121771Y-93594900D01*
X154147810Y-93604700D01*
X154150062Y-93605590D01*
X154217738Y-93633622D01*
X154219958Y-93634584D01*
X154245284Y-93646058D01*
X154247472Y-93647093D01*
X154276769Y-93661539D01*
X154278925Y-93662646D01*
X154303472Y-93675766D01*
X154305590Y-93676943D01*
X154447896Y-93759103D01*
X154449973Y-93760348D01*
X154473592Y-93775035D01*
X154475627Y-93776347D01*
X154502792Y-93794498D01*
X154504782Y-93795876D01*
X154527408Y-93812089D01*
X154529356Y-93813533D01*
X154587455Y-93858116D01*
X154589347Y-93859618D01*
X154610802Y-93877224D01*
X154612645Y-93878787D01*
X154637201Y-93900317D01*
X154638999Y-93901946D01*
X154659344Y-93920999D01*
X154661087Y-93922686D01*
X154739901Y-94001500D01*
X154862900Y-94001500D01*
X155860900Y-94001500D01*
X157362900Y-94001500D01*
X158360900Y-94001500D01*
X159155401Y-94001500D01*
X159160240Y-94001658D01*
X159215769Y-94005297D01*
X159220589Y-94005772D01*
X159285381Y-94014302D01*
X159290157Y-94015091D01*
X159344744Y-94025948D01*
X159349461Y-94027047D01*
X159514438Y-94071252D01*
X159519071Y-94072658D01*
X159571748Y-94090538D01*
X159576278Y-94092242D01*
X159636659Y-94117249D01*
X159641072Y-94119249D01*
X159691008Y-94143873D01*
X159695280Y-94146156D01*
X159843234Y-94231577D01*
X159847350Y-94234137D01*
X159862900Y-94244528D01*
X159862900Y-93299500D01*
X158360900Y-93299500D01*
X158360900Y-94001500D01*
X157362900Y-94001500D01*
X157362900Y-93299500D01*
X155860900Y-93299500D01*
X155860900Y-94001500D01*
X154862900Y-94001500D01*
X154862900Y-93299500D01*
X153360900Y-93299500D01*
X153360900Y-93496500D01*
X149862900Y-93496500D01*
X149862900Y-93210747D01*
X149802815Y-93185859D01*
X149790021Y-93179021D01*
X149725831Y-93136130D01*
X148360900Y-93136130D01*
X148360900Y-94152065D01*
X147362900Y-94152065D01*
X147362900Y-93136130D01*
X145860900Y-93136130D01*
X145860900Y-94266000D01*
X144862900Y-94266000D01*
X144862900Y-93136130D01*
X143360900Y-93136130D01*
X143360900Y-94201490D01*
X142362900Y-94201490D01*
X142362900Y-93136130D01*
X141532955Y-93136130D01*
X141506778Y-93153621D01*
X141493985Y-93160459D01*
X141312097Y-93235801D01*
X141298215Y-93240012D01*
X141133994Y-93272678D01*
X141119557Y-93274100D01*
X140860900Y-93274100D01*
X139862900Y-93274100D01*
X138360900Y-93274100D01*
X138360900Y-94638130D01*
X137362900Y-94638130D01*
X137362900Y-93274100D01*
X135860900Y-93274100D01*
X135860900Y-94638130D01*
X134862900Y-94638130D01*
X134862900Y-93274100D01*
X133360900Y-93274100D01*
X133360900Y-94638130D01*
X132362900Y-94638130D01*
X132362900Y-93326848D01*
X132299090Y-93348509D01*
X132187720Y-93403429D01*
X132084460Y-93472427D01*
X131991100Y-93554300D01*
X131909227Y-93647660D01*
X131840229Y-93750920D01*
X131785309Y-93862290D01*
X131745387Y-93979895D01*
X131721164Y-94101673D01*
X131710900Y-94258281D01*
X130712900Y-94258281D01*
X130712900Y-94228029D01*
X130713058Y-94223189D01*
X130718257Y-94143873D01*
X130729261Y-93975972D01*
X130730525Y-93966377D01*
X130739216Y-93922686D01*
X130778382Y-93725785D01*
X130780886Y-93716442D01*
X130822421Y-93594084D01*
X130859739Y-93484147D01*
X130863438Y-93475216D01*
X130971946Y-93255183D01*
X130976763Y-93246838D01*
X131113077Y-93042832D01*
X131118951Y-93035178D01*
X131280708Y-92850728D01*
X131287528Y-92843908D01*
X131471978Y-92682151D01*
X131479632Y-92676277D01*
X131683638Y-92539963D01*
X131691983Y-92535146D01*
X131912016Y-92426638D01*
X131920947Y-92422939D01*
X132153243Y-92344085D01*
X132162585Y-92341582D01*
X132403180Y-92293724D01*
X132412772Y-92292461D01*
X132659989Y-92276257D01*
X132664829Y-92276100D01*
X141021118Y-92276100D01*
X141050700Y-92246518D01*
X141050700Y-92138130D01*
X143360900Y-92138130D01*
X144862900Y-92138130D01*
X144862900Y-91628858D01*
X145860900Y-91628858D01*
X145860900Y-92138130D01*
X147362900Y-92138130D01*
X148360900Y-92138130D01*
X149248100Y-92138130D01*
X149248100Y-90636130D01*
X148360900Y-90636130D01*
X148360900Y-92138130D01*
X147362900Y-92138130D01*
X147362900Y-91255223D01*
X147251816Y-91308720D01*
X147249929Y-91309597D01*
X147228134Y-91319348D01*
X147226228Y-91320168D01*
X147200361Y-91330881D01*
X147198432Y-91331649D01*
X147176184Y-91340140D01*
X147174239Y-91340851D01*
X146824507Y-91463227D01*
X146822543Y-91463884D01*
X146799874Y-91471111D01*
X146797890Y-91471713D01*
X146770989Y-91479466D01*
X146768982Y-91480014D01*
X146745846Y-91485983D01*
X146743827Y-91486474D01*
X146382498Y-91568945D01*
X146380463Y-91569379D01*
X146357018Y-91574041D01*
X146354972Y-91574418D01*
X146327370Y-91579104D01*
X146325323Y-91579422D01*
X146301772Y-91582745D01*
X146299718Y-91583006D01*
X145931521Y-91624491D01*
X145929457Y-91624694D01*
X145905715Y-91626697D01*
X145903647Y-91626842D01*
X145875695Y-91628413D01*
X145873620Y-91628501D01*
X145860900Y-91628858D01*
X144862900Y-91628858D01*
X144862900Y-91550821D01*
X144580974Y-91486474D01*
X144578954Y-91485983D01*
X144555818Y-91480014D01*
X144553811Y-91479466D01*
X144526910Y-91471713D01*
X144524926Y-91471111D01*
X144502257Y-91463884D01*
X144500293Y-91463227D01*
X144150561Y-91340851D01*
X144148616Y-91340140D01*
X144126368Y-91331649D01*
X144124439Y-91330881D01*
X144098572Y-91320168D01*
X144096666Y-91319348D01*
X144074871Y-91309597D01*
X144072984Y-91308721D01*
X143739081Y-91147920D01*
X143737220Y-91146991D01*
X143715993Y-91136023D01*
X143714161Y-91135043D01*
X143689660Y-91121499D01*
X143687858Y-91120470D01*
X143667365Y-91108379D01*
X143665598Y-91107303D01*
X143360900Y-90915848D01*
X143360900Y-92138130D01*
X141050700Y-92138130D01*
X141050700Y-87655249D01*
X141050775Y-87651929D01*
X141053951Y-87581200D01*
X141061643Y-87409919D01*
X142612400Y-87409919D01*
X142612400Y-87752480D01*
X142650755Y-88092902D01*
X142726983Y-88426874D01*
X142726986Y-88426886D01*
X142840125Y-88750220D01*
X142988761Y-89058865D01*
X143171020Y-89348929D01*
X143384607Y-89616759D01*
X143417335Y-89649487D01*
X144442639Y-88624181D01*
X144619417Y-88800959D01*
X143594112Y-89826264D01*
X143626840Y-89858992D01*
X143894670Y-90072579D01*
X144184734Y-90254838D01*
X144493379Y-90403474D01*
X144816713Y-90516613D01*
X144816725Y-90516616D01*
X145150697Y-90592844D01*
X145491120Y-90631200D01*
X145833680Y-90631200D01*
X146174102Y-90592844D01*
X146508074Y-90516616D01*
X146508086Y-90516613D01*
X146831420Y-90403474D01*
X147140065Y-90254838D01*
X147430129Y-90072579D01*
X147697959Y-89858992D01*
X147730687Y-89826264D01*
X147730687Y-89826263D01*
X146705383Y-88800959D01*
X146882159Y-88624182D01*
X147907464Y-89649487D01*
X147940192Y-89616759D01*
X148153779Y-89348929D01*
X148336038Y-89058865D01*
X148484674Y-88750220D01*
X148597813Y-88426886D01*
X148597816Y-88426874D01*
X148674044Y-88092902D01*
X148712400Y-87752480D01*
X148712400Y-87409919D01*
X148674044Y-87069497D01*
X148597816Y-86735525D01*
X148597813Y-86735513D01*
X148484674Y-86412179D01*
X148336038Y-86103534D01*
X148153779Y-85813470D01*
X147940192Y-85545640D01*
X147907464Y-85512912D01*
X146882158Y-86538216D01*
X146705381Y-86361439D01*
X147730687Y-85336135D01*
X147697959Y-85303407D01*
X147430129Y-85089820D01*
X147140065Y-84907561D01*
X146831420Y-84758925D01*
X146508086Y-84645786D01*
X146508074Y-84645783D01*
X146174102Y-84569555D01*
X145833680Y-84531200D01*
X145491120Y-84531200D01*
X145150697Y-84569555D01*
X144816725Y-84645783D01*
X144816713Y-84645786D01*
X144493379Y-84758925D01*
X144184734Y-84907561D01*
X143894664Y-85089824D01*
X143626841Y-85303406D01*
X143594112Y-85336134D01*
X143594112Y-85336135D01*
X144619417Y-86361440D01*
X144442640Y-86538217D01*
X143417335Y-85512912D01*
X143384606Y-85545641D01*
X143171024Y-85813464D01*
X142988761Y-86103534D01*
X142840125Y-86412179D01*
X142726986Y-86735513D01*
X142726983Y-86735525D01*
X142650755Y-87069497D01*
X142612400Y-87409919D01*
X141061643Y-87409919D01*
X141069060Y-87244767D01*
X141069652Y-87238193D01*
X141124142Y-86835931D01*
X141125320Y-86829435D01*
X141215651Y-86433667D01*
X141217417Y-86427274D01*
X141240942Y-86354874D01*
X141342847Y-86041241D01*
X141345178Y-86035030D01*
X141374818Y-85965684D01*
X141504718Y-85661765D01*
X141507580Y-85655824D01*
X141699946Y-85298348D01*
X141703331Y-85292683D01*
X141926957Y-84953905D01*
X141930838Y-84948562D01*
X142183935Y-84631187D01*
X142188291Y-84626201D01*
X142468823Y-84332787D01*
X142473597Y-84328224D01*
X142779283Y-84061155D01*
X142784459Y-84057026D01*
X143112861Y-83818429D01*
X143118377Y-83814788D01*
X143466843Y-83606589D01*
X143472675Y-83603450D01*
X143838431Y-83427311D01*
X143844478Y-83424727D01*
X144224526Y-83282092D01*
X144230828Y-83280045D01*
X144622115Y-83172057D01*
X144628575Y-83170582D01*
X145027988Y-83098099D01*
X145034530Y-83097213D01*
X145438814Y-83060828D01*
X145445447Y-83060530D01*
X145851353Y-83060530D01*
X145857986Y-83060828D01*
X146262266Y-83097213D01*
X146268814Y-83098099D01*
X146668219Y-83170581D01*
X146674689Y-83172058D01*
X146957391Y-83250079D01*
X147065964Y-83280043D01*
X147072279Y-83282095D01*
X147452313Y-83424724D01*
X147458376Y-83427315D01*
X147824112Y-83603444D01*
X147829959Y-83606591D01*
X148178409Y-83814780D01*
X148183950Y-83818438D01*
X148512332Y-84057021D01*
X148517523Y-84061161D01*
X148823188Y-84328212D01*
X148827988Y-84332800D01*
X149108501Y-84626194D01*
X149112870Y-84631195D01*
X149365950Y-84948548D01*
X149369852Y-84953920D01*
X149593457Y-85292666D01*
X149596863Y-85298366D01*
X149789209Y-85655804D01*
X149792090Y-85661786D01*
X149951621Y-86035030D01*
X149953954Y-86041247D01*
X150079382Y-86427274D01*
X150081149Y-86433674D01*
X150171475Y-86829416D01*
X150172660Y-86835950D01*
X150227145Y-87238173D01*
X150227740Y-87244786D01*
X150246025Y-87651929D01*
X150246100Y-87655249D01*
X150246100Y-92230082D01*
X150246100Y-92271918D01*
X150275682Y-92301500D01*
X171035118Y-92301500D01*
X171064700Y-92271918D01*
X171064700Y-92138130D01*
X173360900Y-92138130D01*
X174862900Y-92138130D01*
X174862900Y-91628858D01*
X175860900Y-91628858D01*
X175860900Y-92138130D01*
X177362900Y-92138130D01*
X178360900Y-92138130D01*
X179262100Y-92138130D01*
X179262100Y-90636130D01*
X178360900Y-90636130D01*
X178360900Y-92138130D01*
X177362900Y-92138130D01*
X177362900Y-91255223D01*
X177251816Y-91308720D01*
X177249929Y-91309597D01*
X177228134Y-91319348D01*
X177226228Y-91320168D01*
X177200361Y-91330881D01*
X177198432Y-91331649D01*
X177176184Y-91340140D01*
X177174239Y-91340851D01*
X176824507Y-91463227D01*
X176822543Y-91463884D01*
X176799874Y-91471111D01*
X176797890Y-91471713D01*
X176770989Y-91479466D01*
X176768982Y-91480014D01*
X176745846Y-91485983D01*
X176743827Y-91486474D01*
X176382498Y-91568945D01*
X176380463Y-91569379D01*
X176357018Y-91574041D01*
X176354972Y-91574418D01*
X176327370Y-91579104D01*
X176325323Y-91579422D01*
X176301772Y-91582745D01*
X176299718Y-91583006D01*
X175931521Y-91624491D01*
X175929457Y-91624694D01*
X175905715Y-91626697D01*
X175903647Y-91626842D01*
X175875695Y-91628413D01*
X175873620Y-91628501D01*
X175860900Y-91628858D01*
X174862900Y-91628858D01*
X174862900Y-91550821D01*
X174580974Y-91486474D01*
X174578954Y-91485983D01*
X174555818Y-91480014D01*
X174553811Y-91479466D01*
X174526910Y-91471713D01*
X174524926Y-91471111D01*
X174502257Y-91463884D01*
X174500293Y-91463227D01*
X174150561Y-91340851D01*
X174148616Y-91340140D01*
X174126368Y-91331649D01*
X174124439Y-91330881D01*
X174098572Y-91320168D01*
X174096666Y-91319348D01*
X174074871Y-91309597D01*
X174072984Y-91308721D01*
X173739081Y-91147920D01*
X173737220Y-91146991D01*
X173715993Y-91136023D01*
X173714161Y-91135043D01*
X173689660Y-91121499D01*
X173687858Y-91120470D01*
X173667365Y-91108379D01*
X173665598Y-91107303D01*
X173360900Y-90915848D01*
X173360900Y-92138130D01*
X171064700Y-92138130D01*
X171064700Y-87582849D01*
X171064775Y-87579529D01*
X171072392Y-87409919D01*
X172612400Y-87409919D01*
X172612400Y-87752480D01*
X172650755Y-88092902D01*
X172726983Y-88426874D01*
X172726986Y-88426886D01*
X172840125Y-88750220D01*
X172988761Y-89058865D01*
X173171020Y-89348929D01*
X173384607Y-89616759D01*
X173417335Y-89649487D01*
X174442639Y-88624181D01*
X174619417Y-88800959D01*
X173594112Y-89826264D01*
X173626840Y-89858992D01*
X173894670Y-90072579D01*
X174184734Y-90254838D01*
X174493379Y-90403474D01*
X174816713Y-90516613D01*
X174816725Y-90516616D01*
X175150697Y-90592844D01*
X175491120Y-90631200D01*
X175833680Y-90631200D01*
X176174102Y-90592844D01*
X176508074Y-90516616D01*
X176508086Y-90516613D01*
X176831420Y-90403474D01*
X177140065Y-90254838D01*
X177430129Y-90072579D01*
X177697959Y-89858992D01*
X177730687Y-89826264D01*
X177730687Y-89826263D01*
X176705383Y-88800959D01*
X176882159Y-88624182D01*
X177907464Y-89649487D01*
X177940192Y-89616759D01*
X178153779Y-89348929D01*
X178336038Y-89058865D01*
X178484674Y-88750220D01*
X178597813Y-88426886D01*
X178597816Y-88426874D01*
X178674044Y-88092902D01*
X178712400Y-87752480D01*
X178712400Y-87409919D01*
X178674044Y-87069497D01*
X178597816Y-86735525D01*
X178597813Y-86735513D01*
X178484674Y-86412179D01*
X178336038Y-86103534D01*
X178153779Y-85813470D01*
X177940192Y-85545640D01*
X177907464Y-85512912D01*
X176882158Y-86538216D01*
X176705381Y-86361439D01*
X177730687Y-85336135D01*
X177697959Y-85303407D01*
X177430129Y-85089820D01*
X177140065Y-84907561D01*
X176831420Y-84758925D01*
X176508086Y-84645786D01*
X176508074Y-84645783D01*
X176174102Y-84569555D01*
X175833680Y-84531200D01*
X175491120Y-84531200D01*
X175150697Y-84569555D01*
X174816725Y-84645783D01*
X174816713Y-84645786D01*
X174493379Y-84758925D01*
X174184734Y-84907561D01*
X173894664Y-85089824D01*
X173626841Y-85303406D01*
X173594112Y-85336134D01*
X173594112Y-85336135D01*
X174619417Y-86361440D01*
X174442640Y-86538217D01*
X173417335Y-85512912D01*
X173384606Y-85545641D01*
X173171024Y-85813464D01*
X172988761Y-86103534D01*
X172840125Y-86412179D01*
X172726986Y-86735513D01*
X172726983Y-86735525D01*
X172650755Y-87069497D01*
X172612400Y-87409919D01*
X171072392Y-87409919D01*
X171072639Y-87404422D01*
X171083060Y-87172367D01*
X171083652Y-87165793D01*
X171138142Y-86763531D01*
X171139320Y-86757035D01*
X171229651Y-86361267D01*
X171231417Y-86354874D01*
X171281688Y-86200158D01*
X171356847Y-85968841D01*
X171359178Y-85962630D01*
X171422932Y-85813470D01*
X171518718Y-85589365D01*
X171521580Y-85583424D01*
X171713946Y-85225948D01*
X171717331Y-85220283D01*
X171940957Y-84881505D01*
X171944838Y-84876162D01*
X172197935Y-84558787D01*
X172202291Y-84553801D01*
X172482823Y-84260387D01*
X172487597Y-84255824D01*
X172793283Y-83988755D01*
X172798459Y-83984626D01*
X173126861Y-83746029D01*
X173132377Y-83742388D01*
X173480843Y-83534189D01*
X173486675Y-83531050D01*
X173852431Y-83354911D01*
X173858478Y-83352327D01*
X174238526Y-83209692D01*
X174244828Y-83207645D01*
X174636115Y-83099657D01*
X174642575Y-83098182D01*
X175041988Y-83025699D01*
X175048530Y-83024813D01*
X175452814Y-82988428D01*
X175459447Y-82988130D01*
X175865353Y-82988130D01*
X175871986Y-82988428D01*
G37*
G04 #@! TD.AperFunction*
G04 #@! TA.AperFunction,Conductor*
G36*
X162368913Y-105472174D02*
G01*
X162390587Y-105524500D01*
X162368913Y-105576826D01*
X160942913Y-107002826D01*
X160890587Y-107024500D01*
X160822271Y-107024500D01*
X160720417Y-107051791D01*
X160720408Y-107051795D01*
X160629086Y-107104520D01*
X160580781Y-107152826D01*
X160528455Y-107174500D01*
X158999572Y-107174500D01*
X158907505Y-107212634D01*
X158907501Y-107212637D01*
X156078874Y-110041263D01*
X156026548Y-110062937D01*
X155998230Y-110057304D01*
X155867870Y-110003307D01*
X155867860Y-110003304D01*
X155751356Y-109980130D01*
X155693891Y-109968700D01*
X155516509Y-109968700D01*
X155467189Y-109978510D01*
X155342539Y-110003304D01*
X155342529Y-110003307D01*
X155178655Y-110071185D01*
X155031168Y-110169733D01*
X154905733Y-110295168D01*
X154807185Y-110442655D01*
X154739307Y-110606529D01*
X154739304Y-110606539D01*
X154713801Y-110734757D01*
X154704700Y-110780509D01*
X154704700Y-110957891D01*
X154716130Y-111015356D01*
X154739304Y-111131860D01*
X154739307Y-111131870D01*
X154807185Y-111295744D01*
X154880722Y-111405800D01*
X154905736Y-111443235D01*
X155031165Y-111568664D01*
X155155244Y-111651571D01*
X155186710Y-111698663D01*
X155175661Y-111754212D01*
X155128569Y-111785678D01*
X155114132Y-111787100D01*
X154495013Y-111787100D01*
X154442687Y-111765426D01*
X151949514Y-109272253D01*
X153360900Y-109272253D01*
X153551818Y-109463171D01*
X153622917Y-109451911D01*
X153634493Y-109451000D01*
X153815507Y-109451000D01*
X153827083Y-109451911D01*
X154005868Y-109480228D01*
X154017159Y-109482939D01*
X154189314Y-109538875D01*
X154200042Y-109543318D01*
X154230618Y-109558897D01*
X154342785Y-109446731D01*
X154345414Y-109444228D01*
X154376309Y-109416225D01*
X154379055Y-109413856D01*
X154416932Y-109382765D01*
X154419799Y-109380527D01*
X154453346Y-109355645D01*
X154456318Y-109353552D01*
X154644561Y-109227772D01*
X154647627Y-109225830D01*
X154683415Y-109204378D01*
X154686577Y-109202587D01*
X154729796Y-109179485D01*
X154733041Y-109177852D01*
X154770777Y-109160004D01*
X154774097Y-109158532D01*
X154862900Y-109121748D01*
X154862900Y-108136130D01*
X153360900Y-108136130D01*
X153360900Y-109272253D01*
X151949514Y-109272253D01*
X151493610Y-108816349D01*
X151471936Y-108764023D01*
X151471936Y-107138130D01*
X153360900Y-107138130D01*
X154862900Y-107138130D01*
X155860900Y-107138130D01*
X157362900Y-107138130D01*
X157362900Y-106448500D01*
X155860900Y-106448500D01*
X155860900Y-107138130D01*
X154862900Y-107138130D01*
X154862900Y-106448500D01*
X153360900Y-106448500D01*
X153360900Y-107138130D01*
X151471936Y-107138130D01*
X151471936Y-105966979D01*
X151493610Y-105914653D01*
X151545936Y-105892979D01*
X151598262Y-105914653D01*
X151654087Y-105970478D01*
X151745413Y-106023205D01*
X151847270Y-106050497D01*
X151847271Y-106050498D01*
X151847273Y-106050498D01*
X151952729Y-106050498D01*
X151952729Y-106050497D01*
X152054587Y-106023205D01*
X152145913Y-105970478D01*
X152220480Y-105895911D01*
X152273207Y-105804585D01*
X152300499Y-105702727D01*
X152300500Y-105702727D01*
X152300500Y-105634411D01*
X152322174Y-105582085D01*
X152432085Y-105472174D01*
X152484411Y-105450500D01*
X162316587Y-105450500D01*
X162368913Y-105472174D01*
G37*
G04 #@! TD.AperFunction*
M02*
