G04 #@! TF.GenerationSoftware,KiCad,Pcbnew,9.0.0*
G04 #@! TF.CreationDate,2025-03-05T10:53:25-06:00*
G04 #@! TF.ProjectId,entree,656e7472-6565-42e6-9b69-6361645f7063,2*
G04 #@! TF.SameCoordinates,Original*
G04 #@! TF.FileFunction,AssemblyDrawing,Bot*
%FSLAX46Y46*%
G04 Gerber Fmt 4.6, Leading zero omitted, Abs format (unit mm)*
G04 Created by KiCad (PCBNEW 9.0.0) date 2025-03-05 10:53:25*
%MOMM*%
%LPD*%
G01*
G04 APERTURE LIST*
%ADD10C,0.150000*%
G04 APERTURE END LIST*
D10*
X166970019Y-107535866D02*
X166970019Y-108107294D01*
X167970019Y-107821580D02*
X166970019Y-107821580D01*
X167922400Y-108821580D02*
X167970019Y-108726342D01*
X167970019Y-108726342D02*
X167970019Y-108535866D01*
X167970019Y-108535866D02*
X167922400Y-108440628D01*
X167922400Y-108440628D02*
X167827161Y-108393009D01*
X167827161Y-108393009D02*
X167446209Y-108393009D01*
X167446209Y-108393009D02*
X167350971Y-108440628D01*
X167350971Y-108440628D02*
X167303352Y-108535866D01*
X167303352Y-108535866D02*
X167303352Y-108726342D01*
X167303352Y-108726342D02*
X167350971Y-108821580D01*
X167350971Y-108821580D02*
X167446209Y-108869199D01*
X167446209Y-108869199D02*
X167541447Y-108869199D01*
X167541447Y-108869199D02*
X167636685Y-108393009D01*
X167922400Y-109250152D02*
X167970019Y-109345390D01*
X167970019Y-109345390D02*
X167970019Y-109535866D01*
X167970019Y-109535866D02*
X167922400Y-109631104D01*
X167922400Y-109631104D02*
X167827161Y-109678723D01*
X167827161Y-109678723D02*
X167779542Y-109678723D01*
X167779542Y-109678723D02*
X167684304Y-109631104D01*
X167684304Y-109631104D02*
X167636685Y-109535866D01*
X167636685Y-109535866D02*
X167636685Y-109393009D01*
X167636685Y-109393009D02*
X167589066Y-109297771D01*
X167589066Y-109297771D02*
X167493828Y-109250152D01*
X167493828Y-109250152D02*
X167446209Y-109250152D01*
X167446209Y-109250152D02*
X167350971Y-109297771D01*
X167350971Y-109297771D02*
X167303352Y-109393009D01*
X167303352Y-109393009D02*
X167303352Y-109535866D01*
X167303352Y-109535866D02*
X167350971Y-109631104D01*
X167303352Y-109964438D02*
X167303352Y-110345390D01*
X166970019Y-110107295D02*
X167827161Y-110107295D01*
X167827161Y-110107295D02*
X167922400Y-110154914D01*
X167922400Y-110154914D02*
X167970019Y-110250152D01*
X167970019Y-110250152D02*
X167970019Y-110345390D01*
X167970019Y-110678724D02*
X166970019Y-110678724D01*
X166970019Y-110678724D02*
X166970019Y-111059676D01*
X166970019Y-111059676D02*
X167017638Y-111154914D01*
X167017638Y-111154914D02*
X167065257Y-111202533D01*
X167065257Y-111202533D02*
X167160495Y-111250152D01*
X167160495Y-111250152D02*
X167303352Y-111250152D01*
X167303352Y-111250152D02*
X167398590Y-111202533D01*
X167398590Y-111202533D02*
X167446209Y-111154914D01*
X167446209Y-111154914D02*
X167493828Y-111059676D01*
X167493828Y-111059676D02*
X167493828Y-110678724D01*
X167970019Y-111821581D02*
X167922400Y-111726343D01*
X167922400Y-111726343D02*
X167874780Y-111678724D01*
X167874780Y-111678724D02*
X167779542Y-111631105D01*
X167779542Y-111631105D02*
X167493828Y-111631105D01*
X167493828Y-111631105D02*
X167398590Y-111678724D01*
X167398590Y-111678724D02*
X167350971Y-111726343D01*
X167350971Y-111726343D02*
X167303352Y-111821581D01*
X167303352Y-111821581D02*
X167303352Y-111964438D01*
X167303352Y-111964438D02*
X167350971Y-112059676D01*
X167350971Y-112059676D02*
X167398590Y-112107295D01*
X167398590Y-112107295D02*
X167493828Y-112154914D01*
X167493828Y-112154914D02*
X167779542Y-112154914D01*
X167779542Y-112154914D02*
X167874780Y-112107295D01*
X167874780Y-112107295D02*
X167922400Y-112059676D01*
X167922400Y-112059676D02*
X167970019Y-111964438D01*
X167970019Y-111964438D02*
X167970019Y-111821581D01*
X167970019Y-112583486D02*
X167303352Y-112583486D01*
X166970019Y-112583486D02*
X167017638Y-112535867D01*
X167017638Y-112535867D02*
X167065257Y-112583486D01*
X167065257Y-112583486D02*
X167017638Y-112631105D01*
X167017638Y-112631105D02*
X166970019Y-112583486D01*
X166970019Y-112583486D02*
X167065257Y-112583486D01*
X167303352Y-113059676D02*
X167970019Y-113059676D01*
X167398590Y-113059676D02*
X167350971Y-113107295D01*
X167350971Y-113107295D02*
X167303352Y-113202533D01*
X167303352Y-113202533D02*
X167303352Y-113345390D01*
X167303352Y-113345390D02*
X167350971Y-113440628D01*
X167350971Y-113440628D02*
X167446209Y-113488247D01*
X167446209Y-113488247D02*
X167970019Y-113488247D01*
X167303352Y-113821581D02*
X167303352Y-114202533D01*
X166970019Y-113964438D02*
X167827161Y-113964438D01*
X167827161Y-113964438D02*
X167922400Y-114012057D01*
X167922400Y-114012057D02*
X167970019Y-114107295D01*
X167970019Y-114107295D02*
X167970019Y-114202533D01*
X163570019Y-109131105D02*
X163570019Y-109702533D01*
X164570019Y-109416819D02*
X163570019Y-109416819D01*
X164570019Y-110035867D02*
X163570019Y-110035867D01*
X163570019Y-110035867D02*
X163570019Y-110416819D01*
X163570019Y-110416819D02*
X163617638Y-110512057D01*
X163617638Y-110512057D02*
X163665257Y-110559676D01*
X163665257Y-110559676D02*
X163760495Y-110607295D01*
X163760495Y-110607295D02*
X163903352Y-110607295D01*
X163903352Y-110607295D02*
X163998590Y-110559676D01*
X163998590Y-110559676D02*
X164046209Y-110512057D01*
X164046209Y-110512057D02*
X164093828Y-110416819D01*
X164093828Y-110416819D02*
X164093828Y-110035867D01*
X164570019Y-111559676D02*
X164570019Y-110988248D01*
X164570019Y-111273962D02*
X163570019Y-111273962D01*
X163570019Y-111273962D02*
X163712876Y-111178724D01*
X163712876Y-111178724D02*
X163808114Y-111083486D01*
X163808114Y-111083486D02*
X163855733Y-110988248D01*
X163570019Y-112464438D02*
X163570019Y-111988248D01*
X163570019Y-111988248D02*
X164046209Y-111940629D01*
X164046209Y-111940629D02*
X163998590Y-111988248D01*
X163998590Y-111988248D02*
X163950971Y-112083486D01*
X163950971Y-112083486D02*
X163950971Y-112321581D01*
X163950971Y-112321581D02*
X163998590Y-112416819D01*
X163998590Y-112416819D02*
X164046209Y-112464438D01*
X164046209Y-112464438D02*
X164141447Y-112512057D01*
X164141447Y-112512057D02*
X164379542Y-112512057D01*
X164379542Y-112512057D02*
X164474780Y-112464438D01*
X164474780Y-112464438D02*
X164522400Y-112416819D01*
X164522400Y-112416819D02*
X164570019Y-112321581D01*
X164570019Y-112321581D02*
X164570019Y-112083486D01*
X164570019Y-112083486D02*
X164522400Y-111988248D01*
X164522400Y-111988248D02*
X164474780Y-111940629D01*
X164430019Y-107535866D02*
X164430019Y-108107294D01*
X165430019Y-107821580D02*
X164430019Y-107821580D01*
X165382400Y-108821580D02*
X165430019Y-108726342D01*
X165430019Y-108726342D02*
X165430019Y-108535866D01*
X165430019Y-108535866D02*
X165382400Y-108440628D01*
X165382400Y-108440628D02*
X165287161Y-108393009D01*
X165287161Y-108393009D02*
X164906209Y-108393009D01*
X164906209Y-108393009D02*
X164810971Y-108440628D01*
X164810971Y-108440628D02*
X164763352Y-108535866D01*
X164763352Y-108535866D02*
X164763352Y-108726342D01*
X164763352Y-108726342D02*
X164810971Y-108821580D01*
X164810971Y-108821580D02*
X164906209Y-108869199D01*
X164906209Y-108869199D02*
X165001447Y-108869199D01*
X165001447Y-108869199D02*
X165096685Y-108393009D01*
X165382400Y-109250152D02*
X165430019Y-109345390D01*
X165430019Y-109345390D02*
X165430019Y-109535866D01*
X165430019Y-109535866D02*
X165382400Y-109631104D01*
X165382400Y-109631104D02*
X165287161Y-109678723D01*
X165287161Y-109678723D02*
X165239542Y-109678723D01*
X165239542Y-109678723D02*
X165144304Y-109631104D01*
X165144304Y-109631104D02*
X165096685Y-109535866D01*
X165096685Y-109535866D02*
X165096685Y-109393009D01*
X165096685Y-109393009D02*
X165049066Y-109297771D01*
X165049066Y-109297771D02*
X164953828Y-109250152D01*
X164953828Y-109250152D02*
X164906209Y-109250152D01*
X164906209Y-109250152D02*
X164810971Y-109297771D01*
X164810971Y-109297771D02*
X164763352Y-109393009D01*
X164763352Y-109393009D02*
X164763352Y-109535866D01*
X164763352Y-109535866D02*
X164810971Y-109631104D01*
X164763352Y-109964438D02*
X164763352Y-110345390D01*
X164430019Y-110107295D02*
X165287161Y-110107295D01*
X165287161Y-110107295D02*
X165382400Y-110154914D01*
X165382400Y-110154914D02*
X165430019Y-110250152D01*
X165430019Y-110250152D02*
X165430019Y-110345390D01*
X165430019Y-110678724D02*
X164430019Y-110678724D01*
X164430019Y-110678724D02*
X164430019Y-111059676D01*
X164430019Y-111059676D02*
X164477638Y-111154914D01*
X164477638Y-111154914D02*
X164525257Y-111202533D01*
X164525257Y-111202533D02*
X164620495Y-111250152D01*
X164620495Y-111250152D02*
X164763352Y-111250152D01*
X164763352Y-111250152D02*
X164858590Y-111202533D01*
X164858590Y-111202533D02*
X164906209Y-111154914D01*
X164906209Y-111154914D02*
X164953828Y-111059676D01*
X164953828Y-111059676D02*
X164953828Y-110678724D01*
X165430019Y-111821581D02*
X165382400Y-111726343D01*
X165382400Y-111726343D02*
X165334780Y-111678724D01*
X165334780Y-111678724D02*
X165239542Y-111631105D01*
X165239542Y-111631105D02*
X164953828Y-111631105D01*
X164953828Y-111631105D02*
X164858590Y-111678724D01*
X164858590Y-111678724D02*
X164810971Y-111726343D01*
X164810971Y-111726343D02*
X164763352Y-111821581D01*
X164763352Y-111821581D02*
X164763352Y-111964438D01*
X164763352Y-111964438D02*
X164810971Y-112059676D01*
X164810971Y-112059676D02*
X164858590Y-112107295D01*
X164858590Y-112107295D02*
X164953828Y-112154914D01*
X164953828Y-112154914D02*
X165239542Y-112154914D01*
X165239542Y-112154914D02*
X165334780Y-112107295D01*
X165334780Y-112107295D02*
X165382400Y-112059676D01*
X165382400Y-112059676D02*
X165430019Y-111964438D01*
X165430019Y-111964438D02*
X165430019Y-111821581D01*
X165430019Y-112583486D02*
X164763352Y-112583486D01*
X164430019Y-112583486D02*
X164477638Y-112535867D01*
X164477638Y-112535867D02*
X164525257Y-112583486D01*
X164525257Y-112583486D02*
X164477638Y-112631105D01*
X164477638Y-112631105D02*
X164430019Y-112583486D01*
X164430019Y-112583486D02*
X164525257Y-112583486D01*
X164763352Y-113059676D02*
X165430019Y-113059676D01*
X164858590Y-113059676D02*
X164810971Y-113107295D01*
X164810971Y-113107295D02*
X164763352Y-113202533D01*
X164763352Y-113202533D02*
X164763352Y-113345390D01*
X164763352Y-113345390D02*
X164810971Y-113440628D01*
X164810971Y-113440628D02*
X164906209Y-113488247D01*
X164906209Y-113488247D02*
X165430019Y-113488247D01*
X164763352Y-113821581D02*
X164763352Y-114202533D01*
X164430019Y-113964438D02*
X165287161Y-113964438D01*
X165287161Y-113964438D02*
X165382400Y-114012057D01*
X165382400Y-114012057D02*
X165430019Y-114107295D01*
X165430019Y-114107295D02*
X165430019Y-114202533D01*
X161030019Y-109131105D02*
X161030019Y-109702533D01*
X162030019Y-109416819D02*
X161030019Y-109416819D01*
X162030019Y-110035867D02*
X161030019Y-110035867D01*
X161030019Y-110035867D02*
X161030019Y-110416819D01*
X161030019Y-110416819D02*
X161077638Y-110512057D01*
X161077638Y-110512057D02*
X161125257Y-110559676D01*
X161125257Y-110559676D02*
X161220495Y-110607295D01*
X161220495Y-110607295D02*
X161363352Y-110607295D01*
X161363352Y-110607295D02*
X161458590Y-110559676D01*
X161458590Y-110559676D02*
X161506209Y-110512057D01*
X161506209Y-110512057D02*
X161553828Y-110416819D01*
X161553828Y-110416819D02*
X161553828Y-110035867D01*
X162030019Y-111559676D02*
X162030019Y-110988248D01*
X162030019Y-111273962D02*
X161030019Y-111273962D01*
X161030019Y-111273962D02*
X161172876Y-111178724D01*
X161172876Y-111178724D02*
X161268114Y-111083486D01*
X161268114Y-111083486D02*
X161315733Y-110988248D01*
X161363352Y-112416819D02*
X162030019Y-112416819D01*
X160982400Y-112178724D02*
X161696685Y-111940629D01*
X161696685Y-111940629D02*
X161696685Y-112559676D01*
X161890019Y-107535866D02*
X161890019Y-108107294D01*
X162890019Y-107821580D02*
X161890019Y-107821580D01*
X162842400Y-108821580D02*
X162890019Y-108726342D01*
X162890019Y-108726342D02*
X162890019Y-108535866D01*
X162890019Y-108535866D02*
X162842400Y-108440628D01*
X162842400Y-108440628D02*
X162747161Y-108393009D01*
X162747161Y-108393009D02*
X162366209Y-108393009D01*
X162366209Y-108393009D02*
X162270971Y-108440628D01*
X162270971Y-108440628D02*
X162223352Y-108535866D01*
X162223352Y-108535866D02*
X162223352Y-108726342D01*
X162223352Y-108726342D02*
X162270971Y-108821580D01*
X162270971Y-108821580D02*
X162366209Y-108869199D01*
X162366209Y-108869199D02*
X162461447Y-108869199D01*
X162461447Y-108869199D02*
X162556685Y-108393009D01*
X162842400Y-109250152D02*
X162890019Y-109345390D01*
X162890019Y-109345390D02*
X162890019Y-109535866D01*
X162890019Y-109535866D02*
X162842400Y-109631104D01*
X162842400Y-109631104D02*
X162747161Y-109678723D01*
X162747161Y-109678723D02*
X162699542Y-109678723D01*
X162699542Y-109678723D02*
X162604304Y-109631104D01*
X162604304Y-109631104D02*
X162556685Y-109535866D01*
X162556685Y-109535866D02*
X162556685Y-109393009D01*
X162556685Y-109393009D02*
X162509066Y-109297771D01*
X162509066Y-109297771D02*
X162413828Y-109250152D01*
X162413828Y-109250152D02*
X162366209Y-109250152D01*
X162366209Y-109250152D02*
X162270971Y-109297771D01*
X162270971Y-109297771D02*
X162223352Y-109393009D01*
X162223352Y-109393009D02*
X162223352Y-109535866D01*
X162223352Y-109535866D02*
X162270971Y-109631104D01*
X162223352Y-109964438D02*
X162223352Y-110345390D01*
X161890019Y-110107295D02*
X162747161Y-110107295D01*
X162747161Y-110107295D02*
X162842400Y-110154914D01*
X162842400Y-110154914D02*
X162890019Y-110250152D01*
X162890019Y-110250152D02*
X162890019Y-110345390D01*
X162890019Y-110678724D02*
X161890019Y-110678724D01*
X161890019Y-110678724D02*
X161890019Y-111059676D01*
X161890019Y-111059676D02*
X161937638Y-111154914D01*
X161937638Y-111154914D02*
X161985257Y-111202533D01*
X161985257Y-111202533D02*
X162080495Y-111250152D01*
X162080495Y-111250152D02*
X162223352Y-111250152D01*
X162223352Y-111250152D02*
X162318590Y-111202533D01*
X162318590Y-111202533D02*
X162366209Y-111154914D01*
X162366209Y-111154914D02*
X162413828Y-111059676D01*
X162413828Y-111059676D02*
X162413828Y-110678724D01*
X162890019Y-111821581D02*
X162842400Y-111726343D01*
X162842400Y-111726343D02*
X162794780Y-111678724D01*
X162794780Y-111678724D02*
X162699542Y-111631105D01*
X162699542Y-111631105D02*
X162413828Y-111631105D01*
X162413828Y-111631105D02*
X162318590Y-111678724D01*
X162318590Y-111678724D02*
X162270971Y-111726343D01*
X162270971Y-111726343D02*
X162223352Y-111821581D01*
X162223352Y-111821581D02*
X162223352Y-111964438D01*
X162223352Y-111964438D02*
X162270971Y-112059676D01*
X162270971Y-112059676D02*
X162318590Y-112107295D01*
X162318590Y-112107295D02*
X162413828Y-112154914D01*
X162413828Y-112154914D02*
X162699542Y-112154914D01*
X162699542Y-112154914D02*
X162794780Y-112107295D01*
X162794780Y-112107295D02*
X162842400Y-112059676D01*
X162842400Y-112059676D02*
X162890019Y-111964438D01*
X162890019Y-111964438D02*
X162890019Y-111821581D01*
X162890019Y-112583486D02*
X162223352Y-112583486D01*
X161890019Y-112583486D02*
X161937638Y-112535867D01*
X161937638Y-112535867D02*
X161985257Y-112583486D01*
X161985257Y-112583486D02*
X161937638Y-112631105D01*
X161937638Y-112631105D02*
X161890019Y-112583486D01*
X161890019Y-112583486D02*
X161985257Y-112583486D01*
X162223352Y-113059676D02*
X162890019Y-113059676D01*
X162318590Y-113059676D02*
X162270971Y-113107295D01*
X162270971Y-113107295D02*
X162223352Y-113202533D01*
X162223352Y-113202533D02*
X162223352Y-113345390D01*
X162223352Y-113345390D02*
X162270971Y-113440628D01*
X162270971Y-113440628D02*
X162366209Y-113488247D01*
X162366209Y-113488247D02*
X162890019Y-113488247D01*
X162223352Y-113821581D02*
X162223352Y-114202533D01*
X161890019Y-113964438D02*
X162747161Y-113964438D01*
X162747161Y-113964438D02*
X162842400Y-114012057D01*
X162842400Y-114012057D02*
X162890019Y-114107295D01*
X162890019Y-114107295D02*
X162890019Y-114202533D01*
X158490019Y-109131105D02*
X158490019Y-109702533D01*
X159490019Y-109416819D02*
X158490019Y-109416819D01*
X159490019Y-110035867D02*
X158490019Y-110035867D01*
X158490019Y-110035867D02*
X158490019Y-110416819D01*
X158490019Y-110416819D02*
X158537638Y-110512057D01*
X158537638Y-110512057D02*
X158585257Y-110559676D01*
X158585257Y-110559676D02*
X158680495Y-110607295D01*
X158680495Y-110607295D02*
X158823352Y-110607295D01*
X158823352Y-110607295D02*
X158918590Y-110559676D01*
X158918590Y-110559676D02*
X158966209Y-110512057D01*
X158966209Y-110512057D02*
X159013828Y-110416819D01*
X159013828Y-110416819D02*
X159013828Y-110035867D01*
X159490019Y-111559676D02*
X159490019Y-110988248D01*
X159490019Y-111273962D02*
X158490019Y-111273962D01*
X158490019Y-111273962D02*
X158632876Y-111178724D01*
X158632876Y-111178724D02*
X158728114Y-111083486D01*
X158728114Y-111083486D02*
X158775733Y-110988248D01*
X158490019Y-111893010D02*
X158490019Y-112512057D01*
X158490019Y-112512057D02*
X158870971Y-112178724D01*
X158870971Y-112178724D02*
X158870971Y-112321581D01*
X158870971Y-112321581D02*
X158918590Y-112416819D01*
X158918590Y-112416819D02*
X158966209Y-112464438D01*
X158966209Y-112464438D02*
X159061447Y-112512057D01*
X159061447Y-112512057D02*
X159299542Y-112512057D01*
X159299542Y-112512057D02*
X159394780Y-112464438D01*
X159394780Y-112464438D02*
X159442400Y-112416819D01*
X159442400Y-112416819D02*
X159490019Y-112321581D01*
X159490019Y-112321581D02*
X159490019Y-112035867D01*
X159490019Y-112035867D02*
X159442400Y-111940629D01*
X159442400Y-111940629D02*
X159394780Y-111893010D01*
X159350019Y-107535866D02*
X159350019Y-108107294D01*
X160350019Y-107821580D02*
X159350019Y-107821580D01*
X160302400Y-108821580D02*
X160350019Y-108726342D01*
X160350019Y-108726342D02*
X160350019Y-108535866D01*
X160350019Y-108535866D02*
X160302400Y-108440628D01*
X160302400Y-108440628D02*
X160207161Y-108393009D01*
X160207161Y-108393009D02*
X159826209Y-108393009D01*
X159826209Y-108393009D02*
X159730971Y-108440628D01*
X159730971Y-108440628D02*
X159683352Y-108535866D01*
X159683352Y-108535866D02*
X159683352Y-108726342D01*
X159683352Y-108726342D02*
X159730971Y-108821580D01*
X159730971Y-108821580D02*
X159826209Y-108869199D01*
X159826209Y-108869199D02*
X159921447Y-108869199D01*
X159921447Y-108869199D02*
X160016685Y-108393009D01*
X160302400Y-109250152D02*
X160350019Y-109345390D01*
X160350019Y-109345390D02*
X160350019Y-109535866D01*
X160350019Y-109535866D02*
X160302400Y-109631104D01*
X160302400Y-109631104D02*
X160207161Y-109678723D01*
X160207161Y-109678723D02*
X160159542Y-109678723D01*
X160159542Y-109678723D02*
X160064304Y-109631104D01*
X160064304Y-109631104D02*
X160016685Y-109535866D01*
X160016685Y-109535866D02*
X160016685Y-109393009D01*
X160016685Y-109393009D02*
X159969066Y-109297771D01*
X159969066Y-109297771D02*
X159873828Y-109250152D01*
X159873828Y-109250152D02*
X159826209Y-109250152D01*
X159826209Y-109250152D02*
X159730971Y-109297771D01*
X159730971Y-109297771D02*
X159683352Y-109393009D01*
X159683352Y-109393009D02*
X159683352Y-109535866D01*
X159683352Y-109535866D02*
X159730971Y-109631104D01*
X159683352Y-109964438D02*
X159683352Y-110345390D01*
X159350019Y-110107295D02*
X160207161Y-110107295D01*
X160207161Y-110107295D02*
X160302400Y-110154914D01*
X160302400Y-110154914D02*
X160350019Y-110250152D01*
X160350019Y-110250152D02*
X160350019Y-110345390D01*
X160350019Y-110678724D02*
X159350019Y-110678724D01*
X159350019Y-110678724D02*
X159350019Y-111059676D01*
X159350019Y-111059676D02*
X159397638Y-111154914D01*
X159397638Y-111154914D02*
X159445257Y-111202533D01*
X159445257Y-111202533D02*
X159540495Y-111250152D01*
X159540495Y-111250152D02*
X159683352Y-111250152D01*
X159683352Y-111250152D02*
X159778590Y-111202533D01*
X159778590Y-111202533D02*
X159826209Y-111154914D01*
X159826209Y-111154914D02*
X159873828Y-111059676D01*
X159873828Y-111059676D02*
X159873828Y-110678724D01*
X160350019Y-111821581D02*
X160302400Y-111726343D01*
X160302400Y-111726343D02*
X160254780Y-111678724D01*
X160254780Y-111678724D02*
X160159542Y-111631105D01*
X160159542Y-111631105D02*
X159873828Y-111631105D01*
X159873828Y-111631105D02*
X159778590Y-111678724D01*
X159778590Y-111678724D02*
X159730971Y-111726343D01*
X159730971Y-111726343D02*
X159683352Y-111821581D01*
X159683352Y-111821581D02*
X159683352Y-111964438D01*
X159683352Y-111964438D02*
X159730971Y-112059676D01*
X159730971Y-112059676D02*
X159778590Y-112107295D01*
X159778590Y-112107295D02*
X159873828Y-112154914D01*
X159873828Y-112154914D02*
X160159542Y-112154914D01*
X160159542Y-112154914D02*
X160254780Y-112107295D01*
X160254780Y-112107295D02*
X160302400Y-112059676D01*
X160302400Y-112059676D02*
X160350019Y-111964438D01*
X160350019Y-111964438D02*
X160350019Y-111821581D01*
X160350019Y-112583486D02*
X159683352Y-112583486D01*
X159350019Y-112583486D02*
X159397638Y-112535867D01*
X159397638Y-112535867D02*
X159445257Y-112583486D01*
X159445257Y-112583486D02*
X159397638Y-112631105D01*
X159397638Y-112631105D02*
X159350019Y-112583486D01*
X159350019Y-112583486D02*
X159445257Y-112583486D01*
X159683352Y-113059676D02*
X160350019Y-113059676D01*
X159778590Y-113059676D02*
X159730971Y-113107295D01*
X159730971Y-113107295D02*
X159683352Y-113202533D01*
X159683352Y-113202533D02*
X159683352Y-113345390D01*
X159683352Y-113345390D02*
X159730971Y-113440628D01*
X159730971Y-113440628D02*
X159826209Y-113488247D01*
X159826209Y-113488247D02*
X160350019Y-113488247D01*
X159683352Y-113821581D02*
X159683352Y-114202533D01*
X159350019Y-113964438D02*
X160207161Y-113964438D01*
X160207161Y-113964438D02*
X160302400Y-114012057D01*
X160302400Y-114012057D02*
X160350019Y-114107295D01*
X160350019Y-114107295D02*
X160350019Y-114202533D01*
X155950019Y-109131105D02*
X155950019Y-109702533D01*
X156950019Y-109416819D02*
X155950019Y-109416819D01*
X156950019Y-110035867D02*
X155950019Y-110035867D01*
X155950019Y-110035867D02*
X155950019Y-110416819D01*
X155950019Y-110416819D02*
X155997638Y-110512057D01*
X155997638Y-110512057D02*
X156045257Y-110559676D01*
X156045257Y-110559676D02*
X156140495Y-110607295D01*
X156140495Y-110607295D02*
X156283352Y-110607295D01*
X156283352Y-110607295D02*
X156378590Y-110559676D01*
X156378590Y-110559676D02*
X156426209Y-110512057D01*
X156426209Y-110512057D02*
X156473828Y-110416819D01*
X156473828Y-110416819D02*
X156473828Y-110035867D01*
X156950019Y-111559676D02*
X156950019Y-110988248D01*
X156950019Y-111273962D02*
X155950019Y-111273962D01*
X155950019Y-111273962D02*
X156092876Y-111178724D01*
X156092876Y-111178724D02*
X156188114Y-111083486D01*
X156188114Y-111083486D02*
X156235733Y-110988248D01*
X156045257Y-111940629D02*
X155997638Y-111988248D01*
X155997638Y-111988248D02*
X155950019Y-112083486D01*
X155950019Y-112083486D02*
X155950019Y-112321581D01*
X155950019Y-112321581D02*
X155997638Y-112416819D01*
X155997638Y-112416819D02*
X156045257Y-112464438D01*
X156045257Y-112464438D02*
X156140495Y-112512057D01*
X156140495Y-112512057D02*
X156235733Y-112512057D01*
X156235733Y-112512057D02*
X156378590Y-112464438D01*
X156378590Y-112464438D02*
X156950019Y-111893010D01*
X156950019Y-111893010D02*
X156950019Y-112512057D01*
X156810019Y-107535866D02*
X156810019Y-108107294D01*
X157810019Y-107821580D02*
X156810019Y-107821580D01*
X157762400Y-108821580D02*
X157810019Y-108726342D01*
X157810019Y-108726342D02*
X157810019Y-108535866D01*
X157810019Y-108535866D02*
X157762400Y-108440628D01*
X157762400Y-108440628D02*
X157667161Y-108393009D01*
X157667161Y-108393009D02*
X157286209Y-108393009D01*
X157286209Y-108393009D02*
X157190971Y-108440628D01*
X157190971Y-108440628D02*
X157143352Y-108535866D01*
X157143352Y-108535866D02*
X157143352Y-108726342D01*
X157143352Y-108726342D02*
X157190971Y-108821580D01*
X157190971Y-108821580D02*
X157286209Y-108869199D01*
X157286209Y-108869199D02*
X157381447Y-108869199D01*
X157381447Y-108869199D02*
X157476685Y-108393009D01*
X157762400Y-109250152D02*
X157810019Y-109345390D01*
X157810019Y-109345390D02*
X157810019Y-109535866D01*
X157810019Y-109535866D02*
X157762400Y-109631104D01*
X157762400Y-109631104D02*
X157667161Y-109678723D01*
X157667161Y-109678723D02*
X157619542Y-109678723D01*
X157619542Y-109678723D02*
X157524304Y-109631104D01*
X157524304Y-109631104D02*
X157476685Y-109535866D01*
X157476685Y-109535866D02*
X157476685Y-109393009D01*
X157476685Y-109393009D02*
X157429066Y-109297771D01*
X157429066Y-109297771D02*
X157333828Y-109250152D01*
X157333828Y-109250152D02*
X157286209Y-109250152D01*
X157286209Y-109250152D02*
X157190971Y-109297771D01*
X157190971Y-109297771D02*
X157143352Y-109393009D01*
X157143352Y-109393009D02*
X157143352Y-109535866D01*
X157143352Y-109535866D02*
X157190971Y-109631104D01*
X157143352Y-109964438D02*
X157143352Y-110345390D01*
X156810019Y-110107295D02*
X157667161Y-110107295D01*
X157667161Y-110107295D02*
X157762400Y-110154914D01*
X157762400Y-110154914D02*
X157810019Y-110250152D01*
X157810019Y-110250152D02*
X157810019Y-110345390D01*
X157810019Y-110678724D02*
X156810019Y-110678724D01*
X156810019Y-110678724D02*
X156810019Y-111059676D01*
X156810019Y-111059676D02*
X156857638Y-111154914D01*
X156857638Y-111154914D02*
X156905257Y-111202533D01*
X156905257Y-111202533D02*
X157000495Y-111250152D01*
X157000495Y-111250152D02*
X157143352Y-111250152D01*
X157143352Y-111250152D02*
X157238590Y-111202533D01*
X157238590Y-111202533D02*
X157286209Y-111154914D01*
X157286209Y-111154914D02*
X157333828Y-111059676D01*
X157333828Y-111059676D02*
X157333828Y-110678724D01*
X157810019Y-111821581D02*
X157762400Y-111726343D01*
X157762400Y-111726343D02*
X157714780Y-111678724D01*
X157714780Y-111678724D02*
X157619542Y-111631105D01*
X157619542Y-111631105D02*
X157333828Y-111631105D01*
X157333828Y-111631105D02*
X157238590Y-111678724D01*
X157238590Y-111678724D02*
X157190971Y-111726343D01*
X157190971Y-111726343D02*
X157143352Y-111821581D01*
X157143352Y-111821581D02*
X157143352Y-111964438D01*
X157143352Y-111964438D02*
X157190971Y-112059676D01*
X157190971Y-112059676D02*
X157238590Y-112107295D01*
X157238590Y-112107295D02*
X157333828Y-112154914D01*
X157333828Y-112154914D02*
X157619542Y-112154914D01*
X157619542Y-112154914D02*
X157714780Y-112107295D01*
X157714780Y-112107295D02*
X157762400Y-112059676D01*
X157762400Y-112059676D02*
X157810019Y-111964438D01*
X157810019Y-111964438D02*
X157810019Y-111821581D01*
X157810019Y-112583486D02*
X157143352Y-112583486D01*
X156810019Y-112583486D02*
X156857638Y-112535867D01*
X156857638Y-112535867D02*
X156905257Y-112583486D01*
X156905257Y-112583486D02*
X156857638Y-112631105D01*
X156857638Y-112631105D02*
X156810019Y-112583486D01*
X156810019Y-112583486D02*
X156905257Y-112583486D01*
X157143352Y-113059676D02*
X157810019Y-113059676D01*
X157238590Y-113059676D02*
X157190971Y-113107295D01*
X157190971Y-113107295D02*
X157143352Y-113202533D01*
X157143352Y-113202533D02*
X157143352Y-113345390D01*
X157143352Y-113345390D02*
X157190971Y-113440628D01*
X157190971Y-113440628D02*
X157286209Y-113488247D01*
X157286209Y-113488247D02*
X157810019Y-113488247D01*
X157143352Y-113821581D02*
X157143352Y-114202533D01*
X156810019Y-113964438D02*
X157667161Y-113964438D01*
X157667161Y-113964438D02*
X157762400Y-114012057D01*
X157762400Y-114012057D02*
X157810019Y-114107295D01*
X157810019Y-114107295D02*
X157810019Y-114202533D01*
X153410019Y-109131105D02*
X153410019Y-109702533D01*
X154410019Y-109416819D02*
X153410019Y-109416819D01*
X154410019Y-110035867D02*
X153410019Y-110035867D01*
X153410019Y-110035867D02*
X153410019Y-110416819D01*
X153410019Y-110416819D02*
X153457638Y-110512057D01*
X153457638Y-110512057D02*
X153505257Y-110559676D01*
X153505257Y-110559676D02*
X153600495Y-110607295D01*
X153600495Y-110607295D02*
X153743352Y-110607295D01*
X153743352Y-110607295D02*
X153838590Y-110559676D01*
X153838590Y-110559676D02*
X153886209Y-110512057D01*
X153886209Y-110512057D02*
X153933828Y-110416819D01*
X153933828Y-110416819D02*
X153933828Y-110035867D01*
X154410019Y-111559676D02*
X154410019Y-110988248D01*
X154410019Y-111273962D02*
X153410019Y-111273962D01*
X153410019Y-111273962D02*
X153552876Y-111178724D01*
X153552876Y-111178724D02*
X153648114Y-111083486D01*
X153648114Y-111083486D02*
X153695733Y-110988248D01*
X154410019Y-112512057D02*
X154410019Y-111940629D01*
X154410019Y-112226343D02*
X153410019Y-112226343D01*
X153410019Y-112226343D02*
X153552876Y-112131105D01*
X153552876Y-112131105D02*
X153648114Y-112035867D01*
X153648114Y-112035867D02*
X153695733Y-111940629D01*
X148552380Y-95004819D02*
X148552380Y-94004819D01*
X148552380Y-94004819D02*
X148171428Y-94004819D01*
X148171428Y-94004819D02*
X148076190Y-94052438D01*
X148076190Y-94052438D02*
X148028571Y-94100057D01*
X148028571Y-94100057D02*
X147980952Y-94195295D01*
X147980952Y-94195295D02*
X147980952Y-94338152D01*
X147980952Y-94338152D02*
X148028571Y-94433390D01*
X148028571Y-94433390D02*
X148076190Y-94481009D01*
X148076190Y-94481009D02*
X148171428Y-94528628D01*
X148171428Y-94528628D02*
X148552380Y-94528628D01*
X147361904Y-94004819D02*
X147171428Y-94004819D01*
X147171428Y-94004819D02*
X147076190Y-94052438D01*
X147076190Y-94052438D02*
X146980952Y-94147676D01*
X146980952Y-94147676D02*
X146933333Y-94338152D01*
X146933333Y-94338152D02*
X146933333Y-94671485D01*
X146933333Y-94671485D02*
X146980952Y-94861961D01*
X146980952Y-94861961D02*
X147076190Y-94957200D01*
X147076190Y-94957200D02*
X147171428Y-95004819D01*
X147171428Y-95004819D02*
X147361904Y-95004819D01*
X147361904Y-95004819D02*
X147457142Y-94957200D01*
X147457142Y-94957200D02*
X147552380Y-94861961D01*
X147552380Y-94861961D02*
X147599999Y-94671485D01*
X147599999Y-94671485D02*
X147599999Y-94338152D01*
X147599999Y-94338152D02*
X147552380Y-94147676D01*
X147552380Y-94147676D02*
X147457142Y-94052438D01*
X147457142Y-94052438D02*
X147361904Y-94004819D01*
X146504761Y-95004819D02*
X146504761Y-94004819D01*
X145933333Y-95004819D02*
X146361904Y-94433390D01*
X145933333Y-94004819D02*
X146504761Y-94576247D01*
X144980952Y-95004819D02*
X145552380Y-95004819D01*
X145266666Y-95004819D02*
X145266666Y-94004819D01*
X145266666Y-94004819D02*
X145361904Y-94147676D01*
X145361904Y-94147676D02*
X145457142Y-94242914D01*
X145457142Y-94242914D02*
X145552380Y-94290533D01*
X143838095Y-93957200D02*
X144695237Y-95242914D01*
X143219047Y-95338152D02*
X143457142Y-95338152D01*
X143457142Y-95338152D02*
X143457142Y-93909580D01*
X143457142Y-93909580D02*
X143219047Y-93909580D01*
X142838094Y-95004819D02*
X142838094Y-94004819D01*
X142838094Y-94004819D02*
X142457142Y-94004819D01*
X142457142Y-94004819D02*
X142361904Y-94052438D01*
X142361904Y-94052438D02*
X142314285Y-94100057D01*
X142314285Y-94100057D02*
X142266666Y-94195295D01*
X142266666Y-94195295D02*
X142266666Y-94338152D01*
X142266666Y-94338152D02*
X142314285Y-94433390D01*
X142314285Y-94433390D02*
X142361904Y-94481009D01*
X142361904Y-94481009D02*
X142457142Y-94528628D01*
X142457142Y-94528628D02*
X142838094Y-94528628D01*
X141647618Y-94004819D02*
X141457142Y-94004819D01*
X141457142Y-94004819D02*
X141361904Y-94052438D01*
X141361904Y-94052438D02*
X141266666Y-94147676D01*
X141266666Y-94147676D02*
X141219047Y-94338152D01*
X141219047Y-94338152D02*
X141219047Y-94671485D01*
X141219047Y-94671485D02*
X141266666Y-94861961D01*
X141266666Y-94861961D02*
X141361904Y-94957200D01*
X141361904Y-94957200D02*
X141457142Y-95004819D01*
X141457142Y-95004819D02*
X141647618Y-95004819D01*
X141647618Y-95004819D02*
X141742856Y-94957200D01*
X141742856Y-94957200D02*
X141838094Y-94861961D01*
X141838094Y-94861961D02*
X141885713Y-94671485D01*
X141885713Y-94671485D02*
X141885713Y-94338152D01*
X141885713Y-94338152D02*
X141838094Y-94147676D01*
X141838094Y-94147676D02*
X141742856Y-94052438D01*
X141742856Y-94052438D02*
X141647618Y-94004819D01*
X140790475Y-95004819D02*
X140790475Y-94004819D01*
X140219047Y-95004819D02*
X140647618Y-94433390D01*
X140219047Y-94004819D02*
X140790475Y-94576247D01*
X139838094Y-94100057D02*
X139790475Y-94052438D01*
X139790475Y-94052438D02*
X139695237Y-94004819D01*
X139695237Y-94004819D02*
X139457142Y-94004819D01*
X139457142Y-94004819D02*
X139361904Y-94052438D01*
X139361904Y-94052438D02*
X139314285Y-94100057D01*
X139314285Y-94100057D02*
X139266666Y-94195295D01*
X139266666Y-94195295D02*
X139266666Y-94290533D01*
X139266666Y-94290533D02*
X139314285Y-94433390D01*
X139314285Y-94433390D02*
X139885713Y-95004819D01*
X139885713Y-95004819D02*
X139266666Y-95004819D01*
X138933332Y-95338152D02*
X138695237Y-95338152D01*
X138695237Y-95338152D02*
X138695237Y-93909580D01*
X138695237Y-93909580D02*
X138933332Y-93909580D01*
X156542856Y-92954819D02*
X156209523Y-93954819D01*
X156209523Y-93954819D02*
X155876190Y-92954819D01*
X155209523Y-93431009D02*
X155066666Y-93478628D01*
X155066666Y-93478628D02*
X155019047Y-93526247D01*
X155019047Y-93526247D02*
X154971428Y-93621485D01*
X154971428Y-93621485D02*
X154971428Y-93764342D01*
X154971428Y-93764342D02*
X155019047Y-93859580D01*
X155019047Y-93859580D02*
X155066666Y-93907200D01*
X155066666Y-93907200D02*
X155161904Y-93954819D01*
X155161904Y-93954819D02*
X155542856Y-93954819D01*
X155542856Y-93954819D02*
X155542856Y-92954819D01*
X155542856Y-92954819D02*
X155209523Y-92954819D01*
X155209523Y-92954819D02*
X155114285Y-93002438D01*
X155114285Y-93002438D02*
X155066666Y-93050057D01*
X155066666Y-93050057D02*
X155019047Y-93145295D01*
X155019047Y-93145295D02*
X155019047Y-93240533D01*
X155019047Y-93240533D02*
X155066666Y-93335771D01*
X155066666Y-93335771D02*
X155114285Y-93383390D01*
X155114285Y-93383390D02*
X155209523Y-93431009D01*
X155209523Y-93431009D02*
X155542856Y-93431009D01*
X154542856Y-92954819D02*
X154542856Y-93764342D01*
X154542856Y-93764342D02*
X154495237Y-93859580D01*
X154495237Y-93859580D02*
X154447618Y-93907200D01*
X154447618Y-93907200D02*
X154352380Y-93954819D01*
X154352380Y-93954819D02*
X154161904Y-93954819D01*
X154161904Y-93954819D02*
X154066666Y-93907200D01*
X154066666Y-93907200D02*
X154019047Y-93859580D01*
X154019047Y-93859580D02*
X153971428Y-93764342D01*
X153971428Y-93764342D02*
X153971428Y-92954819D01*
X153542856Y-93907200D02*
X153399999Y-93954819D01*
X153399999Y-93954819D02*
X153161904Y-93954819D01*
X153161904Y-93954819D02*
X153066666Y-93907200D01*
X153066666Y-93907200D02*
X153019047Y-93859580D01*
X153019047Y-93859580D02*
X152971428Y-93764342D01*
X152971428Y-93764342D02*
X152971428Y-93669104D01*
X152971428Y-93669104D02*
X153019047Y-93573866D01*
X153019047Y-93573866D02*
X153066666Y-93526247D01*
X153066666Y-93526247D02*
X153161904Y-93478628D01*
X153161904Y-93478628D02*
X153352380Y-93431009D01*
X153352380Y-93431009D02*
X153447618Y-93383390D01*
X153447618Y-93383390D02*
X153495237Y-93335771D01*
X153495237Y-93335771D02*
X153542856Y-93240533D01*
X153542856Y-93240533D02*
X153542856Y-93145295D01*
X153542856Y-93145295D02*
X153495237Y-93050057D01*
X153495237Y-93050057D02*
X153447618Y-93002438D01*
X153447618Y-93002438D02*
X153352380Y-92954819D01*
X153352380Y-92954819D02*
X153114285Y-92954819D01*
X153114285Y-92954819D02*
X152971428Y-93002438D01*
X152780952Y-94050057D02*
X152019047Y-94050057D01*
X151923808Y-92954819D02*
X151590475Y-93954819D01*
X151590475Y-93954819D02*
X151257142Y-92954819D01*
X150923808Y-93954819D02*
X150923808Y-92954819D01*
X150923808Y-92954819D02*
X150685713Y-92954819D01*
X150685713Y-92954819D02*
X150542856Y-93002438D01*
X150542856Y-93002438D02*
X150447618Y-93097676D01*
X150447618Y-93097676D02*
X150399999Y-93192914D01*
X150399999Y-93192914D02*
X150352380Y-93383390D01*
X150352380Y-93383390D02*
X150352380Y-93526247D01*
X150352380Y-93526247D02*
X150399999Y-93716723D01*
X150399999Y-93716723D02*
X150447618Y-93811961D01*
X150447618Y-93811961D02*
X150542856Y-93907200D01*
X150542856Y-93907200D02*
X150685713Y-93954819D01*
X150685713Y-93954819D02*
X150923808Y-93954819D01*
X149923808Y-93954819D02*
X149923808Y-92954819D01*
X149923808Y-92954819D02*
X149685713Y-92954819D01*
X149685713Y-92954819D02*
X149542856Y-93002438D01*
X149542856Y-93002438D02*
X149447618Y-93097676D01*
X149447618Y-93097676D02*
X149399999Y-93192914D01*
X149399999Y-93192914D02*
X149352380Y-93383390D01*
X149352380Y-93383390D02*
X149352380Y-93526247D01*
X149352380Y-93526247D02*
X149399999Y-93716723D01*
X149399999Y-93716723D02*
X149447618Y-93811961D01*
X149447618Y-93811961D02*
X149542856Y-93907200D01*
X149542856Y-93907200D02*
X149685713Y-93954819D01*
X149685713Y-93954819D02*
X149923808Y-93954819D01*
M02*
