G04 #@! TF.GenerationSoftware,KiCad,Pcbnew,9.0.0*
G04 #@! TF.CreationDate,2025-03-05T10:53:24-06:00*
G04 #@! TF.ProjectId,entree,656e7472-6565-42e6-9b69-6361645f7063,2*
G04 #@! TF.SameCoordinates,Original*
G04 #@! TF.FileFunction,Profile,NP*
%FSLAX46Y46*%
G04 Gerber Fmt 4.6, Leading zero omitted, Abs format (unit mm)*
G04 Created by KiCad (PCBNEW 9.0.0) date 2025-03-05 10:53:24*
%MOMM*%
%LPD*%
G01*
G04 APERTURE LIST*
G04 #@! TA.AperFunction,Profile*
%ADD10C,0.100000*%
G04 #@! TD*
G04 APERTURE END LIST*
D10*
X180310600Y-112240800D02*
X188662400Y-112240800D01*
X141014200Y-117581200D02*
X141014200Y-112225600D01*
X132662400Y-92225600D02*
X141000200Y-92225600D01*
X132662400Y-112225600D02*
X141014200Y-112225600D01*
X150296600Y-87653600D02*
X150296600Y-92251000D01*
X141000200Y-87653600D02*
G75*
G02*
X150296600Y-87653600I4648200J0D01*
G01*
X150310600Y-112240800D02*
X171014200Y-112240800D01*
X171014200Y-117581200D02*
X171014200Y-112240800D01*
X180310600Y-117581200D02*
G75*
G02*
X171014200Y-117581200I-4648200J0D01*
G01*
X130662400Y-110225600D02*
X130662400Y-94225600D01*
X141000200Y-87653600D02*
X141000200Y-92225600D01*
X188980133Y-92251000D02*
G75*
G02*
X190662400Y-94225600I-317733J-1974600D01*
G01*
X171014200Y-87581200D02*
X171014200Y-92251000D01*
X190662400Y-94225600D02*
X190662400Y-110225600D01*
X150296600Y-92251000D02*
X171014200Y-92251000D01*
X171014200Y-87581200D02*
G75*
G02*
X180310600Y-87581200I4648200J0D01*
G01*
X132662400Y-112225600D02*
G75*
G02*
X130662400Y-110225600I0J2000000D01*
G01*
X180310600Y-92251000D02*
X188980133Y-92251000D01*
X188662400Y-112225600D02*
X188662400Y-112240800D01*
X180310600Y-117581200D02*
X180310600Y-112240800D01*
X180310600Y-87581200D02*
X180310600Y-92251000D01*
X150310600Y-117581200D02*
G75*
G02*
X141014200Y-117581200I-4648200J0D01*
G01*
X150310600Y-117581200D02*
X150310600Y-112240800D01*
X130662400Y-94225600D02*
G75*
G02*
X132662400Y-92225600I2000000J0D01*
G01*
X190662400Y-110225600D02*
G75*
G02*
X188662400Y-112225600I-2000000J0D01*
G01*
M02*
