G04 #@! TF.GenerationSoftware,KiCad,Pcbnew,9.0.0*
G04 #@! TF.CreationDate,2025-03-05T10:53:24-06:00*
G04 #@! TF.ProjectId,entree,656e7472-6565-42e6-9b69-6361645f7063,2*
G04 #@! TF.SameCoordinates,Original*
G04 #@! TF.FileFunction,Legend,Bot*
G04 #@! TF.FilePolarity,Positive*
%FSLAX46Y46*%
G04 Gerber Fmt 4.6, Leading zero omitted, Abs format (unit mm)*
G04 Created by KiCad (PCBNEW 9.0.0) date 2025-03-05 10:53:24*
%MOMM*%
%LPD*%
G01*
G04 APERTURE LIST*
%ADD10C,0.150000*%
%ADD11C,0.100000*%
%ADD12C,0.120000*%
G04 APERTURE END LIST*
D10*
X151760039Y-99752695D02*
X151760039Y-100400314D01*
X151760039Y-100400314D02*
X151721944Y-100476504D01*
X151721944Y-100476504D02*
X151683849Y-100514600D01*
X151683849Y-100514600D02*
X151607658Y-100552695D01*
X151607658Y-100552695D02*
X151455277Y-100552695D01*
X151455277Y-100552695D02*
X151379087Y-100514600D01*
X151379087Y-100514600D02*
X151340992Y-100476504D01*
X151340992Y-100476504D02*
X151302896Y-100400314D01*
X151302896Y-100400314D02*
X151302896Y-99752695D01*
X150960040Y-100514600D02*
X150845754Y-100552695D01*
X150845754Y-100552695D02*
X150655278Y-100552695D01*
X150655278Y-100552695D02*
X150579087Y-100514600D01*
X150579087Y-100514600D02*
X150540992Y-100476504D01*
X150540992Y-100476504D02*
X150502897Y-100400314D01*
X150502897Y-100400314D02*
X150502897Y-100324123D01*
X150502897Y-100324123D02*
X150540992Y-100247933D01*
X150540992Y-100247933D02*
X150579087Y-100209838D01*
X150579087Y-100209838D02*
X150655278Y-100171742D01*
X150655278Y-100171742D02*
X150807659Y-100133647D01*
X150807659Y-100133647D02*
X150883849Y-100095552D01*
X150883849Y-100095552D02*
X150921944Y-100057457D01*
X150921944Y-100057457D02*
X150960040Y-99981266D01*
X150960040Y-99981266D02*
X150960040Y-99905076D01*
X150960040Y-99905076D02*
X150921944Y-99828885D01*
X150921944Y-99828885D02*
X150883849Y-99790790D01*
X150883849Y-99790790D02*
X150807659Y-99752695D01*
X150807659Y-99752695D02*
X150617182Y-99752695D01*
X150617182Y-99752695D02*
X150502897Y-99790790D01*
X149893373Y-100133647D02*
X149779087Y-100171742D01*
X149779087Y-100171742D02*
X149740992Y-100209838D01*
X149740992Y-100209838D02*
X149702896Y-100286028D01*
X149702896Y-100286028D02*
X149702896Y-100400314D01*
X149702896Y-100400314D02*
X149740992Y-100476504D01*
X149740992Y-100476504D02*
X149779087Y-100514600D01*
X149779087Y-100514600D02*
X149855277Y-100552695D01*
X149855277Y-100552695D02*
X150160039Y-100552695D01*
X150160039Y-100552695D02*
X150160039Y-99752695D01*
X150160039Y-99752695D02*
X149893373Y-99752695D01*
X149893373Y-99752695D02*
X149817182Y-99790790D01*
X149817182Y-99790790D02*
X149779087Y-99828885D01*
X149779087Y-99828885D02*
X149740992Y-99905076D01*
X149740992Y-99905076D02*
X149740992Y-99981266D01*
X149740992Y-99981266D02*
X149779087Y-100057457D01*
X149779087Y-100057457D02*
X149817182Y-100095552D01*
X149817182Y-100095552D02*
X149893373Y-100133647D01*
X149893373Y-100133647D02*
X150160039Y-100133647D01*
X149360039Y-100247933D02*
X148750516Y-100247933D01*
X148369563Y-100552695D02*
X148369563Y-99752695D01*
X148369563Y-99752695D02*
X148064801Y-99752695D01*
X148064801Y-99752695D02*
X147988611Y-99790790D01*
X147988611Y-99790790D02*
X147950516Y-99828885D01*
X147950516Y-99828885D02*
X147912420Y-99905076D01*
X147912420Y-99905076D02*
X147912420Y-100019361D01*
X147912420Y-100019361D02*
X147950516Y-100095552D01*
X147950516Y-100095552D02*
X147988611Y-100133647D01*
X147988611Y-100133647D02*
X148064801Y-100171742D01*
X148064801Y-100171742D02*
X148369563Y-100171742D01*
X147569563Y-100552695D02*
X147569563Y-99752695D01*
X147569563Y-99752695D02*
X147379087Y-99752695D01*
X147379087Y-99752695D02*
X147264801Y-99790790D01*
X147264801Y-99790790D02*
X147188611Y-99866980D01*
X147188611Y-99866980D02*
X147150516Y-99943171D01*
X147150516Y-99943171D02*
X147112420Y-100095552D01*
X147112420Y-100095552D02*
X147112420Y-100209838D01*
X147112420Y-100209838D02*
X147150516Y-100362219D01*
X147150516Y-100362219D02*
X147188611Y-100438409D01*
X147188611Y-100438409D02*
X147264801Y-100514600D01*
X147264801Y-100514600D02*
X147379087Y-100552695D01*
X147379087Y-100552695D02*
X147569563Y-100552695D01*
X145702896Y-100476504D02*
X145740992Y-100514600D01*
X145740992Y-100514600D02*
X145855277Y-100552695D01*
X145855277Y-100552695D02*
X145931468Y-100552695D01*
X145931468Y-100552695D02*
X146045754Y-100514600D01*
X146045754Y-100514600D02*
X146121944Y-100438409D01*
X146121944Y-100438409D02*
X146160039Y-100362219D01*
X146160039Y-100362219D02*
X146198135Y-100209838D01*
X146198135Y-100209838D02*
X146198135Y-100095552D01*
X146198135Y-100095552D02*
X146160039Y-99943171D01*
X146160039Y-99943171D02*
X146121944Y-99866980D01*
X146121944Y-99866980D02*
X146045754Y-99790790D01*
X146045754Y-99790790D02*
X145931468Y-99752695D01*
X145931468Y-99752695D02*
X145855277Y-99752695D01*
X145855277Y-99752695D02*
X145740992Y-99790790D01*
X145740992Y-99790790D02*
X145702896Y-99828885D01*
X145398135Y-100324123D02*
X145017182Y-100324123D01*
X145474325Y-100552695D02*
X145207658Y-99752695D01*
X145207658Y-99752695D02*
X144940992Y-100552695D01*
X144674325Y-100552695D02*
X144674325Y-99752695D01*
X144674325Y-99752695D02*
X144217182Y-100552695D01*
X144217182Y-100552695D02*
X144217182Y-99752695D01*
X143264802Y-100324123D02*
X142883849Y-100324123D01*
X143340992Y-100552695D02*
X143074325Y-99752695D01*
X143074325Y-99752695D02*
X142807659Y-100552695D01*
X142198135Y-100552695D02*
X142198135Y-99752695D01*
X142198135Y-100514600D02*
X142274326Y-100552695D01*
X142274326Y-100552695D02*
X142426707Y-100552695D01*
X142426707Y-100552695D02*
X142502897Y-100514600D01*
X142502897Y-100514600D02*
X142540992Y-100476504D01*
X142540992Y-100476504D02*
X142579088Y-100400314D01*
X142579088Y-100400314D02*
X142579088Y-100171742D01*
X142579088Y-100171742D02*
X142540992Y-100095552D01*
X142540992Y-100095552D02*
X142502897Y-100057457D01*
X142502897Y-100057457D02*
X142426707Y-100019361D01*
X142426707Y-100019361D02*
X142274326Y-100019361D01*
X142274326Y-100019361D02*
X142198135Y-100057457D01*
X141474325Y-100552695D02*
X141474325Y-100133647D01*
X141474325Y-100133647D02*
X141512420Y-100057457D01*
X141512420Y-100057457D02*
X141588611Y-100019361D01*
X141588611Y-100019361D02*
X141740992Y-100019361D01*
X141740992Y-100019361D02*
X141817182Y-100057457D01*
X141474325Y-100514600D02*
X141550516Y-100552695D01*
X141550516Y-100552695D02*
X141740992Y-100552695D01*
X141740992Y-100552695D02*
X141817182Y-100514600D01*
X141817182Y-100514600D02*
X141855278Y-100438409D01*
X141855278Y-100438409D02*
X141855278Y-100362219D01*
X141855278Y-100362219D02*
X141817182Y-100286028D01*
X141817182Y-100286028D02*
X141740992Y-100247933D01*
X141740992Y-100247933D02*
X141550516Y-100247933D01*
X141550516Y-100247933D02*
X141474325Y-100209838D01*
X141093372Y-100019361D02*
X141093372Y-100819361D01*
X141093372Y-100057457D02*
X141017182Y-100019361D01*
X141017182Y-100019361D02*
X140864801Y-100019361D01*
X140864801Y-100019361D02*
X140788610Y-100057457D01*
X140788610Y-100057457D02*
X140750515Y-100095552D01*
X140750515Y-100095552D02*
X140712420Y-100171742D01*
X140712420Y-100171742D02*
X140712420Y-100400314D01*
X140712420Y-100400314D02*
X140750515Y-100476504D01*
X140750515Y-100476504D02*
X140788610Y-100514600D01*
X140788610Y-100514600D02*
X140864801Y-100552695D01*
X140864801Y-100552695D02*
X141017182Y-100552695D01*
X141017182Y-100552695D02*
X141093372Y-100514600D01*
X140483848Y-100019361D02*
X140179086Y-100019361D01*
X140369562Y-99752695D02*
X140369562Y-100438409D01*
X140369562Y-100438409D02*
X140331467Y-100514600D01*
X140331467Y-100514600D02*
X140255277Y-100552695D01*
X140255277Y-100552695D02*
X140179086Y-100552695D01*
X139607657Y-100514600D02*
X139683848Y-100552695D01*
X139683848Y-100552695D02*
X139836229Y-100552695D01*
X139836229Y-100552695D02*
X139912419Y-100514600D01*
X139912419Y-100514600D02*
X139950515Y-100438409D01*
X139950515Y-100438409D02*
X139950515Y-100133647D01*
X139950515Y-100133647D02*
X139912419Y-100057457D01*
X139912419Y-100057457D02*
X139836229Y-100019361D01*
X139836229Y-100019361D02*
X139683848Y-100019361D01*
X139683848Y-100019361D02*
X139607657Y-100057457D01*
X139607657Y-100057457D02*
X139569562Y-100133647D01*
X139569562Y-100133647D02*
X139569562Y-100209838D01*
X139569562Y-100209838D02*
X139950515Y-100286028D01*
X139226705Y-100552695D02*
X139226705Y-100019361D01*
X139226705Y-100171742D02*
X139188610Y-100095552D01*
X139188610Y-100095552D02*
X139150515Y-100057457D01*
X139150515Y-100057457D02*
X139074324Y-100019361D01*
X139074324Y-100019361D02*
X138998134Y-100019361D01*
D11*
X182380000Y-111460000D02*
X167880000Y-111460000D01*
X167880000Y-109860000D01*
X182380000Y-109860000D01*
X182380000Y-111460000D01*
G36*
X182380000Y-111460000D02*
G01*
X167880000Y-111460000D01*
X167880000Y-109860000D01*
X182380000Y-109860000D01*
X182380000Y-111460000D01*
G37*
D10*
X171356192Y-94618363D02*
X171813335Y-94618363D01*
X171584763Y-94618363D02*
X171584763Y-93818363D01*
X171584763Y-93818363D02*
X171660954Y-93932648D01*
X171660954Y-93932648D02*
X171737144Y-94008839D01*
X171737144Y-94008839D02*
X171813335Y-94046934D01*
X170403810Y-94618363D02*
X170403810Y-93818363D01*
X170403810Y-93818363D02*
X170213334Y-93818363D01*
X170213334Y-93818363D02*
X170099048Y-93856458D01*
X170099048Y-93856458D02*
X170022858Y-93932648D01*
X170022858Y-93932648D02*
X169984763Y-94008839D01*
X169984763Y-94008839D02*
X169946667Y-94161220D01*
X169946667Y-94161220D02*
X169946667Y-94275506D01*
X169946667Y-94275506D02*
X169984763Y-94427887D01*
X169984763Y-94427887D02*
X170022858Y-94504077D01*
X170022858Y-94504077D02*
X170099048Y-94580268D01*
X170099048Y-94580268D02*
X170213334Y-94618363D01*
X170213334Y-94618363D02*
X170403810Y-94618363D01*
X169337144Y-94199315D02*
X169603810Y-94199315D01*
X169603810Y-94618363D02*
X169603810Y-93818363D01*
X169603810Y-93818363D02*
X169222858Y-93818363D01*
X168918096Y-93818363D02*
X168918096Y-94465982D01*
X168918096Y-94465982D02*
X168880001Y-94542172D01*
X168880001Y-94542172D02*
X168841906Y-94580268D01*
X168841906Y-94580268D02*
X168765715Y-94618363D01*
X168765715Y-94618363D02*
X168613334Y-94618363D01*
X168613334Y-94618363D02*
X168537144Y-94580268D01*
X168537144Y-94580268D02*
X168499049Y-94542172D01*
X168499049Y-94542172D02*
X168460953Y-94465982D01*
X168460953Y-94465982D02*
X168460953Y-93818363D01*
X171813335Y-95182508D02*
X171775239Y-95144413D01*
X171775239Y-95144413D02*
X171699049Y-95106318D01*
X171699049Y-95106318D02*
X171508573Y-95106318D01*
X171508573Y-95106318D02*
X171432382Y-95144413D01*
X171432382Y-95144413D02*
X171394287Y-95182508D01*
X171394287Y-95182508D02*
X171356192Y-95258699D01*
X171356192Y-95258699D02*
X171356192Y-95334889D01*
X171356192Y-95334889D02*
X171394287Y-95449175D01*
X171394287Y-95449175D02*
X171851430Y-95906318D01*
X171851430Y-95906318D02*
X171356192Y-95906318D01*
X170441906Y-95868223D02*
X170327620Y-95906318D01*
X170327620Y-95906318D02*
X170137144Y-95906318D01*
X170137144Y-95906318D02*
X170060953Y-95868223D01*
X170060953Y-95868223D02*
X170022858Y-95830127D01*
X170022858Y-95830127D02*
X169984763Y-95753937D01*
X169984763Y-95753937D02*
X169984763Y-95677746D01*
X169984763Y-95677746D02*
X170022858Y-95601556D01*
X170022858Y-95601556D02*
X170060953Y-95563461D01*
X170060953Y-95563461D02*
X170137144Y-95525365D01*
X170137144Y-95525365D02*
X170289525Y-95487270D01*
X170289525Y-95487270D02*
X170365715Y-95449175D01*
X170365715Y-95449175D02*
X170403810Y-95411080D01*
X170403810Y-95411080D02*
X170441906Y-95334889D01*
X170441906Y-95334889D02*
X170441906Y-95258699D01*
X170441906Y-95258699D02*
X170403810Y-95182508D01*
X170403810Y-95182508D02*
X170365715Y-95144413D01*
X170365715Y-95144413D02*
X170289525Y-95106318D01*
X170289525Y-95106318D02*
X170099048Y-95106318D01*
X170099048Y-95106318D02*
X169984763Y-95144413D01*
X169641905Y-95487270D02*
X169375239Y-95487270D01*
X169260953Y-95906318D02*
X169641905Y-95906318D01*
X169641905Y-95906318D02*
X169641905Y-95106318D01*
X169641905Y-95106318D02*
X169260953Y-95106318D01*
X169032381Y-95106318D02*
X168575238Y-95106318D01*
X168803810Y-95906318D02*
X168803810Y-95106318D01*
X167699047Y-95906318D02*
X167699047Y-95106318D01*
X167318095Y-95906318D02*
X167318095Y-95106318D01*
X167318095Y-95106318D02*
X167127619Y-95106318D01*
X167127619Y-95106318D02*
X167013333Y-95144413D01*
X167013333Y-95144413D02*
X166937143Y-95220603D01*
X166937143Y-95220603D02*
X166899048Y-95296794D01*
X166899048Y-95296794D02*
X166860952Y-95449175D01*
X166860952Y-95449175D02*
X166860952Y-95563461D01*
X166860952Y-95563461D02*
X166899048Y-95715842D01*
X166899048Y-95715842D02*
X166937143Y-95792032D01*
X166937143Y-95792032D02*
X167013333Y-95868223D01*
X167013333Y-95868223D02*
X167127619Y-95906318D01*
X167127619Y-95906318D02*
X167318095Y-95906318D01*
X166556191Y-95868223D02*
X166441905Y-95906318D01*
X166441905Y-95906318D02*
X166251429Y-95906318D01*
X166251429Y-95906318D02*
X166175238Y-95868223D01*
X166175238Y-95868223D02*
X166137143Y-95830127D01*
X166137143Y-95830127D02*
X166099048Y-95753937D01*
X166099048Y-95753937D02*
X166099048Y-95677746D01*
X166099048Y-95677746D02*
X166137143Y-95601556D01*
X166137143Y-95601556D02*
X166175238Y-95563461D01*
X166175238Y-95563461D02*
X166251429Y-95525365D01*
X166251429Y-95525365D02*
X166403810Y-95487270D01*
X166403810Y-95487270D02*
X166480000Y-95449175D01*
X166480000Y-95449175D02*
X166518095Y-95411080D01*
X166518095Y-95411080D02*
X166556191Y-95334889D01*
X166556191Y-95334889D02*
X166556191Y-95258699D01*
X166556191Y-95258699D02*
X166518095Y-95182508D01*
X166518095Y-95182508D02*
X166480000Y-95144413D01*
X166480000Y-95144413D02*
X166403810Y-95106318D01*
X166403810Y-95106318D02*
X166213333Y-95106318D01*
X166213333Y-95106318D02*
X166099048Y-95144413D01*
X171432382Y-96660939D02*
X171432382Y-97194273D01*
X171622858Y-96356178D02*
X171813335Y-96927606D01*
X171813335Y-96927606D02*
X171318096Y-96927606D01*
X170137144Y-96775225D02*
X170403810Y-96775225D01*
X170403810Y-97194273D02*
X170403810Y-96394273D01*
X170403810Y-96394273D02*
X170022858Y-96394273D01*
X169222858Y-96394273D02*
X168956191Y-97194273D01*
X168956191Y-97194273D02*
X168689525Y-96394273D01*
X168156192Y-96775225D02*
X168041906Y-96813320D01*
X168041906Y-96813320D02*
X168003811Y-96851416D01*
X168003811Y-96851416D02*
X167965715Y-96927606D01*
X167965715Y-96927606D02*
X167965715Y-97041892D01*
X167965715Y-97041892D02*
X168003811Y-97118082D01*
X168003811Y-97118082D02*
X168041906Y-97156178D01*
X168041906Y-97156178D02*
X168118096Y-97194273D01*
X168118096Y-97194273D02*
X168422858Y-97194273D01*
X168422858Y-97194273D02*
X168422858Y-96394273D01*
X168422858Y-96394273D02*
X168156192Y-96394273D01*
X168156192Y-96394273D02*
X168080001Y-96432368D01*
X168080001Y-96432368D02*
X168041906Y-96470463D01*
X168041906Y-96470463D02*
X168003811Y-96546654D01*
X168003811Y-96546654D02*
X168003811Y-96622844D01*
X168003811Y-96622844D02*
X168041906Y-96699035D01*
X168041906Y-96699035D02*
X168080001Y-96737130D01*
X168080001Y-96737130D02*
X168156192Y-96775225D01*
X168156192Y-96775225D02*
X168422858Y-96775225D01*
X167622858Y-96394273D02*
X167622858Y-97041892D01*
X167622858Y-97041892D02*
X167584763Y-97118082D01*
X167584763Y-97118082D02*
X167546668Y-97156178D01*
X167546668Y-97156178D02*
X167470477Y-97194273D01*
X167470477Y-97194273D02*
X167318096Y-97194273D01*
X167318096Y-97194273D02*
X167241906Y-97156178D01*
X167241906Y-97156178D02*
X167203811Y-97118082D01*
X167203811Y-97118082D02*
X167165715Y-97041892D01*
X167165715Y-97041892D02*
X167165715Y-96394273D01*
X166822859Y-97156178D02*
X166708573Y-97194273D01*
X166708573Y-97194273D02*
X166518097Y-97194273D01*
X166518097Y-97194273D02*
X166441906Y-97156178D01*
X166441906Y-97156178D02*
X166403811Y-97118082D01*
X166403811Y-97118082D02*
X166365716Y-97041892D01*
X166365716Y-97041892D02*
X166365716Y-96965701D01*
X166365716Y-96965701D02*
X166403811Y-96889511D01*
X166403811Y-96889511D02*
X166441906Y-96851416D01*
X166441906Y-96851416D02*
X166518097Y-96813320D01*
X166518097Y-96813320D02*
X166670478Y-96775225D01*
X166670478Y-96775225D02*
X166746668Y-96737130D01*
X166746668Y-96737130D02*
X166784763Y-96699035D01*
X166784763Y-96699035D02*
X166822859Y-96622844D01*
X166822859Y-96622844D02*
X166822859Y-96546654D01*
X166822859Y-96546654D02*
X166784763Y-96470463D01*
X166784763Y-96470463D02*
X166746668Y-96432368D01*
X166746668Y-96432368D02*
X166670478Y-96394273D01*
X166670478Y-96394273D02*
X166480001Y-96394273D01*
X166480001Y-96394273D02*
X166365716Y-96432368D01*
X171660954Y-98025085D02*
X171737144Y-97986990D01*
X171737144Y-97986990D02*
X171775239Y-97948894D01*
X171775239Y-97948894D02*
X171813335Y-97872704D01*
X171813335Y-97872704D02*
X171813335Y-97834609D01*
X171813335Y-97834609D02*
X171775239Y-97758418D01*
X171775239Y-97758418D02*
X171737144Y-97720323D01*
X171737144Y-97720323D02*
X171660954Y-97682228D01*
X171660954Y-97682228D02*
X171508573Y-97682228D01*
X171508573Y-97682228D02*
X171432382Y-97720323D01*
X171432382Y-97720323D02*
X171394287Y-97758418D01*
X171394287Y-97758418D02*
X171356192Y-97834609D01*
X171356192Y-97834609D02*
X171356192Y-97872704D01*
X171356192Y-97872704D02*
X171394287Y-97948894D01*
X171394287Y-97948894D02*
X171432382Y-97986990D01*
X171432382Y-97986990D02*
X171508573Y-98025085D01*
X171508573Y-98025085D02*
X171660954Y-98025085D01*
X171660954Y-98025085D02*
X171737144Y-98063180D01*
X171737144Y-98063180D02*
X171775239Y-98101275D01*
X171775239Y-98101275D02*
X171813335Y-98177466D01*
X171813335Y-98177466D02*
X171813335Y-98329847D01*
X171813335Y-98329847D02*
X171775239Y-98406037D01*
X171775239Y-98406037D02*
X171737144Y-98444133D01*
X171737144Y-98444133D02*
X171660954Y-98482228D01*
X171660954Y-98482228D02*
X171508573Y-98482228D01*
X171508573Y-98482228D02*
X171432382Y-98444133D01*
X171432382Y-98444133D02*
X171394287Y-98406037D01*
X171394287Y-98406037D02*
X171356192Y-98329847D01*
X171356192Y-98329847D02*
X171356192Y-98177466D01*
X171356192Y-98177466D02*
X171394287Y-98101275D01*
X171394287Y-98101275D02*
X171432382Y-98063180D01*
X171432382Y-98063180D02*
X171508573Y-98025085D01*
X170518096Y-97682228D02*
X170060953Y-97682228D01*
X170289525Y-98482228D02*
X170289525Y-97682228D01*
X169794286Y-98063180D02*
X169527620Y-98063180D01*
X169413334Y-98482228D02*
X169794286Y-98482228D01*
X169794286Y-98482228D02*
X169794286Y-97682228D01*
X169794286Y-97682228D02*
X169413334Y-97682228D01*
X168613333Y-98482228D02*
X168880000Y-98101275D01*
X169070476Y-98482228D02*
X169070476Y-97682228D01*
X169070476Y-97682228D02*
X168765714Y-97682228D01*
X168765714Y-97682228D02*
X168689524Y-97720323D01*
X168689524Y-97720323D02*
X168651429Y-97758418D01*
X168651429Y-97758418D02*
X168613333Y-97834609D01*
X168613333Y-97834609D02*
X168613333Y-97948894D01*
X168613333Y-97948894D02*
X168651429Y-98025085D01*
X168651429Y-98025085D02*
X168689524Y-98063180D01*
X168689524Y-98063180D02*
X168765714Y-98101275D01*
X168765714Y-98101275D02*
X169070476Y-98101275D01*
X168270476Y-98482228D02*
X168270476Y-97682228D01*
X168270476Y-97682228D02*
X168003810Y-98253656D01*
X168003810Y-98253656D02*
X167737143Y-97682228D01*
X167737143Y-97682228D02*
X167737143Y-98482228D01*
X177010799Y-94569095D02*
X177010799Y-93769095D01*
X177010799Y-93769095D02*
X176820323Y-93769095D01*
X176820323Y-93769095D02*
X176706037Y-93807190D01*
X176706037Y-93807190D02*
X176629847Y-93883380D01*
X176629847Y-93883380D02*
X176591752Y-93959571D01*
X176591752Y-93959571D02*
X176553656Y-94111952D01*
X176553656Y-94111952D02*
X176553656Y-94226238D01*
X176553656Y-94226238D02*
X176591752Y-94378619D01*
X176591752Y-94378619D02*
X176629847Y-94454809D01*
X176629847Y-94454809D02*
X176706037Y-94531000D01*
X176706037Y-94531000D02*
X176820323Y-94569095D01*
X176820323Y-94569095D02*
X177010799Y-94569095D01*
X176210799Y-94569095D02*
X176210799Y-93769095D01*
X175829847Y-94569095D02*
X175829847Y-93769095D01*
X175829847Y-93769095D02*
X175525085Y-93769095D01*
X175525085Y-93769095D02*
X175448895Y-93807190D01*
X175448895Y-93807190D02*
X175410800Y-93845285D01*
X175410800Y-93845285D02*
X175372704Y-93921476D01*
X175372704Y-93921476D02*
X175372704Y-94035761D01*
X175372704Y-94035761D02*
X175410800Y-94111952D01*
X175410800Y-94111952D02*
X175448895Y-94150047D01*
X175448895Y-94150047D02*
X175525085Y-94188142D01*
X175525085Y-94188142D02*
X175829847Y-94188142D01*
X174153657Y-94150047D02*
X174039371Y-94188142D01*
X174039371Y-94188142D02*
X174001276Y-94226238D01*
X174001276Y-94226238D02*
X173963180Y-94302428D01*
X173963180Y-94302428D02*
X173963180Y-94416714D01*
X173963180Y-94416714D02*
X174001276Y-94492904D01*
X174001276Y-94492904D02*
X174039371Y-94531000D01*
X174039371Y-94531000D02*
X174115561Y-94569095D01*
X174115561Y-94569095D02*
X174420323Y-94569095D01*
X174420323Y-94569095D02*
X174420323Y-93769095D01*
X174420323Y-93769095D02*
X174153657Y-93769095D01*
X174153657Y-93769095D02*
X174077466Y-93807190D01*
X174077466Y-93807190D02*
X174039371Y-93845285D01*
X174039371Y-93845285D02*
X174001276Y-93921476D01*
X174001276Y-93921476D02*
X174001276Y-93997666D01*
X174001276Y-93997666D02*
X174039371Y-94073857D01*
X174039371Y-94073857D02*
X174077466Y-94111952D01*
X174077466Y-94111952D02*
X174153657Y-94150047D01*
X174153657Y-94150047D02*
X174420323Y-94150047D01*
X173620323Y-94569095D02*
X173620323Y-93769095D01*
X173353657Y-93769095D02*
X172896514Y-93769095D01*
X173125086Y-94569095D02*
X173125086Y-93769095D01*
X160294761Y-93732295D02*
X160028094Y-94532295D01*
X160028094Y-94532295D02*
X159761428Y-93732295D01*
X159228095Y-94113247D02*
X159113809Y-94151342D01*
X159113809Y-94151342D02*
X159075714Y-94189438D01*
X159075714Y-94189438D02*
X159037618Y-94265628D01*
X159037618Y-94265628D02*
X159037618Y-94379914D01*
X159037618Y-94379914D02*
X159075714Y-94456104D01*
X159075714Y-94456104D02*
X159113809Y-94494200D01*
X159113809Y-94494200D02*
X159189999Y-94532295D01*
X159189999Y-94532295D02*
X159494761Y-94532295D01*
X159494761Y-94532295D02*
X159494761Y-93732295D01*
X159494761Y-93732295D02*
X159228095Y-93732295D01*
X159228095Y-93732295D02*
X159151904Y-93770390D01*
X159151904Y-93770390D02*
X159113809Y-93808485D01*
X159113809Y-93808485D02*
X159075714Y-93884676D01*
X159075714Y-93884676D02*
X159075714Y-93960866D01*
X159075714Y-93960866D02*
X159113809Y-94037057D01*
X159113809Y-94037057D02*
X159151904Y-94075152D01*
X159151904Y-94075152D02*
X159228095Y-94113247D01*
X159228095Y-94113247D02*
X159494761Y-94113247D01*
X158694761Y-93732295D02*
X158694761Y-94379914D01*
X158694761Y-94379914D02*
X158656666Y-94456104D01*
X158656666Y-94456104D02*
X158618571Y-94494200D01*
X158618571Y-94494200D02*
X158542380Y-94532295D01*
X158542380Y-94532295D02*
X158389999Y-94532295D01*
X158389999Y-94532295D02*
X158313809Y-94494200D01*
X158313809Y-94494200D02*
X158275714Y-94456104D01*
X158275714Y-94456104D02*
X158237618Y-94379914D01*
X158237618Y-94379914D02*
X158237618Y-93732295D01*
X157894762Y-94494200D02*
X157780476Y-94532295D01*
X157780476Y-94532295D02*
X157590000Y-94532295D01*
X157590000Y-94532295D02*
X157513809Y-94494200D01*
X157513809Y-94494200D02*
X157475714Y-94456104D01*
X157475714Y-94456104D02*
X157437619Y-94379914D01*
X157437619Y-94379914D02*
X157437619Y-94303723D01*
X157437619Y-94303723D02*
X157475714Y-94227533D01*
X157475714Y-94227533D02*
X157513809Y-94189438D01*
X157513809Y-94189438D02*
X157590000Y-94151342D01*
X157590000Y-94151342D02*
X157742381Y-94113247D01*
X157742381Y-94113247D02*
X157818571Y-94075152D01*
X157818571Y-94075152D02*
X157856666Y-94037057D01*
X157856666Y-94037057D02*
X157894762Y-93960866D01*
X157894762Y-93960866D02*
X157894762Y-93884676D01*
X157894762Y-93884676D02*
X157856666Y-93808485D01*
X157856666Y-93808485D02*
X157818571Y-93770390D01*
X157818571Y-93770390D02*
X157742381Y-93732295D01*
X157742381Y-93732295D02*
X157551904Y-93732295D01*
X157551904Y-93732295D02*
X157437619Y-93770390D01*
X157094761Y-94113247D02*
X156485238Y-94113247D01*
X156485238Y-94341819D02*
X157094761Y-94341819D01*
X156218571Y-93732295D02*
X155951904Y-94532295D01*
X155951904Y-94532295D02*
X155685238Y-93732295D01*
X155418571Y-94532295D02*
X155418571Y-93732295D01*
X155418571Y-93732295D02*
X155228095Y-93732295D01*
X155228095Y-93732295D02*
X155113809Y-93770390D01*
X155113809Y-93770390D02*
X155037619Y-93846580D01*
X155037619Y-93846580D02*
X154999524Y-93922771D01*
X154999524Y-93922771D02*
X154961428Y-94075152D01*
X154961428Y-94075152D02*
X154961428Y-94189438D01*
X154961428Y-94189438D02*
X154999524Y-94341819D01*
X154999524Y-94341819D02*
X155037619Y-94418009D01*
X155037619Y-94418009D02*
X155113809Y-94494200D01*
X155113809Y-94494200D02*
X155228095Y-94532295D01*
X155228095Y-94532295D02*
X155418571Y-94532295D01*
X154618571Y-94532295D02*
X154618571Y-93732295D01*
X154618571Y-93732295D02*
X154428095Y-93732295D01*
X154428095Y-93732295D02*
X154313809Y-93770390D01*
X154313809Y-93770390D02*
X154237619Y-93846580D01*
X154237619Y-93846580D02*
X154199524Y-93922771D01*
X154199524Y-93922771D02*
X154161428Y-94075152D01*
X154161428Y-94075152D02*
X154161428Y-94189438D01*
X154161428Y-94189438D02*
X154199524Y-94341819D01*
X154199524Y-94341819D02*
X154237619Y-94418009D01*
X154237619Y-94418009D02*
X154313809Y-94494200D01*
X154313809Y-94494200D02*
X154428095Y-94532295D01*
X154428095Y-94532295D02*
X154618571Y-94532295D01*
X148470648Y-101786470D02*
X148361124Y-101824565D01*
X148361124Y-101824565D02*
X148327790Y-101862661D01*
X148327790Y-101862661D02*
X148299219Y-101938851D01*
X148299219Y-101938851D02*
X148313505Y-102053137D01*
X148313505Y-102053137D02*
X148361124Y-102129327D01*
X148361124Y-102129327D02*
X148403981Y-102167423D01*
X148403981Y-102167423D02*
X148484933Y-102205518D01*
X148484933Y-102205518D02*
X148789695Y-102205518D01*
X148789695Y-102205518D02*
X148689695Y-101405518D01*
X148689695Y-101405518D02*
X148423029Y-101405518D01*
X148423029Y-101405518D02*
X148351600Y-101443613D01*
X148351600Y-101443613D02*
X148318267Y-101481708D01*
X148318267Y-101481708D02*
X148289695Y-101557899D01*
X148289695Y-101557899D02*
X148299219Y-101634089D01*
X148299219Y-101634089D02*
X148346838Y-101710280D01*
X148346838Y-101710280D02*
X148389695Y-101748375D01*
X148389695Y-101748375D02*
X148470648Y-101786470D01*
X148470648Y-101786470D02*
X148737314Y-101786470D01*
X147646838Y-102205518D02*
X147594457Y-101786470D01*
X147594457Y-101786470D02*
X147623029Y-101710280D01*
X147623029Y-101710280D02*
X147694457Y-101672184D01*
X147694457Y-101672184D02*
X147846838Y-101672184D01*
X147846838Y-101672184D02*
X147927790Y-101710280D01*
X147642076Y-102167423D02*
X147723029Y-102205518D01*
X147723029Y-102205518D02*
X147913505Y-102205518D01*
X147913505Y-102205518D02*
X147984933Y-102167423D01*
X147984933Y-102167423D02*
X148013505Y-102091232D01*
X148013505Y-102091232D02*
X148003981Y-102015042D01*
X148003981Y-102015042D02*
X147956362Y-101938851D01*
X147956362Y-101938851D02*
X147875410Y-101900756D01*
X147875410Y-101900756D02*
X147684933Y-101900756D01*
X147684933Y-101900756D02*
X147603981Y-101862661D01*
X147299219Y-102167423D02*
X147227790Y-102205518D01*
X147227790Y-102205518D02*
X147075409Y-102205518D01*
X147075409Y-102205518D02*
X146994457Y-102167423D01*
X146994457Y-102167423D02*
X146946838Y-102091232D01*
X146946838Y-102091232D02*
X146942076Y-102053137D01*
X146942076Y-102053137D02*
X146970647Y-101976946D01*
X146970647Y-101976946D02*
X147042076Y-101938851D01*
X147042076Y-101938851D02*
X147156361Y-101938851D01*
X147156361Y-101938851D02*
X147227790Y-101900756D01*
X147227790Y-101900756D02*
X147256361Y-101824565D01*
X147256361Y-101824565D02*
X147251600Y-101786470D01*
X147251600Y-101786470D02*
X147203980Y-101710280D01*
X147203980Y-101710280D02*
X147123028Y-101672184D01*
X147123028Y-101672184D02*
X147008742Y-101672184D01*
X147008742Y-101672184D02*
X146937314Y-101710280D01*
X146308742Y-102167423D02*
X146389695Y-102205518D01*
X146389695Y-102205518D02*
X146542076Y-102205518D01*
X146542076Y-102205518D02*
X146613504Y-102167423D01*
X146613504Y-102167423D02*
X146642076Y-102091232D01*
X146642076Y-102091232D02*
X146603981Y-101786470D01*
X146603981Y-101786470D02*
X146556361Y-101710280D01*
X146556361Y-101710280D02*
X146475409Y-101672184D01*
X146475409Y-101672184D02*
X146323028Y-101672184D01*
X146323028Y-101672184D02*
X146251600Y-101710280D01*
X146251600Y-101710280D02*
X146223028Y-101786470D01*
X146223028Y-101786470D02*
X146232552Y-101862661D01*
X146232552Y-101862661D02*
X146623028Y-101938851D01*
X145589695Y-102205518D02*
X145489695Y-101405518D01*
X145584933Y-102167423D02*
X145665886Y-102205518D01*
X145665886Y-102205518D02*
X145818267Y-102205518D01*
X145818267Y-102205518D02*
X145889695Y-102167423D01*
X145889695Y-102167423D02*
X145923028Y-102129327D01*
X145923028Y-102129327D02*
X145951600Y-102053137D01*
X145951600Y-102053137D02*
X145923028Y-101824565D01*
X145923028Y-101824565D02*
X145875409Y-101748375D01*
X145875409Y-101748375D02*
X145832552Y-101710280D01*
X145832552Y-101710280D02*
X145751600Y-101672184D01*
X145751600Y-101672184D02*
X145599219Y-101672184D01*
X145599219Y-101672184D02*
X145527790Y-101710280D01*
X144484933Y-102205518D02*
X144556361Y-102167423D01*
X144556361Y-102167423D02*
X144589694Y-102129327D01*
X144589694Y-102129327D02*
X144618266Y-102053137D01*
X144618266Y-102053137D02*
X144589694Y-101824565D01*
X144589694Y-101824565D02*
X144542075Y-101748375D01*
X144542075Y-101748375D02*
X144499218Y-101710280D01*
X144499218Y-101710280D02*
X144418266Y-101672184D01*
X144418266Y-101672184D02*
X144303980Y-101672184D01*
X144303980Y-101672184D02*
X144232552Y-101710280D01*
X144232552Y-101710280D02*
X144199218Y-101748375D01*
X144199218Y-101748375D02*
X144170647Y-101824565D01*
X144170647Y-101824565D02*
X144199218Y-102053137D01*
X144199218Y-102053137D02*
X144246837Y-102129327D01*
X144246837Y-102129327D02*
X144289694Y-102167423D01*
X144289694Y-102167423D02*
X144370647Y-102205518D01*
X144370647Y-102205518D02*
X144484933Y-102205518D01*
X143808742Y-101672184D02*
X143875408Y-102205518D01*
X143818265Y-101748375D02*
X143775408Y-101710280D01*
X143775408Y-101710280D02*
X143694456Y-101672184D01*
X143694456Y-101672184D02*
X143580170Y-101672184D01*
X143580170Y-101672184D02*
X143508742Y-101710280D01*
X143508742Y-101710280D02*
X143480170Y-101786470D01*
X143480170Y-101786470D02*
X143532551Y-102205518D01*
X159937315Y-103074425D02*
X159670649Y-103074425D01*
X159608744Y-103493473D02*
X159989696Y-103493473D01*
X159989696Y-103493473D02*
X159889696Y-102693473D01*
X159889696Y-102693473D02*
X159508744Y-102693473D01*
X159199220Y-102960139D02*
X159265886Y-103493473D01*
X159208743Y-103036330D02*
X159165886Y-102998235D01*
X159165886Y-102998235D02*
X159084934Y-102960139D01*
X159084934Y-102960139D02*
X158970648Y-102960139D01*
X158970648Y-102960139D02*
X158899220Y-102998235D01*
X158899220Y-102998235D02*
X158870648Y-103074425D01*
X158870648Y-103074425D02*
X158923029Y-103493473D01*
X158589695Y-102960139D02*
X158284933Y-102960139D01*
X158442076Y-102693473D02*
X158527791Y-103379187D01*
X158527791Y-103379187D02*
X158499219Y-103455378D01*
X158499219Y-103455378D02*
X158427791Y-103493473D01*
X158427791Y-103493473D02*
X158351600Y-103493473D01*
X158084933Y-103493473D02*
X158018267Y-102960139D01*
X158037314Y-103112520D02*
X157989695Y-103036330D01*
X157989695Y-103036330D02*
X157946838Y-102998235D01*
X157946838Y-102998235D02*
X157865886Y-102960139D01*
X157865886Y-102960139D02*
X157789695Y-102960139D01*
X157280171Y-103455378D02*
X157361124Y-103493473D01*
X157361124Y-103493473D02*
X157513505Y-103493473D01*
X157513505Y-103493473D02*
X157584933Y-103455378D01*
X157584933Y-103455378D02*
X157613505Y-103379187D01*
X157613505Y-103379187D02*
X157575410Y-103074425D01*
X157575410Y-103074425D02*
X157527790Y-102998235D01*
X157527790Y-102998235D02*
X157446838Y-102960139D01*
X157446838Y-102960139D02*
X157294457Y-102960139D01*
X157294457Y-102960139D02*
X157223029Y-102998235D01*
X157223029Y-102998235D02*
X157194457Y-103074425D01*
X157194457Y-103074425D02*
X157203981Y-103150616D01*
X157203981Y-103150616D02*
X157594457Y-103226806D01*
X157256362Y-102655378D02*
X157384933Y-102769663D01*
X156594457Y-103455378D02*
X156675410Y-103493473D01*
X156675410Y-103493473D02*
X156827791Y-103493473D01*
X156827791Y-103493473D02*
X156899219Y-103455378D01*
X156899219Y-103455378D02*
X156927791Y-103379187D01*
X156927791Y-103379187D02*
X156889696Y-103074425D01*
X156889696Y-103074425D02*
X156842076Y-102998235D01*
X156842076Y-102998235D02*
X156761124Y-102960139D01*
X156761124Y-102960139D02*
X156608743Y-102960139D01*
X156608743Y-102960139D02*
X156537315Y-102998235D01*
X156537315Y-102998235D02*
X156508743Y-103074425D01*
X156508743Y-103074425D02*
X156518267Y-103150616D01*
X156518267Y-103150616D02*
X156908743Y-103226806D01*
X155508743Y-102693473D02*
X155589696Y-103341092D01*
X155589696Y-103341092D02*
X155561124Y-103417282D01*
X155561124Y-103417282D02*
X155527791Y-103455378D01*
X155527791Y-103455378D02*
X155456362Y-103493473D01*
X155456362Y-103493473D02*
X155303981Y-103493473D01*
X155303981Y-103493473D02*
X155223029Y-103455378D01*
X155223029Y-103455378D02*
X155180172Y-103417282D01*
X155180172Y-103417282D02*
X155132553Y-103341092D01*
X155132553Y-103341092D02*
X155051600Y-102693473D01*
X154803982Y-103455378D02*
X154694458Y-103493473D01*
X154694458Y-103493473D02*
X154503982Y-103493473D01*
X154503982Y-103493473D02*
X154423029Y-103455378D01*
X154423029Y-103455378D02*
X154380172Y-103417282D01*
X154380172Y-103417282D02*
X154332553Y-103341092D01*
X154332553Y-103341092D02*
X154323029Y-103264901D01*
X154323029Y-103264901D02*
X154351601Y-103188711D01*
X154351601Y-103188711D02*
X154384934Y-103150616D01*
X154384934Y-103150616D02*
X154456363Y-103112520D01*
X154456363Y-103112520D02*
X154603982Y-103074425D01*
X154603982Y-103074425D02*
X154675410Y-103036330D01*
X154675410Y-103036330D02*
X154708743Y-102998235D01*
X154708743Y-102998235D02*
X154737315Y-102922044D01*
X154737315Y-102922044D02*
X154727791Y-102845854D01*
X154727791Y-102845854D02*
X154680172Y-102769663D01*
X154680172Y-102769663D02*
X154637315Y-102731568D01*
X154637315Y-102731568D02*
X154556363Y-102693473D01*
X154556363Y-102693473D02*
X154365886Y-102693473D01*
X154365886Y-102693473D02*
X154256363Y-102731568D01*
X153689696Y-103074425D02*
X153580172Y-103112520D01*
X153580172Y-103112520D02*
X153546838Y-103150616D01*
X153546838Y-103150616D02*
X153518267Y-103226806D01*
X153518267Y-103226806D02*
X153532553Y-103341092D01*
X153532553Y-103341092D02*
X153580172Y-103417282D01*
X153580172Y-103417282D02*
X153623029Y-103455378D01*
X153623029Y-103455378D02*
X153703981Y-103493473D01*
X153703981Y-103493473D02*
X154008743Y-103493473D01*
X154008743Y-103493473D02*
X153908743Y-102693473D01*
X153908743Y-102693473D02*
X153642077Y-102693473D01*
X153642077Y-102693473D02*
X153570648Y-102731568D01*
X153570648Y-102731568D02*
X153537315Y-102769663D01*
X153537315Y-102769663D02*
X153508743Y-102845854D01*
X153508743Y-102845854D02*
X153518267Y-102922044D01*
X153518267Y-102922044D02*
X153565886Y-102998235D01*
X153565886Y-102998235D02*
X153608743Y-103036330D01*
X153608743Y-103036330D02*
X153689696Y-103074425D01*
X153689696Y-103074425D02*
X153956362Y-103074425D01*
X153170648Y-103188711D02*
X152561124Y-103188711D01*
X151751601Y-103417282D02*
X151794458Y-103455378D01*
X151794458Y-103455378D02*
X151913505Y-103493473D01*
X151913505Y-103493473D02*
X151989696Y-103493473D01*
X151989696Y-103493473D02*
X152099220Y-103455378D01*
X152099220Y-103455378D02*
X152165886Y-103379187D01*
X152165886Y-103379187D02*
X152194458Y-103302997D01*
X152194458Y-103302997D02*
X152213505Y-103150616D01*
X152213505Y-103150616D02*
X152199220Y-103036330D01*
X152199220Y-103036330D02*
X152142077Y-102883949D01*
X152142077Y-102883949D02*
X152094458Y-102807758D01*
X152094458Y-102807758D02*
X152008743Y-102731568D01*
X152008743Y-102731568D02*
X151889696Y-102693473D01*
X151889696Y-102693473D02*
X151813505Y-102693473D01*
X151813505Y-102693473D02*
X151703982Y-102731568D01*
X151703982Y-102731568D02*
X151670648Y-102769663D01*
X150808743Y-103493473D02*
X150708743Y-102693473D01*
X150361125Y-102960139D02*
X150427791Y-103493473D01*
X150370648Y-103036330D02*
X150327791Y-102998235D01*
X150327791Y-102998235D02*
X150246839Y-102960139D01*
X150246839Y-102960139D02*
X150132553Y-102960139D01*
X150132553Y-102960139D02*
X150061125Y-102998235D01*
X150061125Y-102998235D02*
X150032553Y-103074425D01*
X150032553Y-103074425D02*
X150084934Y-103493473D01*
X149751600Y-102960139D02*
X149446838Y-102960139D01*
X149603981Y-102693473D02*
X149689696Y-103379187D01*
X149689696Y-103379187D02*
X149661124Y-103455378D01*
X149661124Y-103455378D02*
X149589696Y-103493473D01*
X149589696Y-103493473D02*
X149513505Y-103493473D01*
X148937314Y-103455378D02*
X149018267Y-103493473D01*
X149018267Y-103493473D02*
X149170648Y-103493473D01*
X149170648Y-103493473D02*
X149242076Y-103455378D01*
X149242076Y-103455378D02*
X149270648Y-103379187D01*
X149270648Y-103379187D02*
X149232553Y-103074425D01*
X149232553Y-103074425D02*
X149184933Y-102998235D01*
X149184933Y-102998235D02*
X149103981Y-102960139D01*
X149103981Y-102960139D02*
X148951600Y-102960139D01*
X148951600Y-102960139D02*
X148880172Y-102998235D01*
X148880172Y-102998235D02*
X148851600Y-103074425D01*
X148851600Y-103074425D02*
X148861124Y-103150616D01*
X148861124Y-103150616D02*
X149251600Y-103226806D01*
X148561124Y-103493473D02*
X148494458Y-102960139D01*
X148513505Y-103112520D02*
X148465886Y-103036330D01*
X148465886Y-103036330D02*
X148423029Y-102998235D01*
X148423029Y-102998235D02*
X148342077Y-102960139D01*
X148342077Y-102960139D02*
X148265886Y-102960139D01*
X148113505Y-102960139D02*
X147808743Y-102960139D01*
X148065886Y-103493473D02*
X147980172Y-102807758D01*
X147980172Y-102807758D02*
X147932553Y-102731568D01*
X147932553Y-102731568D02*
X147851601Y-102693473D01*
X147851601Y-102693473D02*
X147775410Y-102693473D01*
X147265886Y-103493473D02*
X147213505Y-103074425D01*
X147213505Y-103074425D02*
X147242077Y-102998235D01*
X147242077Y-102998235D02*
X147313505Y-102960139D01*
X147313505Y-102960139D02*
X147465886Y-102960139D01*
X147465886Y-102960139D02*
X147546838Y-102998235D01*
X147261124Y-103455378D02*
X147342077Y-103493473D01*
X147342077Y-103493473D02*
X147532553Y-103493473D01*
X147532553Y-103493473D02*
X147603981Y-103455378D01*
X147603981Y-103455378D02*
X147632553Y-103379187D01*
X147632553Y-103379187D02*
X147623029Y-103302997D01*
X147623029Y-103302997D02*
X147575410Y-103226806D01*
X147575410Y-103226806D02*
X147494458Y-103188711D01*
X147494458Y-103188711D02*
X147303981Y-103188711D01*
X147303981Y-103188711D02*
X147223029Y-103150616D01*
X146537314Y-103455378D02*
X146618267Y-103493473D01*
X146618267Y-103493473D02*
X146770648Y-103493473D01*
X146770648Y-103493473D02*
X146842076Y-103455378D01*
X146842076Y-103455378D02*
X146875409Y-103417282D01*
X146875409Y-103417282D02*
X146903981Y-103341092D01*
X146903981Y-103341092D02*
X146875409Y-103112520D01*
X146875409Y-103112520D02*
X146827790Y-103036330D01*
X146827790Y-103036330D02*
X146784933Y-102998235D01*
X146784933Y-102998235D02*
X146703981Y-102960139D01*
X146703981Y-102960139D02*
X146551600Y-102960139D01*
X146551600Y-102960139D02*
X146480171Y-102998235D01*
X145889695Y-103455378D02*
X145970648Y-103493473D01*
X145970648Y-103493473D02*
X146123029Y-103493473D01*
X146123029Y-103493473D02*
X146194457Y-103455378D01*
X146194457Y-103455378D02*
X146223029Y-103379187D01*
X146223029Y-103379187D02*
X146184934Y-103074425D01*
X146184934Y-103074425D02*
X146137314Y-102998235D01*
X146137314Y-102998235D02*
X146056362Y-102960139D01*
X146056362Y-102960139D02*
X145903981Y-102960139D01*
X145903981Y-102960139D02*
X145832553Y-102998235D01*
X145832553Y-102998235D02*
X145803981Y-103074425D01*
X145803981Y-103074425D02*
X145813505Y-103150616D01*
X145813505Y-103150616D02*
X146203981Y-103226806D01*
X144446838Y-103493473D02*
X144665886Y-103112520D01*
X144903981Y-103493473D02*
X144803981Y-102693473D01*
X144803981Y-102693473D02*
X144499219Y-102693473D01*
X144499219Y-102693473D02*
X144427791Y-102731568D01*
X144427791Y-102731568D02*
X144394457Y-102769663D01*
X144394457Y-102769663D02*
X144365886Y-102845854D01*
X144365886Y-102845854D02*
X144380172Y-102960139D01*
X144380172Y-102960139D02*
X144427791Y-103036330D01*
X144427791Y-103036330D02*
X144470648Y-103074425D01*
X144470648Y-103074425D02*
X144551600Y-103112520D01*
X144551600Y-103112520D02*
X144856362Y-103112520D01*
X144051600Y-102769663D02*
X144008743Y-102731568D01*
X144008743Y-102731568D02*
X143927791Y-102693473D01*
X143927791Y-102693473D02*
X143737315Y-102693473D01*
X143737315Y-102693473D02*
X143665886Y-102731568D01*
X143665886Y-102731568D02*
X143632553Y-102769663D01*
X143632553Y-102769663D02*
X143603981Y-102845854D01*
X143603981Y-102845854D02*
X143613505Y-102922044D01*
X143613505Y-102922044D02*
X143665886Y-103036330D01*
X143665886Y-103036330D02*
X144180172Y-103493473D01*
X144180172Y-103493473D02*
X143684934Y-103493473D01*
X142694457Y-103188711D02*
X142084933Y-103188711D01*
X140803981Y-102693473D02*
X140875409Y-103264901D01*
X140875409Y-103264901D02*
X140927790Y-103379187D01*
X140927790Y-103379187D02*
X141013505Y-103455378D01*
X141013505Y-103455378D02*
X141132552Y-103493473D01*
X141132552Y-103493473D02*
X141208743Y-103493473D01*
X140203981Y-103074425D02*
X140094457Y-103112520D01*
X140094457Y-103112520D02*
X140061123Y-103150616D01*
X140061123Y-103150616D02*
X140032552Y-103226806D01*
X140032552Y-103226806D02*
X140046838Y-103341092D01*
X140046838Y-103341092D02*
X140094457Y-103417282D01*
X140094457Y-103417282D02*
X140137314Y-103455378D01*
X140137314Y-103455378D02*
X140218266Y-103493473D01*
X140218266Y-103493473D02*
X140523028Y-103493473D01*
X140523028Y-103493473D02*
X140423028Y-102693473D01*
X140423028Y-102693473D02*
X140156362Y-102693473D01*
X140156362Y-102693473D02*
X140084933Y-102731568D01*
X140084933Y-102731568D02*
X140051600Y-102769663D01*
X140051600Y-102769663D02*
X140023028Y-102845854D01*
X140023028Y-102845854D02*
X140032552Y-102922044D01*
X140032552Y-102922044D02*
X140080171Y-102998235D01*
X140080171Y-102998235D02*
X140123028Y-103036330D01*
X140123028Y-103036330D02*
X140203981Y-103074425D01*
X140203981Y-103074425D02*
X140470647Y-103074425D01*
X139265885Y-103493473D02*
X139484933Y-103112520D01*
X139723028Y-103493473D02*
X139623028Y-102693473D01*
X139623028Y-102693473D02*
X139318266Y-102693473D01*
X139318266Y-102693473D02*
X139246838Y-102731568D01*
X139246838Y-102731568D02*
X139213504Y-102769663D01*
X139213504Y-102769663D02*
X139184933Y-102845854D01*
X139184933Y-102845854D02*
X139199219Y-102960139D01*
X139199219Y-102960139D02*
X139246838Y-103036330D01*
X139246838Y-103036330D02*
X139289695Y-103074425D01*
X139289695Y-103074425D02*
X139370647Y-103112520D01*
X139370647Y-103112520D02*
X139675409Y-103112520D01*
X138261123Y-103074425D02*
X137994457Y-103074425D01*
X137932552Y-103493473D02*
X138313504Y-103493473D01*
X138313504Y-103493473D02*
X138213504Y-102693473D01*
X138213504Y-102693473D02*
X137832552Y-102693473D01*
X137523028Y-102960139D02*
X137589694Y-103493473D01*
X137532551Y-103036330D02*
X137489694Y-102998235D01*
X137489694Y-102998235D02*
X137408742Y-102960139D01*
X137408742Y-102960139D02*
X137294456Y-102960139D01*
X137294456Y-102960139D02*
X137223028Y-102998235D01*
X137223028Y-102998235D02*
X137194456Y-103074425D01*
X137194456Y-103074425D02*
X137246837Y-103493473D01*
X136456360Y-102960139D02*
X136537313Y-103607758D01*
X136537313Y-103607758D02*
X136584932Y-103683949D01*
X136584932Y-103683949D02*
X136627789Y-103722044D01*
X136627789Y-103722044D02*
X136708741Y-103760139D01*
X136708741Y-103760139D02*
X136823027Y-103760139D01*
X136823027Y-103760139D02*
X136894456Y-103722044D01*
X136518265Y-103455378D02*
X136599218Y-103493473D01*
X136599218Y-103493473D02*
X136751599Y-103493473D01*
X136751599Y-103493473D02*
X136823027Y-103455378D01*
X136823027Y-103455378D02*
X136856360Y-103417282D01*
X136856360Y-103417282D02*
X136884932Y-103341092D01*
X136884932Y-103341092D02*
X136856360Y-103112520D01*
X136856360Y-103112520D02*
X136808741Y-103036330D01*
X136808741Y-103036330D02*
X136765884Y-102998235D01*
X136765884Y-102998235D02*
X136684932Y-102960139D01*
X136684932Y-102960139D02*
X136532551Y-102960139D01*
X136532551Y-102960139D02*
X136461122Y-102998235D01*
X136142074Y-103493473D02*
X136075408Y-102960139D01*
X136042074Y-102693473D02*
X136084931Y-102731568D01*
X136084931Y-102731568D02*
X136051598Y-102769663D01*
X136051598Y-102769663D02*
X136008741Y-102731568D01*
X136008741Y-102731568D02*
X136042074Y-102693473D01*
X136042074Y-102693473D02*
X136051598Y-102769663D01*
X135694456Y-102960139D02*
X135761122Y-103493473D01*
X135703979Y-103036330D02*
X135661122Y-102998235D01*
X135661122Y-102998235D02*
X135580170Y-102960139D01*
X135580170Y-102960139D02*
X135465884Y-102960139D01*
X135465884Y-102960139D02*
X135394456Y-102998235D01*
X135394456Y-102998235D02*
X135365884Y-103074425D01*
X135365884Y-103074425D02*
X135418265Y-103493473D01*
X134727788Y-103455378D02*
X134808741Y-103493473D01*
X134808741Y-103493473D02*
X134961122Y-103493473D01*
X134961122Y-103493473D02*
X135032550Y-103455378D01*
X135032550Y-103455378D02*
X135061122Y-103379187D01*
X135061122Y-103379187D02*
X135023027Y-103074425D01*
X135023027Y-103074425D02*
X134975407Y-102998235D01*
X134975407Y-102998235D02*
X134894455Y-102960139D01*
X134894455Y-102960139D02*
X134742074Y-102960139D01*
X134742074Y-102960139D02*
X134670646Y-102998235D01*
X134670646Y-102998235D02*
X134642074Y-103074425D01*
X134642074Y-103074425D02*
X134651598Y-103150616D01*
X134651598Y-103150616D02*
X135042074Y-103226806D01*
X134042074Y-103455378D02*
X134123027Y-103493473D01*
X134123027Y-103493473D02*
X134275408Y-103493473D01*
X134275408Y-103493473D02*
X134346836Y-103455378D01*
X134346836Y-103455378D02*
X134375408Y-103379187D01*
X134375408Y-103379187D02*
X134337313Y-103074425D01*
X134337313Y-103074425D02*
X134289693Y-102998235D01*
X134289693Y-102998235D02*
X134208741Y-102960139D01*
X134208741Y-102960139D02*
X134056360Y-102960139D01*
X134056360Y-102960139D02*
X133984932Y-102998235D01*
X133984932Y-102998235D02*
X133956360Y-103074425D01*
X133956360Y-103074425D02*
X133965884Y-103150616D01*
X133965884Y-103150616D02*
X134356360Y-103226806D01*
X133665884Y-103493473D02*
X133599218Y-102960139D01*
X133618265Y-103112520D02*
X133570646Y-103036330D01*
X133570646Y-103036330D02*
X133527789Y-102998235D01*
X133527789Y-102998235D02*
X133446837Y-102960139D01*
X133446837Y-102960139D02*
X133370646Y-102960139D01*
X133170646Y-103493473D02*
X133103980Y-102960139D01*
X133070646Y-102693473D02*
X133113503Y-102731568D01*
X133113503Y-102731568D02*
X133080170Y-102769663D01*
X133080170Y-102769663D02*
X133037313Y-102731568D01*
X133037313Y-102731568D02*
X133070646Y-102693473D01*
X133070646Y-102693473D02*
X133080170Y-102769663D01*
X132723028Y-102960139D02*
X132789694Y-103493473D01*
X132732551Y-103036330D02*
X132689694Y-102998235D01*
X132689694Y-102998235D02*
X132608742Y-102960139D01*
X132608742Y-102960139D02*
X132494456Y-102960139D01*
X132494456Y-102960139D02*
X132423028Y-102998235D01*
X132423028Y-102998235D02*
X132394456Y-103074425D01*
X132394456Y-103074425D02*
X132446837Y-103493473D01*
X131656360Y-102960139D02*
X131737313Y-103607758D01*
X131737313Y-103607758D02*
X131784932Y-103683949D01*
X131784932Y-103683949D02*
X131827789Y-103722044D01*
X131827789Y-103722044D02*
X131908741Y-103760139D01*
X131908741Y-103760139D02*
X132023027Y-103760139D01*
X132023027Y-103760139D02*
X132094456Y-103722044D01*
X131718265Y-103455378D02*
X131799218Y-103493473D01*
X131799218Y-103493473D02*
X131951599Y-103493473D01*
X131951599Y-103493473D02*
X132023027Y-103455378D01*
X132023027Y-103455378D02*
X132056360Y-103417282D01*
X132056360Y-103417282D02*
X132084932Y-103341092D01*
X132084932Y-103341092D02*
X132056360Y-103112520D01*
X132056360Y-103112520D02*
X132008741Y-103036330D01*
X132008741Y-103036330D02*
X131965884Y-102998235D01*
X131965884Y-102998235D02*
X131884932Y-102960139D01*
X131884932Y-102960139D02*
X131732551Y-102960139D01*
X131732551Y-102960139D02*
X131661122Y-102998235D01*
X165169219Y-106184705D02*
X165169219Y-106756133D01*
X166169219Y-106470419D02*
X165169219Y-106470419D01*
X166169219Y-107089467D02*
X165169219Y-107089467D01*
X165169219Y-107089467D02*
X165169219Y-107470419D01*
X165169219Y-107470419D02*
X165216838Y-107565657D01*
X165216838Y-107565657D02*
X165264457Y-107613276D01*
X165264457Y-107613276D02*
X165359695Y-107660895D01*
X165359695Y-107660895D02*
X165502552Y-107660895D01*
X165502552Y-107660895D02*
X165597790Y-107613276D01*
X165597790Y-107613276D02*
X165645409Y-107565657D01*
X165645409Y-107565657D02*
X165693028Y-107470419D01*
X165693028Y-107470419D02*
X165693028Y-107089467D01*
X166169219Y-108613276D02*
X166169219Y-108041848D01*
X166169219Y-108327562D02*
X165169219Y-108327562D01*
X165169219Y-108327562D02*
X165312076Y-108232324D01*
X165312076Y-108232324D02*
X165407314Y-108137086D01*
X165407314Y-108137086D02*
X165454933Y-108041848D01*
X165169219Y-109518038D02*
X165169219Y-109041848D01*
X165169219Y-109041848D02*
X165645409Y-108994229D01*
X165645409Y-108994229D02*
X165597790Y-109041848D01*
X165597790Y-109041848D02*
X165550171Y-109137086D01*
X165550171Y-109137086D02*
X165550171Y-109375181D01*
X165550171Y-109375181D02*
X165597790Y-109470419D01*
X165597790Y-109470419D02*
X165645409Y-109518038D01*
X165645409Y-109518038D02*
X165740647Y-109565657D01*
X165740647Y-109565657D02*
X165978742Y-109565657D01*
X165978742Y-109565657D02*
X166073980Y-109518038D01*
X166073980Y-109518038D02*
X166121600Y-109470419D01*
X166121600Y-109470419D02*
X166169219Y-109375181D01*
X166169219Y-109375181D02*
X166169219Y-109137086D01*
X166169219Y-109137086D02*
X166121600Y-109041848D01*
X166121600Y-109041848D02*
X166073980Y-108994229D01*
X162654619Y-106133905D02*
X162654619Y-106705333D01*
X163654619Y-106419619D02*
X162654619Y-106419619D01*
X163654619Y-107038667D02*
X162654619Y-107038667D01*
X162654619Y-107038667D02*
X162654619Y-107419619D01*
X162654619Y-107419619D02*
X162702238Y-107514857D01*
X162702238Y-107514857D02*
X162749857Y-107562476D01*
X162749857Y-107562476D02*
X162845095Y-107610095D01*
X162845095Y-107610095D02*
X162987952Y-107610095D01*
X162987952Y-107610095D02*
X163083190Y-107562476D01*
X163083190Y-107562476D02*
X163130809Y-107514857D01*
X163130809Y-107514857D02*
X163178428Y-107419619D01*
X163178428Y-107419619D02*
X163178428Y-107038667D01*
X163654619Y-108562476D02*
X163654619Y-107991048D01*
X163654619Y-108276762D02*
X162654619Y-108276762D01*
X162654619Y-108276762D02*
X162797476Y-108181524D01*
X162797476Y-108181524D02*
X162892714Y-108086286D01*
X162892714Y-108086286D02*
X162940333Y-107991048D01*
X162987952Y-109419619D02*
X163654619Y-109419619D01*
X162607000Y-109181524D02*
X163321285Y-108943429D01*
X163321285Y-108943429D02*
X163321285Y-109562476D01*
X160089219Y-106286305D02*
X160089219Y-106857733D01*
X161089219Y-106572019D02*
X160089219Y-106572019D01*
X161089219Y-107191067D02*
X160089219Y-107191067D01*
X160089219Y-107191067D02*
X160089219Y-107572019D01*
X160089219Y-107572019D02*
X160136838Y-107667257D01*
X160136838Y-107667257D02*
X160184457Y-107714876D01*
X160184457Y-107714876D02*
X160279695Y-107762495D01*
X160279695Y-107762495D02*
X160422552Y-107762495D01*
X160422552Y-107762495D02*
X160517790Y-107714876D01*
X160517790Y-107714876D02*
X160565409Y-107667257D01*
X160565409Y-107667257D02*
X160613028Y-107572019D01*
X160613028Y-107572019D02*
X160613028Y-107191067D01*
X161089219Y-108714876D02*
X161089219Y-108143448D01*
X161089219Y-108429162D02*
X160089219Y-108429162D01*
X160089219Y-108429162D02*
X160232076Y-108333924D01*
X160232076Y-108333924D02*
X160327314Y-108238686D01*
X160327314Y-108238686D02*
X160374933Y-108143448D01*
X160089219Y-109048210D02*
X160089219Y-109667257D01*
X160089219Y-109667257D02*
X160470171Y-109333924D01*
X160470171Y-109333924D02*
X160470171Y-109476781D01*
X160470171Y-109476781D02*
X160517790Y-109572019D01*
X160517790Y-109572019D02*
X160565409Y-109619638D01*
X160565409Y-109619638D02*
X160660647Y-109667257D01*
X160660647Y-109667257D02*
X160898742Y-109667257D01*
X160898742Y-109667257D02*
X160993980Y-109619638D01*
X160993980Y-109619638D02*
X161041600Y-109572019D01*
X161041600Y-109572019D02*
X161089219Y-109476781D01*
X161089219Y-109476781D02*
X161089219Y-109191067D01*
X161089219Y-109191067D02*
X161041600Y-109095829D01*
X161041600Y-109095829D02*
X160993980Y-109048210D01*
X157574619Y-106184705D02*
X157574619Y-106756133D01*
X158574619Y-106470419D02*
X157574619Y-106470419D01*
X158574619Y-107089467D02*
X157574619Y-107089467D01*
X157574619Y-107089467D02*
X157574619Y-107470419D01*
X157574619Y-107470419D02*
X157622238Y-107565657D01*
X157622238Y-107565657D02*
X157669857Y-107613276D01*
X157669857Y-107613276D02*
X157765095Y-107660895D01*
X157765095Y-107660895D02*
X157907952Y-107660895D01*
X157907952Y-107660895D02*
X158003190Y-107613276D01*
X158003190Y-107613276D02*
X158050809Y-107565657D01*
X158050809Y-107565657D02*
X158098428Y-107470419D01*
X158098428Y-107470419D02*
X158098428Y-107089467D01*
X158574619Y-108613276D02*
X158574619Y-108041848D01*
X158574619Y-108327562D02*
X157574619Y-108327562D01*
X157574619Y-108327562D02*
X157717476Y-108232324D01*
X157717476Y-108232324D02*
X157812714Y-108137086D01*
X157812714Y-108137086D02*
X157860333Y-108041848D01*
X157669857Y-108994229D02*
X157622238Y-109041848D01*
X157622238Y-109041848D02*
X157574619Y-109137086D01*
X157574619Y-109137086D02*
X157574619Y-109375181D01*
X157574619Y-109375181D02*
X157622238Y-109470419D01*
X157622238Y-109470419D02*
X157669857Y-109518038D01*
X157669857Y-109518038D02*
X157765095Y-109565657D01*
X157765095Y-109565657D02*
X157860333Y-109565657D01*
X157860333Y-109565657D02*
X158003190Y-109518038D01*
X158003190Y-109518038D02*
X158574619Y-108946610D01*
X158574619Y-108946610D02*
X158574619Y-109565657D01*
X154907619Y-106260905D02*
X154907619Y-106832333D01*
X155907619Y-106546619D02*
X154907619Y-106546619D01*
X155907619Y-107165667D02*
X154907619Y-107165667D01*
X154907619Y-107165667D02*
X154907619Y-107546619D01*
X154907619Y-107546619D02*
X154955238Y-107641857D01*
X154955238Y-107641857D02*
X155002857Y-107689476D01*
X155002857Y-107689476D02*
X155098095Y-107737095D01*
X155098095Y-107737095D02*
X155240952Y-107737095D01*
X155240952Y-107737095D02*
X155336190Y-107689476D01*
X155336190Y-107689476D02*
X155383809Y-107641857D01*
X155383809Y-107641857D02*
X155431428Y-107546619D01*
X155431428Y-107546619D02*
X155431428Y-107165667D01*
X155907619Y-108689476D02*
X155907619Y-108118048D01*
X155907619Y-108403762D02*
X154907619Y-108403762D01*
X154907619Y-108403762D02*
X155050476Y-108308524D01*
X155050476Y-108308524D02*
X155145714Y-108213286D01*
X155145714Y-108213286D02*
X155193333Y-108118048D01*
X155907619Y-109641857D02*
X155907619Y-109070429D01*
X155907619Y-109356143D02*
X154907619Y-109356143D01*
X154907619Y-109356143D02*
X155050476Y-109260905D01*
X155050476Y-109260905D02*
X155145714Y-109165667D01*
X155145714Y-109165667D02*
X155193333Y-109070429D01*
X140714285Y-96904819D02*
X141285713Y-96904819D01*
X140999999Y-96904819D02*
X140999999Y-95904819D01*
X140999999Y-95904819D02*
X141095237Y-96047676D01*
X141095237Y-96047676D02*
X141190475Y-96142914D01*
X141190475Y-96142914D02*
X141285713Y-96190533D01*
X146533332Y-95904819D02*
X145914285Y-95904819D01*
X145914285Y-95904819D02*
X146247618Y-96285771D01*
X146247618Y-96285771D02*
X146104761Y-96285771D01*
X146104761Y-96285771D02*
X146009523Y-96333390D01*
X146009523Y-96333390D02*
X145961904Y-96381009D01*
X145961904Y-96381009D02*
X145914285Y-96476247D01*
X145914285Y-96476247D02*
X145914285Y-96714342D01*
X145914285Y-96714342D02*
X145961904Y-96809580D01*
X145961904Y-96809580D02*
X146009523Y-96857200D01*
X146009523Y-96857200D02*
X146104761Y-96904819D01*
X146104761Y-96904819D02*
X146390475Y-96904819D01*
X146390475Y-96904819D02*
X146485713Y-96857200D01*
X146485713Y-96857200D02*
X146533332Y-96809580D01*
D12*
X166715200Y-110869200D02*
G75*
G02*
X164815200Y-110869200I-950000J0D01*
G01*
X164815200Y-110869200D02*
G75*
G02*
X166715200Y-110869200I950000J0D01*
G01*
X164175200Y-110869200D02*
G75*
G02*
X162275200Y-110869200I-950000J0D01*
G01*
X162275200Y-110869200D02*
G75*
G02*
X164175200Y-110869200I950000J0D01*
G01*
X161635200Y-110869200D02*
G75*
G02*
X159735200Y-110869200I-950000J0D01*
G01*
X159735200Y-110869200D02*
G75*
G02*
X161635200Y-110869200I950000J0D01*
G01*
X159095200Y-110869200D02*
G75*
G02*
X157195200Y-110869200I-950000J0D01*
G01*
X157195200Y-110869200D02*
G75*
G02*
X159095200Y-110869200I950000J0D01*
G01*
X156555200Y-110869200D02*
G75*
G02*
X154655200Y-110869200I-950000J0D01*
G01*
X154655200Y-110869200D02*
G75*
G02*
X156555200Y-110869200I950000J0D01*
G01*
X141550000Y-96150000D02*
X141550000Y-96750000D01*
X142200000Y-97450000D02*
X145000000Y-97450000D01*
X145000000Y-95450000D02*
X142200000Y-95450000D01*
X145650000Y-96750000D02*
X145650000Y-96150000D01*
X141550000Y-96150000D02*
G75*
G02*
X142250000Y-95450000I699999J1D01*
G01*
X142250000Y-97450000D02*
G75*
G02*
X141550000Y-96750000I-1J699999D01*
G01*
X144950000Y-95450000D02*
G75*
G02*
X145650000Y-96150000I0J-700000D01*
G01*
X145650000Y-96750000D02*
G75*
G02*
X144950000Y-97450000I-700000J0D01*
G01*
X151500000Y-95100000D02*
X151500000Y-95700000D01*
X152200000Y-96400000D02*
X153600000Y-96400000D01*
X153600000Y-94400000D02*
X152200000Y-94400000D01*
X154300000Y-95700000D02*
X154300000Y-95100000D01*
X151500000Y-95100000D02*
G75*
G02*
X152200000Y-94400000I699999J1D01*
G01*
X152200000Y-96400000D02*
G75*
G02*
X151500000Y-95700000I-1J699999D01*
G01*
X153600000Y-94400000D02*
G75*
G02*
X154300000Y-95100000I0J-700000D01*
G01*
X154300000Y-95700000D02*
G75*
G02*
X153600000Y-96400000I-700000J0D01*
G01*
M02*
